<svg width="75" height="87" viewBox="0 0 75 87" fill="none" xmlns="http://www.w3.org/2000/svg">
<circle cx="36" cy="36" r="36" fill="#E7EFFE"/>
<path d="M26.3259 56.2995L15.6116 62.2146C14.9828 62.5616 14.2401 63.2755 13.7144 63.7404C19.9611 69.0713 28.2026 71.9999 37.0131 71.9999C45.7586 71.9999 53.7709 68.8319 60.0001 63.5737C59.4255 63.0827 58.8022 62.6411 58.1111 62.2927L46.638 56.4874C45.1556 55.7372 44.2192 54.2039 44.2192 52.5266V47.9706C44.5417 47.5989 44.9103 47.1217 45.3046 46.558C46.8684 44.3225 48.0513 41.8635 48.8711 39.2838C50.3427 38.8243 51.4267 37.4488 51.4267 35.814V30.9508C51.4267 29.8811 50.9565 28.9251 50.2262 28.2559V21.2258C50.2262 21.2258 51.653 10.2856 37.0145 10.2856C22.376 10.2856 23.8028 21.2258 23.8028 21.2258V28.2559C23.0711 28.9251 22.6023 29.8811 22.6023 30.9508V35.814C22.6023 37.0949 23.2676 38.2223 24.2635 38.8737C25.4641 44.1634 28.6078 47.9706 28.6078 47.9706V52.4141C28.6064 54.0324 27.7311 55.5232 26.3259 56.2995Z" fill="#85B6F8"/>
<path d="M60 57C51.7161 57 45 63.7158 45 72C45 80.2842 51.7161 87 60 87C68.2848 87 75 80.2842 75 72C75 63.7158 68.2845 57 60 57ZM57.2484 79.7052L50.6436 73.1007L52.845 70.8993L57.2484 75.3024L67.155 65.3955L69.3564 67.5969L57.2484 79.7052Z" fill="#7FCA27"/>
</svg>
