<svg width="1440" height="485" viewBox="0 0 1440 485" fill="none" xmlns="http://www.w3.org/2000/svg">
<rect x="1.19922" y="1.0033" width="1438.8" height="482.594" fill="url(#paint0_linear_71_9192)"/>
<g opacity="0.2">
<path d="M1439.8 220.809V483.573H0V310.01C7.87392 309.335 9.11124 310.347 14.7355 300.448C28.9085 275.477 47.131 252.305 70.9777 236.332C94.8244 220.359 124.745 212.26 152.866 218.447C180.875 224.521 205.959 246.343 212.146 274.352C214.62 271.765 217.208 269.29 220.02 267.04C245.891 245.218 282.561 235.882 315.069 245.443C349.264 255.567 377.048 284.813 385.822 319.346C386.272 321.033 386.609 322.72 386.947 324.52C419.792 359.053 470.185 363.89 513.154 343.192C513.717 342.967 514.279 342.63 514.842 342.405C514.954 342.293 515.067 342.293 515.292 342.18C516.416 341.618 517.429 341.055 518.554 340.493C546.562 325.87 559.835 311.022 592.681 315.859C627.551 321.033 659.384 343.642 675.807 374.801C684.018 390.323 694.254 396.06 711.689 398.085C729.125 400.222 746.672 395.498 763.657 391.223C780.755 386.949 798.415 382.899 815.738 386.274C837.222 390.548 845.321 413.045 866.581 418.22C879.629 421.369 892.002 419.457 903.813 414.958C923.948 407.309 942.733 392.236 961.18 382.45C962.642 381.662 964.105 380.875 965.567 380.2C981.427 372.438 1002.8 362.315 1020.8 366.027C1039.69 370.076 1056.68 387.061 1077.04 391.111C1097.17 395.16 1119.78 392.123 1134.86 378.175C1155.33 359.278 1155.1 319.908 1169.84 295.274C1181.65 275.477 1197.96 257.142 1219.67 249.493C1225.07 247.581 1230.69 246.568 1236.54 246.343C1254.09 245.668 1271.97 252.755 1280.86 267.715C1297.85 296.399 1320.79 280.764 1347.9 261.191C1360.61 251.967 1369.61 238.244 1382.32 228.908C1398.29 216.872 1420.45 214.735 1439.8 220.809Z" fill="url(#paint1_linear_71_9192)"/>
<path d="M1236.32 246.343C1219.33 250.843 1203.7 264.116 1194.02 279.414C1179.74 301.911 1174.11 328.682 1163.54 353.203C1152.97 377.725 1134.63 401.684 1108.31 406.634C1090.31 410.008 1072.09 403.596 1055.44 395.948C1038.91 388.299 1022.6 379.075 1004.6 376.15C986.602 373.226 965.792 378.062 955.781 393.36C957.243 389.648 958.93 386.049 960.955 382.337C962.418 381.55 963.88 380.762 965.342 380.087C981.202 372.326 1002.57 362.202 1020.57 365.914C1039.47 369.964 1056.45 386.949 1076.81 390.998C1096.95 395.048 1119.56 392.011 1134.63 378.063C1155.1 359.165 1154.88 319.796 1169.61 295.161C1181.42 275.364 1197.74 257.029 1219.44 249.38C1224.84 247.693 1230.58 246.568 1236.32 246.343Z" fill="#FFFCFA"/>
<path d="M1236.32 246.343C1219.33 250.843 1203.7 264.116 1194.02 279.414C1179.74 301.911 1174.11 328.682 1163.54 353.203C1152.97 377.725 1134.63 401.684 1108.31 406.634C1090.31 410.008 1072.09 403.596 1055.44 395.948C1038.91 388.299 1022.6 379.075 1004.6 376.15C986.602 373.226 965.792 378.063 955.781 393.36C957.243 389.648 958.93 386.049 960.955 382.337C962.418 381.55 963.88 380.762 965.342 380.087C981.202 372.326 1002.57 362.202 1020.57 365.914C1039.47 369.964 1056.45 386.949 1076.81 390.998C1096.95 395.048 1119.56 392.011 1134.63 378.063C1155.1 359.165 1154.88 319.796 1169.61 295.161C1181.42 275.364 1197.74 257.029 1219.44 249.38C1224.84 247.693 1230.58 246.568 1236.32 246.343Z" stroke="#FFD561" stroke-miterlimit="10" stroke-linecap="round" stroke-linejoin="round"/>
<path d="M903.588 414.958C902.126 416.195 900.438 417.432 898.639 418.895C887.728 427.669 871.642 425.869 858.707 420.47C845.771 415.07 834.185 406.634 820.799 402.697C778.955 390.436 732.162 425.081 691.892 408.096C668.72 398.31 655.447 374.351 636.887 357.366C605.504 328.682 556.236 321.933 518.216 340.493C546.225 325.87 559.498 311.022 592.343 315.859C627.214 321.033 659.047 343.643 675.469 374.801C683.681 390.324 693.917 396.06 711.352 398.085C728.787 400.222 746.335 395.498 763.32 391.224C780.418 386.949 798.078 382.9 815.4 386.274C836.885 390.549 844.984 413.046 866.243 418.22C879.404 421.482 891.777 419.457 903.588 414.958Z" fill="url(#paint2_linear_71_9192)"/>
<path d="M903.588 414.958C902.126 416.195 900.438 417.432 898.639 418.895C887.728 427.669 871.642 425.869 858.707 420.47C845.771 415.07 834.185 406.634 820.799 402.697C778.955 390.436 732.162 425.081 691.892 408.096C668.72 398.31 655.447 374.351 636.887 357.366C605.504 328.682 556.236 321.933 518.216 340.493C546.225 325.87 559.498 311.022 592.343 315.859C627.214 321.033 659.047 343.643 675.469 374.801C683.681 390.324 693.917 396.06 711.352 398.085C728.787 400.222 746.335 395.498 763.32 391.224C780.418 386.949 798.078 382.9 815.4 386.274C836.885 390.549 844.984 413.046 866.243 418.22C879.404 421.482 891.777 419.457 903.588 414.958Z" stroke="#FFD561" stroke-miterlimit="10" stroke-linecap="round" stroke-linejoin="round"/>
<path d="M385.709 319.346C362.538 299.099 338.129 279.639 309.67 268.053C281.211 256.467 247.466 253.88 220.02 266.928C245.891 245.106 282.561 235.77 315.069 245.331C349.152 255.455 376.936 284.813 385.709 319.346Z" fill="#FFFEFD"/>
<path d="M385.709 319.346C362.538 299.099 338.129 279.639 309.67 268.053C281.211 256.467 247.466 253.88 220.02 266.928C245.891 245.106 282.561 235.77 315.069 245.331C349.152 255.455 376.936 284.813 385.709 319.346Z" stroke="#FFD561" stroke-miterlimit="10" stroke-linecap="round" stroke-linejoin="round"/>
<path d="M1439.8 220.809V483.573H0V310.01C7.87392 309.335 9.11124 310.347 14.7355 300.448C28.9085 275.477 47.131 252.305 70.9777 236.332C94.8244 220.359 124.745 212.26 152.866 218.447C180.875 224.521 205.959 246.343 212.146 274.352C238.017 247.356 279.074 234.87 314.957 245.443C350.839 256.017 379.635 287.738 386.834 324.52C419.68 359.053 470.073 363.89 513.042 343.192C544.762 327.895 557.586 310.684 592.456 315.859C627.326 321.033 659.159 343.642 675.582 374.801C683.793 390.323 694.029 396.06 711.464 398.085C728.9 400.222 746.447 395.498 763.432 391.223C780.53 386.949 798.19 382.899 815.513 386.274C836.997 390.548 845.096 413.045 866.356 418.22C903.138 427.218 934.746 395.048 965.455 380.087C981.315 372.326 1002.69 362.202 1020.68 365.914C1039.58 369.964 1056.57 386.949 1076.93 390.998C1097.06 395.048 1119.67 392.011 1134.74 378.063C1155.22 359.165 1154.99 319.796 1169.73 295.162C1181.54 275.364 1197.85 257.029 1219.56 249.38C1241.27 241.731 1268.94 247.693 1280.64 267.49C1297.62 296.174 1320.57 280.539 1347.68 260.966C1360.39 251.743 1369.39 238.019 1382.1 228.683C1398.29 216.872 1420.45 214.735 1439.8 220.809Z" stroke="#FFD561" stroke-miterlimit="10" stroke-linecap="round" stroke-linejoin="round"/>
<path d="M170.752 440.492C173.451 419.12 176.263 397.298 185.262 377.613C194.261 357.928 210.459 340.381 231.381 335.319C248.141 331.269 265.801 335.431 281.549 342.18C282.224 319.121 303.033 294.262 325.305 288.413C347.577 282.564 373.224 292.912 385.147 312.709C396.395 331.382 426.766 333.744 446.451 324.295C457.924 318.784 467.711 308.885 470.748 296.512C473.785 284.138 468.835 269.628 457.587 263.554C467.823 270.303 474.91 274.127 481.884 284.251C488.858 294.374 492.795 306.973 490.77 319.009C488.745 331.157 479.971 342.293 468.048 345.33C487.958 337.906 510.455 343.643 528.002 355.453C545.55 367.264 557.023 387.849 557.586 409.109C532.614 416.195 503.031 429.468 481.209 443.754C466.473 453.427 453.538 466.138 437.34 472.887C413.606 482.898 386.497 478.624 361.075 474.237C296.734 463.214 235.43 451.74 170.752 440.492Z" fill="url(#paint3_linear_71_9192)"/>
<path d="M175.476 415.295C183.237 391.786 202.922 372.664 226.544 365.577C250.278 358.49 277.274 363.665 296.622 379.075C310.907 361.303 331.942 353.766 354.101 359.278C376.261 364.79 394.483 383.912 398.758 406.296C420.242 378.288 457.699 361.078 492.907 363.327C528.115 365.577 561.748 386.274 579.52 416.757C551.961 405.959 519.566 407.309 492.232 418.67C464.898 429.918 442.289 452.078 430.478 479.186C417.318 470.188 402.245 462.989 387.509 456.914C374.236 451.403 360.063 447.128 345.777 448.253C331.492 449.378 316.981 456.689 310.57 469.513C276.712 435.43 223.282 414.508 175.476 415.295Z" fill="url(#paint4_linear_71_9192)"/>
<path d="M398.533 405.285C398.533 405.734 398.533 406.184 398.42 406.747C385.484 392.686 366.812 384.025 347.69 383.125C328.567 382.338 306.858 387.962 292.685 400.898C277.612 381.1 248.703 375.251 224.969 383.013C207.534 388.749 192.798 400.785 181.438 415.408C179.413 415.408 177.388 415.408 175.476 415.408C183.237 391.899 202.922 372.776 226.544 365.69C250.278 358.603 277.274 363.778 296.622 379.188C310.907 361.416 331.942 353.879 354.101 359.391C375.811 364.678 393.808 383.238 398.533 405.285Z" fill="#FFFEFD"/>
<path d="M398.533 405.285C398.533 405.734 398.533 406.184 398.42 406.747C385.484 392.686 366.812 384.025 347.69 383.125C328.567 382.338 306.858 387.962 292.685 400.898C277.612 381.1 248.703 375.251 224.969 383.013C207.534 388.749 192.798 400.785 181.438 415.408C179.413 415.408 177.388 415.408 175.476 415.408C183.237 391.899 202.922 372.776 226.544 365.69C250.278 358.603 277.274 363.778 296.622 379.188C310.907 361.416 331.942 353.879 354.101 359.391C375.811 364.678 393.808 383.238 398.533 405.285Z" stroke="#FFD561" stroke-miterlimit="10" stroke-linecap="round" stroke-linejoin="round"/>
<path d="M579.52 416.758C551.961 405.959 519.566 407.309 492.232 418.67C464.898 429.919 442.289 452.191 430.478 479.187C417.318 470.188 402.245 462.989 387.509 456.915C374.236 451.403 360.063 447.129 345.777 448.254C331.492 449.378 316.981 456.69 310.57 469.513C278.174 437.005 227.781 416.42 181.438 415.408C179.413 415.408 177.388 415.408 175.476 415.408C183.237 391.899 202.922 372.776 226.544 365.69C250.278 358.603 277.274 363.778 296.622 379.188C310.907 361.416 331.942 353.879 354.101 359.391C375.923 364.79 393.921 383.35 398.533 405.397C398.645 405.734 398.645 406.072 398.758 406.409C420.242 378.401 457.699 361.303 492.907 363.44C528.115 365.577 561.748 386.275 579.52 416.758Z" stroke="#FFD561" stroke-miterlimit="10" stroke-linecap="round" stroke-linejoin="round"/>
<path d="M170.752 440.492C173.451 419.12 176.263 397.298 185.262 377.613C194.261 357.928 210.459 340.381 231.381 335.319C248.141 331.269 265.801 335.431 281.549 342.18C282.224 319.121 303.033 294.262 325.305 288.413C347.577 282.564 373.224 292.912 385.147 312.709C396.395 331.382 426.766 333.744 446.451 324.295C457.924 318.784 467.711 308.885 470.748 296.512C473.785 284.138 468.835 269.628 457.587 263.554C467.823 270.303 474.91 274.127 481.884 284.251C488.858 294.374 492.795 306.973 490.77 319.009C488.745 331.157 479.971 342.293 468.048 345.33C487.958 337.906 510.455 343.643 528.002 355.453C545.55 367.264 557.023 387.849 557.586 409.109C532.614 416.195 503.031 429.468 481.209 443.754C466.473 453.427 453.538 466.138 437.34 472.887C413.606 482.898 386.497 478.624 361.075 474.237C296.734 463.214 235.43 451.74 170.752 440.492Z" stroke="#FFD561" stroke-miterlimit="10" stroke-linecap="round" stroke-linejoin="round"/>
<path d="M407.756 453.652C420.467 414.62 459.499 387.399 500.219 382.225C541.051 377.05 582.557 391.336 616.19 414.957C634.975 428.118 651.51 438.579 675.02 436.442C704.828 433.855 730.362 421.257 759.383 416.42C774.906 413.833 790.991 415.407 805.839 420.469C819.9 425.194 831.486 437.117 847.008 435.767C857.357 434.867 867.143 428.793 872.542 419.907C876.817 423.844 883.791 422.719 889.303 420.694C894.702 418.669 898.864 413.495 899.651 407.758C901.001 397.86 892.34 388.749 882.666 386.611C872.992 384.474 862.869 387.736 853.982 392.348C863.656 374.688 887.615 365.577 906.288 373.226C924.96 380.875 935.309 404.946 926.872 423.281C921.586 434.867 910.675 442.741 899.539 448.928C881.429 458.939 860.282 465.8 840.259 460.626C829.011 468.725 811.688 470.862 798.64 466.475C790.879 463.888 784.017 459.276 777.043 455.227C769.957 451.177 762.308 447.578 754.096 447.578C745.997 447.578 737.336 451.965 734.636 459.726C712.702 475.474 686.831 476.824 660.059 473.224C633.4 469.625 607.416 461.189 580.533 458.601C522.716 453.09 461.299 476.599 407.756 453.652Z" fill="url(#paint5_linear_71_9192)"/>
<path d="M407.756 453.652C420.467 414.62 459.499 387.399 500.219 382.225C541.051 377.05 582.557 391.336 616.19 414.957C634.975 428.118 651.51 438.579 675.02 436.442C704.828 433.855 730.362 421.257 759.383 416.42C774.906 413.833 790.991 415.407 805.839 420.469C819.9 425.194 831.486 437.117 847.008 435.767C857.357 434.867 867.143 428.793 872.542 419.907C876.817 423.844 883.791 422.719 889.303 420.694C894.702 418.669 898.864 413.495 899.651 407.758C901.001 397.86 892.34 388.749 882.666 386.611C872.992 384.474 862.869 387.736 853.982 392.348C863.656 374.688 887.615 365.577 906.288 373.226C924.96 380.875 935.309 404.946 926.872 423.281C921.586 434.867 910.675 442.741 899.539 448.928C881.429 458.939 860.282 465.8 840.259 460.626C829.011 468.725 811.688 470.862 798.64 466.475C790.879 463.888 784.017 459.276 777.043 455.227C769.957 451.177 762.308 447.578 754.096 447.578C745.997 447.578 737.336 451.965 734.636 459.726C712.702 475.474 686.831 476.824 660.059 473.224C633.4 469.625 607.416 461.189 580.533 458.601C522.716 453.09 461.299 476.599 407.756 453.652Z" stroke="#FFD561" stroke-miterlimit="10" stroke-linecap="round" stroke-linejoin="round"/>
<path d="M1117.87 483.573H954.319C947.457 474.799 939.583 466.926 930.697 459.839C945.883 440.942 952.632 412.146 941.383 390.661C954.094 388.636 967.705 393.811 975.916 403.709C984.127 413.608 986.602 428.006 982.103 440.154C992.001 434.755 1005.16 435.655 1015.74 439.254C1026.31 442.854 1035.31 451.178 1039.81 461.414C1053.98 447.916 1075.58 447.128 1092.67 456.689C1103.59 462.764 1112.02 472.437 1117.87 483.573Z" fill="#FFFEFD"/>
<path d="M1117.87 483.573H954.319C947.457 474.799 939.583 466.926 930.697 459.839C945.883 440.942 952.632 412.146 941.383 390.661C954.094 388.636 967.705 393.811 975.916 403.709C984.127 413.608 986.602 428.006 982.103 440.154C992.001 434.755 1005.16 435.655 1015.74 439.254C1026.31 442.854 1035.31 451.178 1039.81 461.414C1053.98 447.916 1075.58 447.128 1092.67 456.689C1103.59 462.764 1112.02 472.437 1117.87 483.573Z" stroke="#FFD561" stroke-miterlimit="10" stroke-linecap="round" stroke-linejoin="round"/>
<path d="M1165.79 437.117C1146.67 414.283 1147.45 377.163 1167.59 355.229C1183.79 337.569 1208.98 332.619 1231.59 338.243C1254.65 343.98 1276.92 345.442 1294.81 325.87C1304.71 315.072 1309.66 300.674 1313.93 286.613C1320.23 265.578 1325.18 243.307 1345.65 232.62C1365.56 222.272 1389.41 218.672 1407.97 234.308C1399.98 242.969 1394.13 255.68 1392.22 267.266C1390.42 278.852 1389.86 290.775 1386.37 302.023C1383 313.272 1376.02 324.183 1365.34 329.02C1341.6 339.593 1321.81 356.691 1302.68 374.238C1283.56 391.898 1261.96 409.334 1236.09 412.146C1223.27 413.496 1210.33 411.133 1197.51 412.708C1184.8 414.283 1168.94 424.632 1165.79 437.117Z" fill="url(#paint6_linear_71_9192)"/>
<path d="M1165.79 437.117C1146.67 414.283 1147.45 377.163 1167.59 355.229C1183.79 337.569 1208.98 332.619 1231.59 338.243C1254.65 343.98 1276.92 345.442 1294.81 325.87C1304.71 315.072 1309.66 300.674 1313.93 286.613C1320.23 265.578 1325.18 243.307 1345.65 232.62C1365.56 222.272 1389.41 218.672 1407.97 234.308C1399.98 242.969 1394.13 255.68 1392.22 267.266C1390.42 278.852 1389.86 290.775 1386.37 302.023C1383 313.272 1376.02 324.183 1365.34 329.02C1341.6 339.593 1321.81 356.691 1302.68 374.238C1283.56 391.898 1261.96 409.334 1236.09 412.146C1223.27 413.496 1210.33 411.133 1197.51 412.708C1184.8 414.283 1168.94 424.631 1165.79 437.117Z" stroke="#FFD561" stroke-miterlimit="10" stroke-linecap="round" stroke-linejoin="round"/>
<path d="M171.314 306.747C169.852 308.772 155.116 323.283 154.104 317.546C157.928 340.043 151.292 367.489 134.419 382.899C133.069 384.137 131.719 385.262 130.257 386.274C130.707 385.149 131.157 384.137 131.607 383.012C150.617 335.206 135.769 276.714 98.5364 241.169C71.6526 215.41 36.3325 200.112 0 198.087V150.731C5.17429 147.919 10.5735 145.67 16.1978 144.095C43.3065 136.108 69.6279 144.995 75.0272 175.141C74.8022 173.566 96.8492 175.028 98.7614 175.253C122.946 177.953 156.691 201.574 142.405 230.146C144.543 225.984 165.915 251.518 167.827 253.992C178.738 269.065 182.9 290.662 171.314 306.747Z" fill="url(#paint7_linear_71_9192)"/>
<path d="M171.314 306.747C169.852 308.772 155.116 323.283 154.104 317.546C157.928 340.043 151.292 367.489 134.419 382.899C133.069 384.137 131.719 385.262 130.257 386.274C130.707 385.149 131.157 384.137 131.607 383.012C150.617 335.206 135.769 276.714 98.5364 241.169C71.6526 215.41 36.3325 200.112 0 198.087V150.731C5.17429 147.919 10.5735 145.67 16.1978 144.095C43.3065 136.108 69.6279 144.995 75.0272 175.141C74.8022 173.566 96.8492 175.028 98.7614 175.253C122.946 177.953 156.691 201.574 142.405 230.146C144.543 225.984 165.915 251.518 167.827 253.992C178.738 269.065 182.9 290.662 171.314 306.747Z" stroke="#FFD561" stroke-miterlimit="10" stroke-linecap="round" stroke-linejoin="round"/>
<path d="M1077.94 483.573H0V241.169C12.4858 237.57 25.759 236.67 38.5822 238.807C65.6909 243.419 89.7626 260.517 105.285 283.238C107.535 286.5 109.56 289.875 111.36 293.25C126.208 320.921 129.357 353.991 123.395 384.812C126.095 383.912 128.795 383.35 131.607 383.125C132.507 383.012 133.519 383.012 134.419 383.012C141.505 383.012 148.592 384.924 154.891 388.524C164.34 394.036 171.314 403.709 173.226 414.508C193.248 398.423 222.157 389.986 247.016 396.398C271.875 402.809 293.247 421.482 302.921 445.329C319.118 433.743 337.903 428.006 357.813 429.468C377.723 430.931 396.958 439.479 411.356 453.315C424.741 424.856 463.886 405.397 495.382 405.397C526.877 405.397 557.023 417.207 586.044 429.581C615.065 441.954 644.424 455.115 675.807 457.702C701.453 459.839 717.539 438.355 740.935 431.156C757.583 425.981 776.818 426.544 791.216 436.442C804.939 445.891 811.463 453.203 829.236 453.765C844.196 454.102 859.382 448.028 869.168 436.555C880.079 438.692 889.077 437.117 897.739 430.143C906.4 423.169 911.349 411.471 909.325 400.447C907.3 389.424 897.851 380.088 886.715 378.963C873.555 377.725 862.081 387.062 852.295 395.835C851.845 387.287 854.32 378.625 859.944 372.214C868.718 362.203 882.328 358.491 895.377 355.678C906.513 353.316 918.098 351.404 929.009 354.329C945.32 358.715 957.581 374.801 957.693 391.561C968.941 398.76 973.216 409.446 971.979 422.607C970.966 434.418 963.655 445.329 953.531 451.178C958.93 449.491 965.679 450.615 970.516 452.865C976.703 455.902 981.09 462.426 981.427 469.4C997.625 456.24 1027.43 457.139 1040.14 473.675C1049.59 467.263 1059.6 469.625 1068.83 476.374C1071.98 478.624 1075.01 481.099 1077.94 483.573Z" fill="url(#paint8_linear_71_9192)"/>
<path d="M123.395 384.812C122.046 386.837 120.583 388.636 119.009 390.436C105.51 405.172 84.9257 415.745 64.6785 414.845C30.7082 413.383 7.53638 366.702 31.6081 340.381C41.5067 329.582 58.4919 325.308 71.8775 331.494C85.1507 337.681 93.0246 354.441 88.0753 368.277C82.3386 357.366 71.6526 344.093 59.3917 343.305C47.1309 342.518 37.1198 355.341 37.2323 367.602C37.4573 385.374 55.0048 399.997 72.7774 399.885C90.5499 399.772 106.748 387.287 114.397 371.314C122.046 355.341 122.271 336.556 118.334 319.234C115.522 306.748 110.685 294.824 105.285 283.239C107.535 286.501 109.56 289.875 111.36 293.25C126.095 320.921 129.357 353.991 123.395 384.812Z" fill="#FFFCFA"/>
<path d="M123.395 384.812C122.046 386.837 120.583 388.636 119.009 390.436C105.51 405.172 84.9257 415.745 64.6785 414.845C30.7082 413.383 7.53638 366.702 31.6081 340.381C41.5067 329.582 58.4919 325.308 71.8775 331.494C85.1507 337.681 93.0246 354.441 88.0753 368.277C82.3386 357.366 71.6526 344.093 59.3917 343.305C47.1309 342.518 37.1198 355.341 37.2323 367.602C37.4573 385.374 55.0048 399.997 72.7774 399.885C90.55 399.772 106.748 387.287 114.397 371.314C122.046 355.341 122.271 336.556 118.334 319.234C115.522 306.748 110.685 294.824 105.285 283.239C107.535 286.501 109.56 289.875 111.36 293.25C126.095 320.921 129.357 353.991 123.395 384.812Z" stroke="#FFD561" stroke-miterlimit="10" stroke-linecap="round" stroke-linejoin="round"/>
<path d="M1077.94 483.573H0V241.169C12.4858 237.57 25.759 236.67 38.5822 238.807C69.5154 244.094 96.5117 265.691 111.36 293.362C126.208 321.033 129.357 354.104 123.395 384.924C126.095 384.025 128.795 383.462 131.607 383.237C132.507 383.125 133.519 383.125 134.419 383.125C141.505 383.125 148.592 385.037 154.891 388.636C164.34 394.148 171.314 403.822 173.226 414.62C193.248 398.535 222.157 390.099 247.016 396.51C271.875 402.922 293.247 421.594 302.921 445.441C319.118 433.855 337.903 428.118 357.813 429.581C377.723 431.043 396.958 439.592 411.356 453.428C424.741 424.969 463.886 405.509 495.382 405.509C526.877 405.509 557.023 417.32 586.044 429.693C615.065 442.067 644.424 455.227 675.807 457.814C701.453 459.952 717.539 438.467 740.935 431.268C757.583 426.094 776.818 426.656 791.216 436.555C804.939 446.004 811.463 453.315 829.236 453.877C844.196 454.215 859.382 448.141 869.168 436.667C880.079 438.804 889.077 437.23 897.739 430.256C906.4 423.282 911.349 411.583 909.325 400.56C907.3 389.536 897.851 380.2 886.715 379.075C873.555 377.838 862.081 387.174 852.295 395.948C851.845 387.399 854.32 378.738 859.944 372.326C868.718 362.315 882.328 358.603 895.377 355.791C906.513 353.429 918.098 351.517 929.009 354.441C945.32 358.828 957.58 374.913 957.693 391.673C968.941 398.872 973.216 409.559 971.979 422.719C970.966 434.53 963.655 445.441 953.531 451.29C958.93 449.603 965.679 450.728 970.516 452.978C976.703 456.015 981.09 462.539 981.427 469.513C997.625 456.352 1027.43 457.252 1040.14 473.787C1049.59 467.376 1059.6 469.738 1068.83 476.487C1071.98 478.624 1075.01 481.099 1077.94 483.573Z" stroke="#FFD561" stroke-miterlimit="10" stroke-linecap="round" stroke-linejoin="round"/>
<path d="M1439.8 166.029V483.573H1119.11C1119.45 473.899 1122.15 464.226 1127.09 455.902C1134.74 443.191 1147.45 433.63 1161.85 429.918C1157.69 405.846 1170.29 382.787 1192 371.651C1213.71 360.515 1239.92 361.19 1263.31 368.164C1282.21 373.788 1298.3 359.39 1313.93 347.354C1336.32 330.144 1332.38 309.897 1336.54 285.263C1340.93 259.391 1351.61 234.532 1367.59 213.61C1385.25 190.326 1411.68 171.766 1439.8 166.029Z" fill="url(#paint9_linear_71_9192)"/>
<path d="M1439.8 346.679V483.573H1241.49C1240.59 479.074 1240.82 474.462 1242.5 470.075C1246.1 460.514 1261.18 445.553 1270.4 449.828C1262.75 436.442 1267.81 417.432 1281.09 409.558C1294.36 401.797 1315.17 404.834 1323.15 417.995C1336.88 424.856 1355.1 421.032 1365 409.221C1373.55 398.985 1375.57 384.699 1382.55 373.338C1391.43 358.715 1408.08 349.829 1425.07 347.354C1429.9 346.792 1434.85 346.567 1439.8 346.679Z" fill="#FFFCFA"/>
<path d="M1439.8 346.679V483.573H1241.49C1240.59 479.074 1240.82 474.462 1242.5 470.075C1246.1 460.514 1261.18 445.553 1270.4 449.828C1262.75 436.442 1267.81 417.432 1281.09 409.558C1294.36 401.797 1315.17 404.834 1323.15 417.995C1336.88 424.856 1355.1 421.032 1365 409.221C1373.55 398.985 1375.57 384.699 1382.55 373.338C1391.43 358.715 1408.08 349.829 1425.07 347.354C1429.9 346.792 1434.85 346.567 1439.8 346.679Z" stroke="#FFD561" stroke-width="0.75" stroke-miterlimit="10" stroke-linecap="round" stroke-linejoin="round"/>
<path d="M1439.8 166.029V483.573H1119.11C1119.45 473.899 1122.15 464.226 1127.09 455.902C1134.74 443.191 1147.45 433.63 1161.85 429.918C1157.69 405.846 1170.29 382.787 1192 371.651C1213.71 360.515 1239.92 361.19 1263.31 368.164C1282.21 373.788 1298.3 359.39 1313.93 347.354C1336.32 330.144 1332.38 309.897 1336.54 285.263C1340.93 259.391 1351.61 234.532 1367.59 213.61C1385.25 190.326 1411.68 171.766 1439.8 166.029Z" stroke="#FFD561" stroke-miterlimit="10" stroke-linecap="round" stroke-linejoin="round"/>
<path d="M1286.04 225.534C1279.74 236.895 1279.06 248.705 1283 260.966C1286.82 273.227 1295.93 284.026 1307.86 290.662C1300.77 298.199 1300.66 309.335 1306.73 317.546C1312.92 325.645 1325.4 329.357 1335.64 326.095C1341.83 338.468 1352.85 349.717 1366.8 354.778C1380.75 359.84 1396.83 359.84 1410.89 354.891C1411.01 355.003 1411.12 355.116 1411.23 355.341C1411.34 355.453 1411.46 355.566 1411.57 355.791C1424.39 371.201 1434.51 389.874 1439.8 408.883V333.744C1430.13 315.746 1416.85 298.761 1403.47 282.676C1403.24 282.451 1403.02 282.113 1402.79 281.888C1402.79 281.888 1402.79 281.888 1402.68 281.776C1401.78 280.764 1400.99 279.751 1400.09 278.739C1406.39 285.938 1418.88 290.662 1428.89 290.212C1432.6 290.1 1436.31 289.312 1439.69 287.963V129.922C1437.78 127.447 1435.3 125.31 1432.38 123.848C1431.14 123.173 1429.9 122.723 1428.55 122.385C1421.92 109.112 1408.42 100.113 1392.33 98.3137C1376.36 96.514 1359.94 101.013 1346.21 108.662C1332.38 116.311 1320.91 126.885 1310.44 137.908C1310.11 138.246 1309.77 138.583 1309.54 138.921C1297.51 151.294 1283.45 160.518 1278.39 176.378C1277.71 178.515 1277.15 180.765 1276.81 182.902C1274 197.638 1277.26 213.048 1286.04 225.534Z" fill="url(#paint10_linear_71_9192)"/>
<path d="M1286.04 225.534C1279.74 236.895 1279.06 248.705 1283 260.966C1286.82 273.227 1295.93 284.026 1307.86 290.662C1300.77 298.199 1300.66 309.335 1306.73 317.546C1312.92 325.645 1325.4 329.357 1335.64 326.095C1341.83 338.468 1352.85 349.717 1366.8 354.778C1380.75 359.84 1396.83 359.84 1410.89 354.891C1411.01 355.003 1411.12 355.116 1411.23 355.341C1411.34 355.453 1411.46 355.566 1411.57 355.791C1424.39 371.201 1434.51 389.874 1439.8 408.883V333.744C1430.13 315.746 1416.85 298.761 1403.47 282.676C1403.24 282.451 1403.02 282.113 1402.79 281.888C1402.79 281.888 1402.79 281.888 1402.68 281.776C1401.78 280.764 1400.99 279.751 1400.09 278.739C1406.39 285.938 1418.88 290.662 1428.89 290.212C1432.6 290.1 1436.31 289.312 1439.69 287.963V129.922C1437.78 127.447 1435.3 125.31 1432.38 123.848C1431.14 123.173 1429.9 122.723 1428.55 122.385C1421.92 109.112 1408.42 100.113 1392.33 98.3137C1376.36 96.514 1359.94 101.013 1346.21 108.662C1332.38 116.311 1320.91 126.885 1310.44 137.908C1310.11 138.246 1309.77 138.583 1309.54 138.921C1297.51 151.294 1283.45 160.518 1278.39 176.378C1277.71 178.515 1277.15 180.765 1276.81 182.902C1274 197.638 1277.26 213.048 1286.04 225.534Z" stroke="#FFD561" stroke-width="0.75" stroke-miterlimit="10" stroke-linecap="round" stroke-linejoin="round"/>
<path d="M1350.15 234.532C1349.93 241.731 1354.88 248.93 1362.08 251.855C1358.59 256.804 1359.94 263.553 1362.3 269.065C1364.66 274.577 1368.82 279.189 1372.87 283.688C1391.32 304.048 1410.11 324.407 1423.94 347.579C1430.8 358.94 1436.31 371.201 1439.8 383.799V333.519C1430.13 315.521 1416.86 298.536 1403.47 282.451C1403.24 282.226 1403.02 281.888 1402.79 281.663C1402.79 281.663 1402.79 281.663 1402.68 281.551C1401.78 280.539 1400.99 279.526 1400.09 278.514C1406.39 285.713 1418.88 290.437 1428.89 289.987C1432.6 289.875 1436.31 289.087 1439.69 287.738V129.922C1437.78 127.447 1435.3 125.31 1432.38 123.848C1431.93 123.848 1431.37 123.96 1430.92 123.96C1415.62 119.011 1398.75 117.436 1383.22 121.71C1367.7 125.985 1353.98 136.671 1349.25 150.731C1347.9 154.668 1347.34 158.83 1347.56 162.992C1348.13 173.566 1353.86 183.914 1363.65 189.539C1355.33 188.639 1348.24 194.263 1347.45 201.799C1346.66 209.336 1353.64 216.872 1361.96 217.435C1354.54 220.022 1350.38 227.333 1350.15 234.532Z" stroke="#FFD561" stroke-width="0.75" stroke-miterlimit="10" stroke-linecap="round" stroke-linejoin="round"/>
<path d="M1361.85 250.731C1365.79 256.805 1373.21 260.742 1380.97 261.529C1388.73 262.317 1396.61 260.292 1403.13 256.355C1408.87 252.868 1413.82 247.581 1414.27 241.282C1414.72 235.095 1410.33 228.796 1403.92 226.659C1400.21 225.422 1395.82 225.534 1392.45 227.446C1389.07 229.359 1387.16 233.295 1388.28 236.783C1389.52 240.157 1394.13 242.407 1397.73 241.057C1393.35 245.669 1385.02 243.644 1380.97 238.807C1376.92 233.97 1377.71 226.659 1381.53 221.71C1385.47 216.76 1391.88 213.836 1398.41 212.486C1404.59 211.249 1411.68 211.474 1416.41 215.298C1421.69 219.797 1421.8 227.221 1421.58 233.745C1421.47 238.02 1422.37 233.858 1424.84 237.345C1427.32 240.944 1430.35 244.319 1431.7 248.368C1434.63 257.255 1427.99 267.153 1418.54 270.753C1409.09 274.352 1398.07 272.553 1389.07 268.166C1393.68 272.553 1398.63 277.952 1403.24 282.339C1403.69 282.451 1371.86 274.577 1361.85 250.731Z" fill="url(#paint11_linear_71_9192)"/>
<path d="M1361.85 250.731C1365.79 256.805 1373.21 260.742 1380.97 261.529C1388.73 262.317 1396.61 260.292 1403.13 256.355C1408.87 252.868 1413.82 247.581 1414.27 241.282C1414.72 235.095 1410.33 228.796 1403.92 226.659C1400.21 225.422 1395.82 225.534 1392.45 227.446C1389.07 229.359 1387.16 233.296 1388.28 236.783C1389.52 240.157 1394.13 242.407 1397.73 241.057C1393.35 245.669 1385.02 243.644 1380.97 238.807C1376.92 233.97 1377.71 226.659 1381.53 221.71C1385.47 216.76 1391.88 213.836 1398.41 212.486C1404.59 211.249 1411.68 211.474 1416.41 215.298C1420.12 218.448 1421.47 223.509 1421.8 228.234C1421.92 230.033 1421.02 232.846 1421.69 234.533C1422.48 236.558 1424.95 237.12 1426.3 238.695C1435.98 249.606 1432.04 265.579 1418.54 270.753C1409.09 274.352 1398.07 272.553 1389.07 268.166C1393.68 272.553 1398.63 277.952 1403.24 282.339" stroke="#FFD561" stroke-width="0.75" stroke-miterlimit="10" stroke-linecap="round" stroke-linejoin="round"/>
<path d="M1354.65 179.528C1355.44 166.48 1367.25 156.581 1380.97 152.644C1394.81 148.707 1410.44 151.969 1421.92 160.068C1430.13 165.805 1436.09 173.904 1439.69 182.678V153.207C1434.06 146.683 1426.64 141.396 1418.09 138.246C1403.47 132.96 1386.03 134.422 1373.1 142.521C1371.52 143.533 1370.06 144.545 1368.71 145.67C1358.59 154.219 1352.85 167.155 1354.65 179.528Z" fill="url(#paint12_linear_71_9192)"/>
<path d="M1354.65 179.528C1355.44 166.48 1367.25 156.581 1380.97 152.644C1394.81 148.707 1410.44 151.969 1421.92 160.068C1430.13 165.805 1436.09 173.904 1439.69 182.678V153.207C1434.06 146.683 1426.64 141.396 1418.09 138.246C1403.47 132.96 1386.03 134.422 1373.1 142.521C1371.52 143.533 1370.06 144.545 1368.71 145.67C1358.59 154.219 1352.85 167.155 1354.65 179.528Z" stroke="#FFD561" stroke-width="0.75" stroke-miterlimit="10" stroke-linecap="round" stroke-linejoin="round"/>
<path d="M1411.57 355.904C1410.33 352.866 1408.19 349.717 1406.96 346.68C1388.4 352.754 1366.01 347.917 1352.63 334.756C1349.48 331.607 1346.66 328.007 1345.76 323.733C1344.86 319.459 1345.65 313.497 1349.59 311.135C1342.62 310.347 1335.64 316.759 1336.77 323.058C1330.58 323.508 1324.17 322.496 1319.11 319.458C1314.04 316.421 1310.33 311.022 1310.44 305.398C1310.56 299.774 1312.69 295.049 1318.77 293.812C1313.03 290.55 1306.96 287.175 1303.47 282.001C1299.98 276.714 1299.76 269.065 1304.93 265.128C1308.31 262.541 1313.14 262.091 1317.64 262.204C1324.84 262.316 1332.04 263.554 1338.79 265.691C1343.07 267.041 1347.45 268.953 1350.38 272.103C1353.3 275.252 1354.65 279.976 1352.63 283.688C1350.6 287.288 1345.54 289.2 1341.15 288.075C1336.88 286.951 1333.5 282.676 1333.39 278.627C1333.28 280.651 1337.1 281.214 1338.34 279.526C1339.58 277.839 1338.68 275.365 1336.99 273.902C1333.17 270.64 1326.3 271.54 1323.04 275.252C1319.78 278.964 1320.01 284.588 1322.93 288.525C1325.85 292.462 1331.03 294.712 1336.2 295.162C1336.99 301.349 1345.76 305.285 1352.63 305.06C1359.49 304.948 1365.79 301.686 1371.75 298.649C1370.96 299.099 1370.29 299.436 1369.5 299.886C1378.95 307.873 1390.76 315.072 1398.18 324.52C1405.61 333.969 1411.23 344.318 1411.57 355.904Z" fill="url(#paint13_linear_71_9192)"/>
<path d="M1411.57 355.904C1410.33 352.866 1408.19 349.717 1406.96 346.68C1388.4 352.754 1366.01 347.917 1352.63 334.756C1349.48 331.607 1346.66 328.007 1345.76 323.733C1344.86 319.459 1345.65 313.497 1349.59 311.135C1342.62 310.347 1335.64 316.759 1336.77 323.058C1330.58 323.508 1324.17 322.496 1319.11 319.458C1314.04 316.421 1310.33 311.022 1310.44 305.398C1310.56 299.774 1312.69 295.049 1318.77 293.812C1313.03 290.55 1306.96 287.175 1303.47 282.001C1299.98 276.714 1299.76 269.065 1304.93 265.128C1308.31 262.541 1313.14 262.091 1317.64 262.204C1324.84 262.316 1332.04 263.554 1338.79 265.691C1343.07 267.041 1347.45 268.953 1350.38 272.103C1353.3 275.252 1354.65 279.976 1352.63 283.688C1350.6 287.288 1345.54 289.2 1341.15 288.075C1336.88 286.951 1333.5 282.676 1333.39 278.627C1333.28 280.651 1337.1 281.214 1338.34 279.526C1339.58 277.839 1338.68 275.365 1336.99 273.902C1333.17 270.64 1326.3 271.54 1323.04 275.252C1319.78 278.964 1320.01 284.588 1322.93 288.525C1325.85 292.462 1331.03 294.712 1336.2 295.162C1336.99 301.349 1345.76 305.285 1352.63 305.06C1359.49 304.948 1365.79 301.686 1371.75 298.649C1370.96 299.099 1370.29 299.436 1369.5 299.886C1378.95 307.873 1390.76 315.072 1398.18 324.52C1405.61 333.969 1411.23 344.318 1411.57 355.904Z" stroke="#FFD561" stroke-width="0.75" stroke-miterlimit="10" stroke-linecap="round" stroke-linejoin="round"/>
<path d="M1312.69 135.322C1296.83 151.519 1289.07 175.254 1292.22 197.638" stroke="#FFD561" stroke-width="0.75" stroke-miterlimit="10" stroke-linecap="round" stroke-linejoin="round"/>
<path d="M1292.9 203.824C1293.01 204.837 1293.35 205.849 1294.02 206.636" stroke="#FFD561" stroke-width="0.75" stroke-miterlimit="10" stroke-linecap="round" stroke-linejoin="round"/>
<path d="M1294.13 211.136C1294.25 211.923 1294.7 212.711 1295.37 213.273" stroke="#FFD561" stroke-width="0.75" stroke-miterlimit="10" stroke-linecap="round" stroke-linejoin="round"/>
<path d="M1295.71 216.76C1296.16 217.435 1296.72 217.997 1297.17 218.672" stroke="#FFD561" stroke-width="0.75" stroke-miterlimit="10" stroke-linecap="round" stroke-linejoin="round"/>
<path d="M1296.83 222.159C1297.28 222.947 1297.96 223.734 1298.75 224.184" stroke="#FFD561" stroke-width="0.75" stroke-miterlimit="10" stroke-linecap="round" stroke-linejoin="round"/>
<path d="M1269.5 447.241C1272.65 456.465 1284.35 464.451 1293.68 465.688C1303.02 466.926 1312.13 463.889 1316.63 455.565C1318.88 451.515 1320.23 444.766 1319.11 439.929C1317.87 434.643 1314.38 429.806 1309.21 427.669C1304.37 425.644 1298.18 426.206 1294.13 429.693C1290.08 433.18 1288.51 439.592 1290.98 444.429C1293.46 449.266 1299.76 451.74 1304.71 449.603" stroke="#FFD561" stroke-width="0.75" stroke-miterlimit="10" stroke-linecap="round" stroke-linejoin="round"/>
<path d="M296.397 483.573H19.9099C23.5094 476.937 27.5589 470.637 31.9458 464.563C46.5687 444.766 67.2659 428.343 91.5625 424.181C115.859 420.019 143.305 430.593 154.329 452.528C171.202 433.405 197.073 425.756 222.495 427.893C247.916 430.031 271.988 444.879 285.373 466.588C290.098 473.9 293.585 478.849 296.397 483.573Z" fill="url(#paint14_linear_71_9192)"/>
<path d="M296.397 483.573H19.9099C23.5094 476.937 27.5589 470.637 31.9458 464.563C46.5687 444.766 67.2659 428.343 91.5625 424.181C115.859 420.019 143.305 430.593 154.329 452.528C171.202 433.405 197.073 425.756 222.495 427.893C247.916 430.031 271.988 444.879 285.373 466.588C290.098 473.9 293.585 478.849 296.397 483.573Z" stroke="#FFD561" stroke-miterlimit="10" stroke-linecap="round" stroke-linejoin="round"/>
<path d="M486.833 476.487C484.021 478.962 481.096 481.324 478.172 483.573H395.271C407.644 464.676 428.004 451.065 450.163 447.016C461.412 444.879 473.11 445.104 484.134 441.729C495.045 438.355 505.731 430.256 507.193 418.895C513.942 438.917 502.806 462.539 486.833 476.487Z" fill="url(#paint15_linear_71_9192)"/>
<path d="M486.833 476.487C484.021 478.962 481.096 481.324 478.172 483.573H395.271C407.644 464.676 428.004 451.065 450.163 447.016C461.412 444.879 473.11 445.104 484.134 441.729C495.045 438.355 505.731 430.256 507.193 418.895C513.942 438.917 502.806 462.539 486.833 476.487Z" stroke="#FFD561" stroke-miterlimit="10" stroke-linecap="round" stroke-linejoin="round"/>
</g>
<defs>
<linearGradient id="paint0_linear_71_9192" x1="720.6" y1="1.0033" x2="720.6" y2="483.597" gradientUnits="userSpaceOnUse">
<stop stop-color="#FFEDDB"/>
<stop offset="1" stop-color="#FEF4EA" stop-opacity="0.87"/>
</linearGradient>
<linearGradient id="paint1_linear_71_9192" x1="718.362" y1="102.393" x2="720.606" y2="472.709" gradientUnits="userSpaceOnUse">
<stop offset="0.00022906" stop-color="#FFD3A0"/>
<stop offset="0.4752" stop-color="#FFE3B9"/>
<stop offset="1" stop-color="#FEF7DA"/>
</linearGradient>
<linearGradient id="paint2_linear_71_9192" x1="577.792" y1="306.966" x2="842.625" y2="447.612" gradientUnits="userSpaceOnUse">
<stop stop-color="#F95500"/>
<stop offset="0.4002" stop-color="#FB9A35"/>
<stop offset="0.8075" stop-color="#FDDB67"/>
<stop offset="1" stop-color="#FEF47B"/>
</linearGradient>
<linearGradient id="paint3_linear_71_9192" x1="460.971" y1="216.926" x2="294.89" y2="544.599" gradientUnits="userSpaceOnUse">
<stop stop-color="#F95500"/>
<stop offset="0.4002" stop-color="#FB9A35"/>
<stop offset="0.8075" stop-color="#FDDB67"/>
<stop offset="1" stop-color="#FEF47B"/>
</linearGradient>
<linearGradient id="paint4_linear_71_9192" x1="377.47" y1="481.925" x2="377.47" y2="367.464" gradientUnits="userSpaceOnUse">
<stop offset="0.00022906" stop-color="#FAD46B"/>
<stop offset="0.5224" stop-color="#FADB84"/>
<stop offset="1" stop-color="#FBE29F"/>
</linearGradient>
<linearGradient id="paint5_linear_71_9192" x1="800.981" y1="405.89" x2="523.805" y2="444.043" gradientUnits="userSpaceOnUse">
<stop offset="0.00117815" stop-color="#98CDB5"/>
<stop offset="0.8083" stop-color="#B1D6AC"/>
<stop offset="1" stop-color="#B8D9AA"/>
</linearGradient>
<linearGradient id="paint6_linear_71_9192" x1="1289.98" y1="309.224" x2="1200.2" y2="451.74" gradientUnits="userSpaceOnUse">
<stop stop-color="#F95500"/>
<stop offset="0.4002" stop-color="#FB9A35"/>
<stop offset="0.8075" stop-color="#FDDB67"/>
<stop offset="1" stop-color="#FEF47B"/>
</linearGradient>
<linearGradient id="paint7_linear_71_9192" x1="65.6174" y1="147.917" x2="97.0384" y2="269.111" gradientUnits="userSpaceOnUse">
<stop offset="0.00117815" stop-color="#98CDB5"/>
<stop offset="0.8083" stop-color="#B1D6AC"/>
<stop offset="1" stop-color="#B8D9AA"/>
</linearGradient>
<linearGradient id="paint8_linear_71_9192" x1="526.666" y1="138.821" x2="538.636" y2="473.975" gradientUnits="userSpaceOnUse">
<stop offset="0.00022906" stop-color="#FFD3A0"/>
<stop offset="0.4752" stop-color="#FFE3B9"/>
<stop offset="1" stop-color="#FEF7DA"/>
</linearGradient>
<linearGradient id="paint9_linear_71_9192" x1="1420.92" y1="79.6079" x2="1283.27" y2="468.627" gradientUnits="userSpaceOnUse">
<stop offset="0.00022906" stop-color="#FFD3A0"/>
<stop offset="0.4752" stop-color="#FFE3B9"/>
<stop offset="1" stop-color="#FEF7DA"/>
</linearGradient>
<linearGradient id="paint10_linear_71_9192" x1="1313.83" y1="-42.2147" x2="1376.67" y2="273.117" gradientUnits="userSpaceOnUse">
<stop offset="0.00022906" stop-color="#FFD3A0"/>
<stop offset="0.4752" stop-color="#FFE3B9"/>
<stop offset="1" stop-color="#FEF7DA"/>
</linearGradient>
<linearGradient id="paint11_linear_71_9192" x1="1416.88" y1="202.007" x2="1393.31" y2="263.726" gradientUnits="userSpaceOnUse">
<stop stop-color="#65D1C4"/>
<stop offset="1" stop-color="#65D1C4"/>
</linearGradient>
<linearGradient id="paint12_linear_71_9192" x1="1435.6" y1="140.699" x2="1390.71" y2="174.365" gradientUnits="userSpaceOnUse">
<stop offset="0.00117815" stop-color="#98CDB5"/>
<stop offset="0.8083" stop-color="#B1D6AC"/>
<stop offset="1" stop-color="#B8D9AA"/>
</linearGradient>
<linearGradient id="paint13_linear_71_9192" x1="1300.58" y1="309.039" x2="1386.99" y2="309.039" gradientUnits="userSpaceOnUse">
<stop stop-color="#65D1C4"/>
<stop offset="1" stop-color="#65D1C4"/>
</linearGradient>
<linearGradient id="paint14_linear_71_9192" x1="303.991" y1="349.93" x2="36.9144" y2="583.341" gradientUnits="userSpaceOnUse">
<stop stop-color="#F95500"/>
<stop offset="0.4002" stop-color="#FB9A35"/>
<stop offset="0.8075" stop-color="#FDDB67"/>
<stop offset="1" stop-color="#FEF47B"/>
</linearGradient>
<linearGradient id="paint15_linear_71_9192" x1="474.235" y1="402.509" x2="441.692" y2="490.038" gradientUnits="userSpaceOnUse">
<stop stop-color="#65D1C4"/>
<stop offset="1" stop-color="#65D1C4"/>
</linearGradient>
</defs>
</svg>
