<?xml version="1.0" encoding="utf-8"?>
<!-- Generator: Adobe Illustrator 27.7.0, SVG Export Plug-In . SVG Version: 6.00 Build 0)  -->
<svg version="1.1" id="Layer_1" xmlns="http://www.w3.org/2000/svg" xmlns:xlink="http://www.w3.org/1999/xlink" x="0px" y="0px"
	 viewBox="0 0 125 100" style="enable-background:new 0 0 125 100;" xml:space="preserve">
<style type="text/css">
	.st0{clip-path:url(#SVGID_00000167397755384096705970000002730480093311611041_);fill:#DDDDDD;fill-opacity:0.3;}
	.st1{clip-path:url(#SVGID_00000167397755384096705970000002730480093311611041_);fill:#CACACA;fill-opacity:0.3;}
	.st2{clip-path:url(#SVGID_00000167397755384096705970000002730480093311611041_);fill-rule:evenodd;clip-rule:evenodd;}
	.st3{clip-path:url(#SVGID_00000167397755384096705970000002730480093311611041_);}
	.st4{fill:#0AA44A;}
	.st5{fill:#0F8342;}
	.st6{fill:#FBE795;}
	.st7{fill:#DEBA6C;}
	.st8{fill:#FFFFFF;}
	.st9{opacity:8.000000e-02;enable-background:new    ;}
	.st10{clip-path:url(#SVGID_00000073717161884998816080000003013938868264110748_);}
	.st11{clip-path:url(#SVGID_00000057826767613506860470000008270986384795722146_);}
	.st12{clip-path:url(#SVGID_00000027578359679163511230000011448482241689230746_);fill:#FFFFFF;}
	.st13{clip-path:url(#SVGID_00000009554557373235655390000018101674684776473473_);}
	.st14{clip-path:url(#SVGID_00000017508942881187824660000013030431090827854235_);}
	.st15{clip-path:url(#SVGID_00000091723717381089750870000015690303039481711541_);}
	.st16{clip-path:url(#SVGID_00000029013179129433029120000007177770235698049206_);}
	.st17{clip-path:url(#SVGID_00000021094548128745690380000017244125266583554232_);}
	.st18{clip-path:url(#SVGID_00000124131044373571236930000007948827998112027786_);}
	.st19{clip-path:url(#SVGID_00000147205110179436793780000016638354176776851629_);}
	.st20{clip-path:url(#SVGID_00000147194417527253190440000016496803626021356458_);}
	.st21{clip-path:url(#SVGID_00000093887570612400111830000012404658125440559516_);}
	.st22{clip-path:url(#SVGID_00000076579575014481520480000002387683521052759226_);}
	.st23{clip-path:url(#SVGID_00000065046772028166628900000002015966607160359837_);}
	.st24{clip-path:url(#SVGID_00000109743328519879901410000017644975408710658209_);}
	.st25{clip-path:url(#SVGID_00000038407101245123258360000013394768244763584668_);}
	.st26{clip-path:url(#SVGID_00000009560181702071759420000012175561835871557261_);}
	.st27{clip-path:url(#SVGID_00000168087012291085933720000002367461022000624278_);}
	.st28{clip-path:url(#SVGID_00000176739670288601694170000001741233630707008696_);}
</style>
<g>
	<defs>
		<rect id="SVGID_1_" width="124.6" height="99.9"/>
	</defs>
	<clipPath id="SVGID_00000121251146323345619280000008994975899075954603_">
		<use xlink:href="#SVGID_1_"  style="overflow:visible;"/>
	</clipPath>
	<path style="clip-path:url(#SVGID_00000121251146323345619280000008994975899075954603_);fill:#DDDDDD;fill-opacity:0.3;" d="
		M113.4,99.9c7.1-10.3,11.2-22.8,11.2-36.3C124.6,28.4,96.7,0,62.3,0C27.9,0,0,28.4,0,63.5c0,13.5,4.1,26,11.2,36.3H113.4z"/>
	<path style="clip-path:url(#SVGID_00000121251146323345619280000008994975899075954603_);fill:#CACACA;fill-opacity:0.3;" d="
		M106,57.5C106,81,87,100,63.6,100S21.1,81,21.1,57.5s19-42.5,42.5-42.5S106,34.1,106,57.5z"/>
	
		<path style="clip-path:url(#SVGID_00000121251146323345619280000008994975899075954603_);fill-rule:evenodd;clip-rule:evenodd;" d="
		M26.8,22c0.5,0,1,0.4,1,1v14.4c0,0.5-0.4,1-1,1c-0.5,0-1-0.4-1-1V23C25.9,22.5,26.3,22,26.8,22z"/>
	
		<path style="clip-path:url(#SVGID_00000121251146323345619280000008994975899075954603_);fill-rule:evenodd;clip-rule:evenodd;" d="
		M25.9,23c0-0.5,0.4-1,1-1h14.4c0.5,0,1,0.4,1,1c0,0.5-0.4,1-1,1H26.8C26.3,24,25.9,23.5,25.9,23z"/>
	<g style="clip-path:url(#SVGID_00000121251146323345619280000008994975899075954603_);">
		<path class="st4" d="M46.4,26c0,0,5.9-2.6,16-2.9c0,0,11.3-0.1,16.5,3.8c0,0,6.1,2.6,7.8,8.8c0,0,3.2,7.5,3.9,13.5
			c0,0,4.6,17.4-0.8,24.6c0,0-1.6,2.9-6.3,4.3c0,0-9.4,4.2-21.5,4.4c0,0-9.8,0.8-21.9-4.2c0,0-6.7-2.8-7.8-9.1
			c0,0-0.1-14.4,2.4-25.1C34.6,43.9,35.8,28.6,46.4,26"/>
		<path class="st5" d="M37.1,58.4c0,0-1.4-20.3,4.6-27c0,0,6.1-9.4,30.2-5.7c0,0,8,1.7,10.5,6.5c0,0,6.6,12.6,5.5,25L37.1,58.4z"/>
		<path class="st6" d="M42.1,48.4c0,0-3.7-4.8,1-7c0,0,3.8-2.6,7.7,1.9c0,0,10.4-3.4,24-0.4c0,0,2.7-3.9,7.5-1.6c0,0,4,2.2,1.4,6.7
			c0,0,4.7,2.6,4.8,13.1c0,0,1.5,12.7-6,15.3c0,0-9.5,3.6-18.6,3.1c0,0-14.6,0.5-21.9-3.1c0,0-5-3.9-4.9-6.4
			C37.1,69.9,36.2,52.8,42.1,48.4"/>
		<path class="st7" d="M44.5,73.8c0,0-5.1-7.7-3-15.7c0,0,0-11,13.2-13.2c0,0,11.4-3.8,23.7,2c0,0,4.6,1.6,5.4,9.6
			c0,0,1.5,13.1-3.3,17.3c0,0-9.8,3.5-17.9,2.7C62.6,76.3,46.7,76.4,44.5,73.8"/>
		<path class="st5" d="M38.9,88c0,0-5.1,7.6-3.3,24.1c0,0,3.5,13.8,6.8,20.4l3.3,7.6c0,0,8.5,0.1,9,0l2.7-6.4c0,0,5.4,1.4,10.5,0.1
			l2.6,6.3c0,0,5.7,0.7,9.1,0c0,0,5.9-14.6,6.3-16c0,0,4-8.8,3.9-20.2c0,0-0.8-21.8-11.5-25.8c0,0-17.7,4-29.8,0.7
			C48.4,78.8,40.2,84.4,38.9,88"/>
		<path class="st4" d="M58.1,130.1c0,0-13.4-2.5-17.1-20.3c0,0-0.7-14.6,4.2-20.5c0,0,5.4-10.8,22.1-8.1c0,0,12.2,2.1,15.7,15.9
			c0,0,4.6,17-7.1,28.2C75.9,125.2,68.4,132.4,58.1,130.1"/>
		<g>
			<path class="st8" d="M62.1,116.3c-1.8,0-3.4-0.3-5-1c-1.6-0.7-3-1.6-4.1-2.7c-1.2-1.2-2.1-2.5-2.8-4.1c-0.7-1.6-1-3.2-1.1-5
				c0-1.7,0.3-3.4,1-5c0.7-1.6,1.6-3,2.7-4.2c1.2-1.2,2.5-2.2,4.1-2.9c1.6-0.7,3.3-1.1,5-1.1c0,0,0.1,0,0.1,0c1.7,0,3.4,0.3,5,1
				c1.6,0.7,3,1.6,4.2,2.8c1.2,1.2,2.1,2.6,2.8,4.1c0.7,1.6,1.1,3.2,1.1,5c0,1.8-0.3,3.5-1,5.1c-0.7,1.6-1.6,3-2.8,4.1
				c-1.2,1.2-2.5,2.1-4.1,2.8C65.6,115.9,64,116.2,62.1,116.3C62.2,116.3,62.1,116.3,62.1,116.3 M62.1,91.1
				C62,91.1,62,91.1,62.1,91.1c-1.8,0-3.4,0.4-4.8,1c-1.5,0.7-2.8,1.6-3.8,2.7c-1.1,1.1-2,2.4-2.6,3.9c-0.6,1.5-0.9,3.1-0.9,4.7
				c0,1.7,0.3,3.3,1,4.7c0.6,1.5,1.5,2.8,2.7,3.8c1.1,1.1,2.4,2,3.9,2.6c1.5,0.6,3.1,0.9,4.7,0.9c1.7,0,3.2-0.4,4.7-1
				c1.5-0.6,2.8-1.5,3.9-2.7c1.1-1.1,2-2.4,2.6-3.9c0.6-1.5,0.9-3.1,0.9-4.7c0-1.6-0.4-3.2-1-4.7c-0.7-1.5-1.6-2.8-2.7-3.9
				c-1.1-1.1-2.4-2-3.9-2.6C65.2,91.4,63.7,91.1,62.1,91.1 M62.2,112.8c-1.2,0-2.4-0.2-3.6-0.7c-1.1-0.5-2.1-1.2-3-2
				c-0.9-0.8-1.5-1.8-2-3c-0.5-1.1-0.7-2.4-0.8-3.7c0-1.3,0.2-2.5,0.7-3.7c0.5-1.2,1.1-2.2,2-3c0.8-0.9,1.8-1.5,2.9-2
				c1.1-0.5,2.3-0.8,3.6-0.8c1.3,0,2.5,0.2,3.6,0.7c1.1,0.5,2.1,1.2,3,2c0.9,0.8,1.5,1.8,2,3c0.5,1.1,0.7,2.4,0.8,3.7
				c0,1.3-0.2,2.6-0.7,3.7c-0.5,1.1-1.1,2.2-2,3c-0.8,0.9-1.8,1.5-2.9,2C64.7,112.5,63.5,112.7,62.2,112.8
				C62.2,112.8,62.2,112.7,62.2,112.8 M62.1,94.6C62.1,94.6,62.1,94.6,62.1,94.6c-1.2,0-2.3,0.3-3.4,0.7c-1,0.5-1.9,1.1-2.7,1.9
				c-0.8,0.8-1.4,1.7-1.8,2.8c-0.4,1.1-0.6,2.2-0.6,3.4c0,1.2,0.2,2.3,0.7,3.4c0.5,1,1.1,2,1.9,2.7c0.8,0.8,1.7,1.4,2.7,1.8
				c1,0.4,2.2,0.7,3.3,0.7c1.2,0,2.3-0.3,3.3-0.7c1-0.5,1.9-1.1,2.7-1.9c0.8-0.8,1.4-1.7,1.8-2.8c0.4-1,0.6-2.2,0.6-3.4
				c0-1.2-0.2-2.3-0.7-3.4c-0.5-1-1.1-2-1.9-2.7c-0.8-0.8-1.7-1.4-2.7-1.8C64.3,94.9,63.2,94.6,62.1,94.6"/>
			<path class="st8" d="M53.2,103.6c0,1.2,0.3,2.4,0.7,3.5c0.5,1.1,1.1,2,1.9,2.9c0.8,0.8,1.8,1.4,2.9,1.9c1.1,0.5,2.2,0.7,3.5,0.7
				c1.2,0,2.4-0.3,3.4-0.7c1.1-0.5,2-1.1,2.8-2c0.8-0.8,1.4-1.8,1.9-2.9c0.5-1.1,0.7-2.3,0.7-3.6c0-1.2-0.3-2.4-0.7-3.5
				c-0.5-1.1-1.1-2-1.9-2.9c-0.8-0.8-1.8-1.4-2.9-1.9c-1.1-0.5-2.2-0.7-3.5-0.7c-1.2,0-2.4,0.3-3.5,0.7c-1.1,0.5-2,1.1-2.8,2
				c-0.8,0.8-1.4,1.8-1.9,2.9C53.4,101.2,53.2,102.4,53.2,103.6"/>
			<path class="st4" d="M68.4,103.3c0-0.2,0.1-0.5,0.1-0.7c0-2-1.7-3.7-3.7-3.7c-1.5,0-2.8,0.9-3.4,2.2c-0.4-0.3-1-0.5-1.5-0.5
				c-1.5,0-2.7,1.2-2.8,2.6c-0.8,0.4-1.4,1.2-1.3,2.1c0,1.3,1,2.3,2.3,2.3l3.3,0c0.2,0,0.2-0.2,0.2-0.2l0-1.5c0-0.1-0.1-0.2-0.2-0.2
				l-0.6,0c-0.1,0-0.2-0.1-0.1-0.2l1.9-2.6c0.1-0.1,0.2-0.1,0.3,0l1.9,2.6c0.1,0.1,0,0.2-0.1,0.2l-0.6,0c-0.1,0-0.2,0.1-0.2,0.2
				l0,1.5c0,0,0,0.2,0.2,0.2l3.3,0c1.3,0,2.3-1,2.3-2.3C69.6,104.4,69.1,103.7,68.4,103.3"/>
		</g>
		<g class="st9">
			<g>
				<defs>
					<rect id="SVGID_00000093161190627737355010000001538240266499150227_" x="39.6" y="86.1" width="38.7" height="43.5"/>
				</defs>
				<clipPath id="SVGID_00000013909592225867204760000017555912402442184378_">
					<use xlink:href="#SVGID_00000093161190627737355010000001538240266499150227_"  style="overflow:visible;"/>
				</clipPath>
				<g style="clip-path:url(#SVGID_00000013909592225867204760000017555912402442184378_);">
					<defs>
						
							<rect id="SVGID_00000049932920420691547220000006204194046541847463_" x="43.7" y="87.8" transform="matrix(0.581 -0.8139 0.8139 0.581 -63.3686 93.0753)" width="30.1" height="40.5"/>
					</defs>
					<clipPath id="SVGID_00000021809281516845338050000008431654940972233613_">
						<use xlink:href="#SVGID_00000049932920420691547220000006204194046541847463_"  style="overflow:visible;"/>
					</clipPath>
					<g style="clip-path:url(#SVGID_00000021809281516845338050000008431654940972233613_);">
						<defs>
							<rect id="SVGID_00000092422468400737663230000013806546296496787643_" x="33.1" y="83.7" width="51.6" height="49.1"/>
						</defs>
						<clipPath id="SVGID_00000039133004295260342650000008204836384104056987_">
							<use xlink:href="#SVGID_00000092422468400737663230000013806546296496787643_"  style="overflow:visible;"/>
						</clipPath>
						<path style="clip-path:url(#SVGID_00000039133004295260342650000008204836384104056987_);fill:#FFFFFF;" d="M71.1,124.8
							c-6.3,4.7-17,1.1-23.9-8.1c-6.8-9.2-7.3-20.5-0.9-25.2c6.3-4.7,17-1.1,23.9,8.1C77,108.8,77.4,120,71.1,124.8"/>
					</g>
				</g>
			</g>
		</g>
		<g>
			<path class="st8" d="M79.1,29.3c-0.7-0.8-1.4-1.1-2.2-1.3c-0.9-0.3-1.8-0.4-2.7-0.7c-0.8-0.3-1.5-0.2-2.2,0.2
				c-1.4,0.6-2.8,1.2-4.2,1.8c-1.7,0.7-3.4,1.5-5.1,2.2c-0.6,0.2-1.2,0.4-1.9,0.6c0-0.7-0.1-1.3-0.1-1.9C60,29.9,60,30.3,60,30.6
				c0.2,1.3,0.2,2.7,0.7,3.9c1.4,3.6,5.5,5.3,9.3,4.2c3.4-1,5.6-4.1,5.2-7.5c-0.1-0.7-0.3-1.3-0.4-2C76.2,28.6,77.6,29.2,79.1,29.3z
				 M59,32.5c-1.3-0.4-2.5-0.8-3.7-1.3c-1.7-0.7-3.3-1.4-5-2.1c-1.6-0.7-1.8-0.7-3.2,0.3c-0.7,0.5-1.4,1-2,1.5
				c0.5,0.1,1,0.1,1.5,0.1c0.5,0.1,1,0.2,1.4,0.5c0.2,0.1,0.1,0.6,0.1,1c0,0.1,0,0.2,0,0.2c0.1,2.3,1.3,4,3.4,4.9
				c2.1,1,4.1,0.8,6-0.6c2.2-1.7,2.3-4.2,2.1-6.7c0-0.1-0.2-0.2-0.4-0.3c-0.1,0-0.1,0.1-0.2,0.1C59,30.9,59,31.6,59,32.5z"/>
			<path d="M79.1,29.3c-1.5-0.1-2.9-0.7-4.2-0.1c0.2,0.7,0.4,1.3,0.4,2c0.3,3.5-1.8,6.5-5.2,7.5c-3.8,1.1-7.9-0.6-9.3-4.2
				c-0.5-1.2-0.5-2.6-0.7-3.9c0-0.3,0-0.7,0.6-0.5c0,0.6,0.1,1.2,0.1,1.9c0.7-0.2,1.3-0.4,1.9-0.6c1.7-0.7,3.4-1.5,5.1-2.2
				c1.4-0.6,2.8-1.2,4.2-1.8c0.7-0.3,1.4-0.4,2.2-0.2c0.9,0.3,1.8,0.5,2.7,0.7C77.7,28.2,78.4,28.5,79.1,29.3z M61,33.8
				c1.1,2.7,3.1,4.2,6,4.5c2.7,0.3,5-0.7,6.5-3.1c1.2-1.8,1.4-3.8,0.6-5.7c-1.8,0.8-3.6,1.6-5.3,2.3c0.1,1.1-0.2,1.6-0.8,1.8
				c-0.7,0.3-1.2,0.1-1.9-0.8c-0.1-0.1-0.4-0.2-0.6-0.1C64,33.1,62.6,33.5,61,33.8z"/>
			<path d="M59,32.5c0-0.8,0-1.6,0-2.3c0.1,0,0.1-0.1,0.2-0.1c0.1,0.1,0.3,0.2,0.4,0.3c0.2,2.5,0.1,5-2.1,6.7
				c-1.8,1.4-3.9,1.6-6,0.6c-2.1-1-3.2-2.6-3.4-4.9c0-0.1,0-0.2,0-0.2c0-0.3,0.1-0.9-0.1-1c-0.4-0.3-0.9-0.4-1.4-0.5
				c-0.5-0.1-0.9,0-1.5-0.1c0.7-0.5,1.3-1,2-1.5c1.5-1,1.6-1,3.2-0.3c1.7,0.7,3.3,1.5,5,2.1C56.5,31.7,57.7,32,59,32.5z M57.9,33.4
				c-0.1,0.1-0.1,0.2-0.1,0.3c-0.2,0.5-0.6,0.9-1.2,0.8c-0.6-0.1-0.9-0.4-1-1c0-0.1-0.3-0.3-0.4-0.3c-1.6-0.4-3.2-0.7-4.8-1
				c-0.6-0.1-1.1-0.2-1.7-0.3c-0.6,2.4,1.4,5.2,4.1,5.9c2.7,0.6,5.6-1.3,6.1-4.2C58.6,33.4,58.3,33.4,57.9,33.4z"/>
			<path class="st8" d="M61,33.8c1.6-0.4,3-0.7,4.5-1c0.2,0,0.5,0,0.6,0.1c0.7,0.8,1.2,1,1.9,0.8c0.6-0.2,0.8-0.8,0.8-1.8
				c1.7-0.8,3.5-1.5,5.3-2.3c0.8,2,0.6,3.9-0.6,5.7c-1.5,2.4-3.8,3.4-6.5,3.1C64.1,38,62.1,36.5,61,33.8z"/>
			<path class="st8" d="M57.9,33.4c0.4,0,0.7,0.1,1,0.1c-0.5,2.9-3.4,4.8-6.1,4.2c-2.7-0.6-4.7-3.5-4.1-5.9c0.6,0.1,1.1,0.2,1.7,0.3
				c1.6,0.3,3.2,0.7,4.8,1c0.2,0,0.4,0.2,0.4,0.3c0.2,0.5,0.4,0.9,1,1c0.6,0.1,1-0.3,1.2-0.8C57.8,33.5,57.9,33.5,57.9,33.4z"/>
		</g>
		<path class="st8" d="M60,67.8c0,0-4.1-1.3-4.2-1.7c-0.2-0.3-1.2-3.3-1.2-3.3l6.4,0.9l5.1-0.9l4.1-1.1l-0.3,1.8l-1.6,2.8l-7.9,1.4
			H60z"/>
		<g>
			<path d="M72.2,59c0.9-0.1,1.3,0.2,1.5,1.2c-0.5-0.6-0.8-0.4-1.2-0.1c-1,0.6-1.4,1.5-1.9,2.5c-1.4,3.3-3.6,5.7-7.3,6.4
				c-4.1,0.8-8-1.3-9.4-5.2c-0.4-1.1-0.8-2-1.7-2.8c-0.3-0.2-0.4-0.5-0.6-0.8c-0.3-0.5-0.6-0.9-1.1,0.1c0.1-1.1,0.5-1.4,1.6-1.3
				c-0.6,0.3-0.6,0.6-0.3,1c1.1,1.5,2.4,2.6,4.2,2.9c5,0.9,9.9,0.6,14.5-1.9c0.6-0.3,1.1-0.8,1.7-1.2C72.9,59.5,73,59.3,72.2,59z
				 M55.3,63.2c0.2,0.8,0.9,1.4,1.2,2.1c0.3,0.6,0.7,0.6,1,0c0.3-0.7,0.8-0.7,1.5-0.6c2.2,0.6,4.5,0.5,6.7,0
				c0.8-0.2,1.3-0.2,1.8,0.4c0.2,0.2,0.5,0.5,0.7,0c0.6-1,0.9-2,1.3-3.1C64.8,63.9,60.2,64.3,55.3,63.2z"/>
			<path d="M67.1,68.9c-1.8,2.9-7.3,3-9.6,0.2c1.7,1,3.2,1.7,5,1.7C64.3,70.8,65.8,70,67.1,68.9z"/>
		</g>
		<g>
			<defs>
				<path id="SVGID_00000183223794413101361010000001061921160178331816_" d="M44.9,104.3l-5.6,7.6c0,0,11.6,4.4,11.8,4.2
					c0,0,1.7-0.1-0.2-2.8l-1.8-2c0,0,3.8,2.7,4.7,1.4c0,0,0.3-1.9-1-3.3L44.9,104.3z"/>
			</defs>
			<clipPath id="SVGID_00000167362945592494677640000014411986252525048449_">
				<use xlink:href="#SVGID_00000183223794413101361010000001061921160178331816_"  style="overflow:visible;"/>
			</clipPath>
			<g style="clip-path:url(#SVGID_00000167362945592494677640000014411986252525048449_);">
				<g>
					<defs>
						
							<rect id="SVGID_00000084497346903137860300000004018975060753938583_" x="37.1" y="100.8" transform="matrix(0.7529 -0.6582 0.6582 0.7529 -60.9819 57.8921)" width="19" height="18.8"/>
					</defs>
					<clipPath id="SVGID_00000111193098216015304700000005178245221944456595_">
						<use xlink:href="#SVGID_00000084497346903137860300000004018975060753938583_"  style="overflow:visible;"/>
					</clipPath>
					<g style="clip-path:url(#SVGID_00000111193098216015304700000005178245221944456595_);">
						<defs>
							
								<rect id="SVGID_00000009554198299175221810000010098133274359936170_" x="27.8" y="91.3" transform="matrix(0.7528 -0.6583 0.6583 0.7528 -60.99 57.9086)" width="37.6" height="37.6"/>
						</defs>
						<clipPath id="SVGID_00000183227520604774250030000006728594967863985848_">
							<use xlink:href="#SVGID_00000009554198299175221810000010098133274359936170_"  style="overflow:visible;"/>
						</clipPath>
						<g style="clip-path:url(#SVGID_00000183227520604774250030000006728594967863985848_);">
							
								<image style="overflow:visible;" width="222" height="222" xlink:href="A99028F20AC2ACBA.jpg"  transform="matrix(0.24 0 0 0.24 19.92 83.44)">
							</image>
						</g>
					</g>
				</g>
			</g>
		</g>
		<g>
			<defs>
				<path id="SVGID_00000126323587621039782770000014126784527962844562_" d="M77.2,44.7c0,0,1.3,2.4,3.8,0.8c0,0,2.1-1.3,0.4-3.4
					c-0.1-0.2-0.3-0.3-0.5-0.4C79.2,40.3,76.5,42.4,77.2,44.7"/>
			</defs>
			<clipPath id="SVGID_00000003101755255030837260000000187128770361848709_">
				<use xlink:href="#SVGID_00000126323587621039782770000014126784527962844562_"  style="overflow:visible;"/>
			</clipPath>
			<g style="clip-path:url(#SVGID_00000003101755255030837260000000187128770361848709_);">
				<g>
					<defs>
						
							<rect id="SVGID_00000162334308220142842770000002634243138622419098_" x="75.1" y="39" transform="matrix(0.8418 -0.5397 0.5397 0.8418 -10.9161 49.9415)" width="9.2" height="9.3"/>
					</defs>
					<clipPath id="SVGID_00000055687960449898517930000010296744049554900637_">
						<use xlink:href="#SVGID_00000162334308220142842770000002634243138622419098_"  style="overflow:visible;"/>
					</clipPath>
					<g style="clip-path:url(#SVGID_00000055687960449898517930000010296744049554900637_);">
						<defs>
							
								<rect id="SVGID_00000152265406604257075000000002068421642978541995_" x="70.9" y="34.8" transform="matrix(0.8418 -0.5398 0.5398 0.8418 -10.9155 49.9483)" width="17.7" height="17.7"/>
						</defs>
						<clipPath id="SVGID_00000028289321287960259570000010953038631238839456_">
							<use xlink:href="#SVGID_00000152265406604257075000000002068421642978541995_"  style="overflow:visible;"/>
						</clipPath>
						<g style="clip-path:url(#SVGID_00000028289321287960259570000010953038631238839456_);">
							
								<image style="overflow:visible;" width="103" height="102" xlink:href="A99028F20AC2ACBE.jpg"  transform="matrix(0.24 0 0 0.24 67.44 31.36)">
							</image>
						</g>
					</g>
				</g>
			</g>
		</g>
		<g>
			<defs>
				<path id="SVGID_00000057868397225241218770000008302426015133870499_" d="M42.7,45c0,0,1.3,2.4,3.8,0.8c0,0,2.1-1.3,0.4-3.4
					c-0.1-0.2-0.3-0.3-0.5-0.4C44.7,40.6,42,42.8,42.7,45"/>
			</defs>
			<clipPath id="SVGID_00000042702550562297551030000013380266508888849544_">
				<use xlink:href="#SVGID_00000057868397225241218770000008302426015133870499_"  style="overflow:visible;"/>
			</clipPath>
			<g style="clip-path:url(#SVGID_00000042702550562297551030000013380266508888849544_);">
				<g>
					<defs>
						
							<rect id="SVGID_00000017483430992744501270000001040693517601563024_" x="40.7" y="39.3" transform="matrix(0.8418 -0.5397 0.5397 0.8418 -16.5428 31.3796)" width="9.2" height="9.3"/>
					</defs>
					<clipPath id="SVGID_00000026857154727244502740000006480304671052041625_">
						<use xlink:href="#SVGID_00000017483430992744501270000001040693517601563024_"  style="overflow:visible;"/>
					</clipPath>
					<g style="clip-path:url(#SVGID_00000026857154727244502740000006480304671052041625_);">
						<defs>
							
								<rect id="SVGID_00000165215044128560930570000001039869156821772419_" x="36.4" y="35.1" transform="matrix(0.8418 -0.5398 0.5398 0.8418 -16.5436 31.3843)" width="17.7" height="17.7"/>
						</defs>
						<clipPath id="SVGID_00000130604800043379532440000005094665015291638938_">
							<use xlink:href="#SVGID_00000165215044128560930570000001039869156821772419_"  style="overflow:visible;"/>
						</clipPath>
						<g style="clip-path:url(#SVGID_00000130604800043379532440000005094665015291638938_);">
							
								<image style="overflow:visible;" width="103" height="103" xlink:href="A99028F20AC2ACB9.jpg"  transform="matrix(0.24 0 0 0.24 32.88 31.6)">
							</image>
						</g>
					</g>
				</g>
			</g>
		</g>
		<g>
			<defs>
				<path id="SVGID_00000044869669847002366220000006846556878091890877_" d="M31.6,97.7c0,0-0.2,7.6,8.4,13.6c0,0,2.2-6.1,7.1-5.6
					c0,0-12.9-7-0.6-18.7l-0.2-6C46.2,81,30.6,83.3,31.6,97.7"/>
			</defs>
			<clipPath id="SVGID_00000105424944726177506350000007365532338777162643_">
				<use xlink:href="#SVGID_00000044869669847002366220000006846556878091890877_"  style="overflow:visible;"/>
			</clipPath>
			<g style="clip-path:url(#SVGID_00000105424944726177506350000007365532338777162643_);">
				<g>
					<defs>
						
							<rect id="SVGID_00000162327604805298591860000007136330637810092465_" x="30" y="80.6" transform="matrix(0.9994 -3.419791e-02 3.419791e-02 0.9994 -3.2616 1.3809)" width="17.4" height="30.9"/>
					</defs>
					<clipPath id="SVGID_00000008139073442052320240000001475255384738114735_">
						<use xlink:href="#SVGID_00000162327604805298591860000007136330637810092465_"  style="overflow:visible;"/>
					</clipPath>
					<g style="clip-path:url(#SVGID_00000008139073442052320240000001475255384738114735_);">
						<defs>
							
								<rect id="SVGID_00000129192342119456225850000004005082860338412209_" x="29" y="80" transform="matrix(0.9994 -3.450985e-02 3.450985e-02 0.9994 -3.2911 1.394)" width="19.5" height="32.1"/>
						</defs>
						<clipPath id="SVGID_00000024707221830092762030000001080050306362311554_">
							<use xlink:href="#SVGID_00000129192342119456225850000004005082860338412209_"  style="overflow:visible;"/>
						</clipPath>
						<g style="clip-path:url(#SVGID_00000024707221830092762030000001080050306362311554_);">
							
								<image style="overflow:visible;" width="87" height="137" xlink:href="A99028F20AC2ACBB.jpg"  transform="matrix(0.24 0 0 0.24 28.32 79.6)">
							</image>
						</g>
					</g>
				</g>
			</g>
		</g>
		<g>
			<defs>
				<path id="SVGID_00000133519950281328524220000004039858803815850126_" d="M79.4,79l1,11.4c11.8-0.1,0.5,13.3,0.5,13.3
					c4.9-0.8,7.4,5.1,7.4,5.1c8.1-6.6,7.4-14.1,7.4-14.1c-0.3-4.7-3.8-8.4-7.4-11C83.9,80.5,79.4,79,79.4,79"/>
			</defs>
			<clipPath id="SVGID_00000035497396383526282850000009747625736856906170_">
				<use xlink:href="#SVGID_00000133519950281328524220000004039858803815850126_"  style="overflow:visible;"/>
			</clipPath>
			<g style="clip-path:url(#SVGID_00000035497396383526282850000009747625736856906170_);">
				<g>
					<defs>
						
							<rect id="SVGID_00000165956844728314325620000016493782326713325440_" x="78.8" y="78.6" transform="matrix(0.9994 -3.419239e-02 3.419239e-02 0.9994 -3.1548 3.0553)" width="18" height="30.3"/>
					</defs>
					<clipPath id="SVGID_00000178182952862347006830000010827567406680441509_">
						<use xlink:href="#SVGID_00000165956844728314325620000016493782326713325440_"  style="overflow:visible;"/>
					</clipPath>
					<g style="clip-path:url(#SVGID_00000178182952862347006830000010827567406680441509_);">
						<defs>
							
								<rect id="SVGID_00000004527285878179525010000014234680484989250488_" x="77.7" y="78" transform="matrix(0.9994 -3.450980e-02 3.450980e-02 0.9994 -3.1836 3.0841)" width="20" height="31.6"/>
						</defs>
						<clipPath id="SVGID_00000137113129297060273450000012507448320124664231_">
							<use xlink:href="#SVGID_00000004527285878179525010000014234680484989250488_"  style="overflow:visible;"/>
						</clipPath>
						<g style="clip-path:url(#SVGID_00000137113129297060273450000012507448320124664231_);">
							
								<image style="overflow:visible;" width="89" height="136" xlink:href="A99028F20AC2ACB8.jpg"  transform="matrix(0.24 0 0 0.24 77.04 77.44)">
							</image>
						</g>
					</g>
				</g>
			</g>
		</g>
		<g>
			<defs>
				<path id="SVGID_00000096777731267522328080000014189705706895986309_" d="M74.5,106c-1.2,1.4-0.8,3.3-0.8,3.3
					c1,1.2,4.6-1.7,4.6-1.7l-1.6,2.1c-1.7,2.8,0,2.8,0,2.8c0.2,0.1,11.5-5,11.5-5l-6.1-7.2L74.5,106z"/>
			</defs>
			<clipPath id="SVGID_00000181087292205280850210000006269243487264193974_">
				<use xlink:href="#SVGID_00000096777731267522328080000014189705706895986309_"  style="overflow:visible;"/>
			</clipPath>
			<g style="clip-path:url(#SVGID_00000181087292205280850210000006269243487264193974_);">
				<g>
					<defs>
						
							<rect id="SVGID_00000014603133475250118050000004525951979081500330_" x="71.3" y="96.8" transform="matrix(0.605 -0.7962 0.7962 0.605 -52.8915 106.3247)" width="18.8" height="19.3"/>
					</defs>
					<clipPath id="SVGID_00000023240301939100865730000006981379121763012274_">
						<use xlink:href="#SVGID_00000014603133475250118050000004525951979081500330_"  style="overflow:visible;"/>
					</clipPath>
					<g style="clip-path:url(#SVGID_00000023240301939100865730000006981379121763012274_);">
						<defs>
							
								<rect id="SVGID_00000129908941122826828240000013478791049711428278_" x="62" y="87.8" transform="matrix(0.605 -0.7962 0.7962 0.605 -52.8914 106.3231)" width="37.4" height="37.4"/>
						</defs>
						<clipPath id="SVGID_00000048502070704551373580000016192353608985822132_">
							<use xlink:href="#SVGID_00000129908941122826828240000013478791049711428278_"  style="overflow:visible;"/>
						</clipPath>
						<g style="clip-path:url(#SVGID_00000048502070704551373580000016192353608985822132_);">
							
								<image style="overflow:visible;" width="219" height="220" xlink:href="A99028F20AC2ACC6.jpg"  transform="matrix(0.24 0 0 0.24 54.48 80.08)">
							</image>
						</g>
					</g>
				</g>
			</g>
		</g>
		<g>
			<defs>
				<path id="SVGID_00000116201757586441642570000008098908258790391968_" d="M45.4,139.8l0.3,0.8c0.1,0.4,2.5,5.1,2.5,5.1
					c1.1,0.3,1.4-2,1.4-2c0.2-0.1,0.5,0,0.5,0l0.3,1.7c0.8,0.6,1.7-0.2,1.7-0.2c1.7-1.4,2.6-5.6,2.6-5.6L45.4,139.8z"/>
			</defs>
			<clipPath id="SVGID_00000117663907473105198310000013383100693622581939_">
				<use xlink:href="#SVGID_00000116201757586441642570000008098908258790391968_"  style="overflow:visible;"/>
			</clipPath>
			<g style="clip-path:url(#SVGID_00000117663907473105198310000013383100693622581939_);">
				<g>
					<defs>
						
							<rect id="SVGID_00000016762536267567153090000016005200009458753677_" x="45.3" y="139.5" transform="matrix(1 -2.019392e-03 2.019392e-03 1 -0.2881 0.1013)" width="9.4" height="6.4"/>
					</defs>
					<clipPath id="SVGID_00000054969934429310525290000001031881299820902578_">
						<use xlink:href="#SVGID_00000016762536267567153090000016005200009458753677_"  style="overflow:visible;"/>
					</clipPath>
					<g style="clip-path:url(#SVGID_00000054969934429310525290000001031881299820902578_);">
						<defs>
							
								<rect id="SVGID_00000111875570231202405710000007251092428387615924_" x="45.3" y="139.5" transform="matrix(1 -2.368658e-03 2.368658e-03 1 -0.3379 0.1188)" width="9.4" height="6.4"/>
						</defs>
						<clipPath id="SVGID_00000030488339505273357990000017887388328425333928_">
							<use xlink:href="#SVGID_00000111875570231202405710000007251092428387615924_"  style="overflow:visible;"/>
						</clipPath>
						<g style="clip-path:url(#SVGID_00000030488339505273357990000017887388328425333928_);">
							
								<image style="overflow:visible;" width="41" height="28" xlink:href="A99028F20AC2ACC9.jpg"  transform="matrix(0.24 0 0 0.24 45.12 139.36)">
							</image>
						</g>
					</g>
				</g>
			</g>
		</g>
		<g>
			<defs>
				<path id="SVGID_00000079465097081031673490000010326094229609070988_" d="M70.2,139.8l0.3,0.8c0.1,0.4,2.5,5.1,2.5,5.1
					c1.1,0.3,1.4-2,1.4-2c0.2-0.1,0.5,0,0.5,0l0.3,1.7c0.8,0.6,1.7-0.2,1.7-0.2c1.7-1.4,2.6-5.6,2.6-5.6L70.2,139.8z"/>
			</defs>
			<clipPath id="SVGID_00000106839424597235112410000011531339543710825372_">
				<use xlink:href="#SVGID_00000079465097081031673490000010326094229609070988_"  style="overflow:visible;"/>
			</clipPath>
			<g style="clip-path:url(#SVGID_00000106839424597235112410000011531339543710825372_);">
				<g>
					<defs>
						
							<rect id="SVGID_00000128463375808727850450000000962904548467626406_" x="70.2" y="139.5" transform="matrix(1 -2.019392e-03 2.019392e-03 1 -0.2881 0.1515)" width="9.4" height="6.4"/>
					</defs>
					<clipPath id="SVGID_00000000207112536768193880000007595385128902626179_">
						<use xlink:href="#SVGID_00000128463375808727850450000000962904548467626406_"  style="overflow:visible;"/>
					</clipPath>
					<g style="clip-path:url(#SVGID_00000000207112536768193880000007595385128902626179_);">
						<defs>
							
								<rect id="SVGID_00000088841640623519145740000015707457767009239487_" x="70.1" y="139.5" transform="matrix(1 -2.368658e-03 2.368658e-03 1 -0.3379 0.1777)" width="9.4" height="6.4"/>
						</defs>
						<clipPath id="SVGID_00000019661110919371821450000004921983666382158746_">
							<use xlink:href="#SVGID_00000088841640623519145740000015707457767009239487_"  style="overflow:visible;"/>
						</clipPath>
						<g style="clip-path:url(#SVGID_00000019661110919371821450000004921983666382158746_);">
							
								<image style="overflow:visible;" width="40" height="28" xlink:href="A99028F20AC2ACCA.jpg"  transform="matrix(0.24 0 0 0.24 70.08 139.36)">
							</image>
						</g>
					</g>
				</g>
			</g>
		</g>
	</g>
	
		<path style="clip-path:url(#SVGID_00000121251146323345619280000008994975899075954603_);fill-rule:evenodd;clip-rule:evenodd;" d="
		M26.8,85.3c0.5,0,1-0.4,1-1V70c0-0.5-0.4-1-1-1c-0.5,0-1,0.4-1,1v14.4C25.9,84.9,26.3,85.3,26.8,85.3z"/>
	
		<path style="clip-path:url(#SVGID_00000121251146323345619280000008994975899075954603_);fill-rule:evenodd;clip-rule:evenodd;" d="
		M25.9,84.4c0,0.5,0.4,1,1,1h14.4c0.5,0,1-0.4,1-1c0-0.5-0.4-1-1-1H26.8C26.3,83.4,25.9,83.8,25.9,84.4z"/>
	
		<path style="clip-path:url(#SVGID_00000121251146323345619280000008994975899075954603_);fill-rule:evenodd;clip-rule:evenodd;" d="
		M97.8,22c-0.5,0-1,0.4-1,1v14.4c0,0.5,0.4,1,1,1c0.5,0,1-0.4,1-1V23C98.7,22.5,98.3,22,97.8,22z"/>
	
		<path style="clip-path:url(#SVGID_00000121251146323345619280000008994975899075954603_);fill-rule:evenodd;clip-rule:evenodd;" d="
		M98.7,23c0-0.5-0.4-1-1-1H83.4c-0.5,0-1,0.4-1,1c0,0.5,0.4,1,1,1h14.4C98.3,24,98.7,23.5,98.7,23z"/>
	
		<path style="clip-path:url(#SVGID_00000121251146323345619280000008994975899075954603_);fill-rule:evenodd;clip-rule:evenodd;" d="
		M97.8,85.3c-0.5,0-1-0.4-1-1V70c0-0.5,0.4-1,1-1c0.5,0,1,0.4,1,1v14.4C98.7,84.9,98.3,85.3,97.8,85.3z"/>
	
		<path style="clip-path:url(#SVGID_00000121251146323345619280000008994975899075954603_);fill-rule:evenodd;clip-rule:evenodd;" d="
		M98.7,84.4c0,0.5-0.4,1-1,1H83.4c-0.5,0-1-0.4-1-1c0-0.5,0.4-1,1-1h14.4C98.3,83.4,98.7,83.8,98.7,84.4z"/>
	
		<path style="clip-path:url(#SVGID_00000121251146323345619280000008994975899075954603_);fill-rule:evenodd;clip-rule:evenodd;" d="
		M21.1,51.8c0-0.5,0.4-1,1-1h81.5c0.5,0,1,0.4,1,1c0,0.5-0.4,1-1,1H22C21.5,52.7,21.1,52.3,21.1,51.8z"/>
</g>
</svg>
