<svg width="32" height="32" viewBox="0 0 32 32" fill="none" xmlns="http://www.w3.org/2000/svg">
<path d="M27.3188 4.68145C21.0759 -1.56016 10.9231 -1.56016 4.68018 4.68145C-1.56006 10.9231 -1.56006 21.0785 4.68018 27.3201C7.80164 30.4402 11.9009 31.9996 16.0002 31.9996C20.0995 31.9996 24.1973 30.4402 27.3188 27.3201C33.5604 21.0785 33.5604 10.9231 27.3188 4.68145ZM22.6019 20.717C23.1234 21.2385 23.1234 22.0816 22.6019 22.6032C22.4782 22.7272 22.3312 22.8256 22.1693 22.8927C22.0075 22.9598 21.834 22.9942 21.6588 22.994C21.4836 22.9942 21.3101 22.9597 21.1482 22.8927C20.9864 22.8256 20.8394 22.7272 20.7156 22.6032L16.0001 17.8863L11.2859 22.6018C11.0357 22.8519 10.6965 22.9925 10.3428 22.9927C10.1676 22.9928 9.99407 22.9584 9.83222 22.8913C9.67037 22.8242 9.52337 22.7258 9.39964 22.6018C8.87808 22.0802 8.87808 21.2358 9.39964 20.7156L14.1139 16.0001L9.39833 11.2845C8.87677 10.763 8.87677 9.9186 9.39833 9.39835C9.91857 8.8768 10.763 8.8768 11.2845 9.39835L16 14.1139L20.7156 9.39835C21.2371 8.8768 22.0802 8.8768 22.6018 9.39835C23.1233 9.9186 23.1233 10.763 22.6018 11.2845L17.8862 16.0001L22.6019 20.717Z" fill="#FD4549"/>
</svg>
