<?xml version="1.0" encoding="UTF-8"?>
<svg width="61px" height="60px" viewBox="0 0 61 60" version="1.1" xmlns="http://www.w3.org/2000/svg" xmlns:xlink="http://www.w3.org/1999/xlink">
    <!-- Generator: Sketch 61.2 (89653) - https://sketch.com -->
    <title>Group 6</title>
    <desc>Created with Sketch.</desc>
    <g id="Page-1" stroke="none" stroke-width="1" fill="none" fill-rule="evenodd">
        <g id="Canvato_Thankyou_Op1" transform="translate(-770.000000, -220.000000)" fill-rule="nonzero">
            <g id="Group-6" transform="translate(770.000000, 220.000000)">
                <path d="M60.546875,29.9995407 C60.546875,46.5054412 47.0229201,59.9412242 30.3804764,60 L30.273901,60 C13.5823397,60 0,46.5412578 0,29.9995407 C0,13.458742 13.5823397,0 30.273901,0 L30.3804764,0 C47.0229201,0.0587758101 60.546875,13.4945585 60.546875,29.9995407 Z" id="Path" fill="#7FCA27"></path>
                <path d="M44.2215243,25.0250437 L30.4836214,38.6462938 L27.5151063,41.5892023 C26.8138307,42.2844286 25.8940486,42.6315789 24.9752003,42.6315789 C24.0554183,42.6315789 23.1365699,42.2844286 22.4343607,41.5892023 L16.0519132,35.2590332 C14.6493623,33.8685806 14.6493623,31.6162698 16.0519132,30.2248916 C17.4525966,28.8344392 19.7273064,28.8344392 21.1298573,30.2248916 L24.9752003,34.0370643 L39.1435799,19.990902 C40.5461311,18.5995239 42.8208409,18.5995239 44.2215243,19.990902 C45.6240752,21.3813546 45.6240752,23.6364426 44.2215243,25.0250437 Z" id="Path" fill="#FFFFFF"></path>
            </g>
        </g>
    </g>
</svg>