<svg width="115" height="52" viewBox="0 0 115 52" fill="none" xmlns="http://www.w3.org/2000/svg">
<path d="M99.3731 18.0404C96.6068 18.0404 94.9685 19.2216 93.9211 20.6444V19.5706C93.9211 18.98 93.4377 18.4968 92.8469 18.4968H88.2006C87.4218 18.4968 86.7772 19.1142 86.7772 19.9196V37.0739C86.7772 37.8524 87.3949 38.4967 88.2006 38.4967H92.4977C93.2766 38.4967 93.9211 37.8793 93.9211 37.0739V27.7316C93.9211 26.1478 94.9954 24.9666 96.7679 24.9666C98.5136 24.9666 99.6148 26.1478 99.6148 27.7316V37.0739C99.6148 37.8524 100.232 38.4967 100.984 38.4967H105.282C106.06 38.4967 106.705 37.8793 106.705 37.0739V25.9867C106.705 23.0874 105.658 18.0404 99.3731 18.0404ZM78.2368 19.7317L74.9334 30.1477L71.6031 19.7317C71.3614 19.0337 70.69 18.4968 69.938 18.4968H65.2381C64.4861 18.4968 63.9758 19.2485 64.2444 19.9464L71.0391 37.3692C71.2808 38.0403 71.9523 38.4699 72.6505 38.4699H77.1356C77.8339 38.4699 78.5053 38.0403 78.8008 37.3692L85.5418 19.9464C85.8104 19.2485 85.3001 18.4968 84.5481 18.4968H79.9019C79.1499 18.4968 78.4785 19.0068 78.2368 19.7317Z" fill="#133C8A"/>
<path d="M61.3171 38.4697C63.5272 38.4697 65.3188 36.6788 65.3188 34.4697C65.3188 32.2606 63.5272 30.4697 61.3171 30.4697C59.107 30.4697 57.3154 32.2606 57.3154 34.4697C57.3154 36.6788 59.107 38.4697 61.3171 38.4697Z" fill="url(#paint0_linear_13_4040)"/>
<path d="M113.527 15.6782L101.603 15.6782C101.119 15.6782 100.743 15.3024 100.743 14.8191C100.743 14.3628 101.119 13.9601 101.603 13.9601L113.527 13.9601C114.01 13.9601 114.386 14.3359 114.386 14.8191C114.386 15.3024 113.984 15.6782 113.527 15.6782Z" fill="url(#paint1_linear_13_4040)"/>
<path d="M108.612 13.3961H106.518C106.034 13.3961 105.658 13.0203 105.658 12.537C105.658 12.0538 106.034 11.678 106.518 11.678H108.612C109.096 11.678 109.472 12.0538 109.472 12.537C109.472 13.0203 109.069 13.3961 108.612 13.3961Z" fill="url(#paint2_linear_13_4040)"/>
<path d="M107.564 11.1144C107.108 11.1144 106.705 10.7385 106.705 10.2553C106.705 9.79892 107.081 9.39624 107.564 9.39624C108.021 9.39624 108.423 9.77208 108.423 10.2553C108.423 10.7385 108.021 11.1144 107.564 11.1144Z" fill="url(#paint3_linear_13_4040)"/>
<path d="M108.747 20.2418H110.841C111.325 20.2418 111.701 19.866 111.701 19.3827C111.701 18.8995 111.325 18.5237 110.841 18.5237H108.747C108.263 18.5237 107.887 18.8995 107.887 19.3827C107.887 19.866 108.263 20.2418 108.747 20.2418Z" fill="url(#paint4_linear_13_4040)"/>
<path d="M111.566 22.5239C112.049 22.5239 112.425 22.1481 112.425 21.6648C112.425 21.1816 112.049 20.8058 111.566 20.8058C111.082 20.8058 110.707 21.1816 110.707 21.6648C110.707 22.1212 111.082 22.5239 111.566 22.5239Z" fill="url(#paint5_linear_13_4040)"/>
<path d="M110.089 17.9599H104.986C104.503 17.9599 104.127 17.5841 104.127 17.1009C104.127 16.6177 104.53 16.2418 104.986 16.2418H110.089C110.573 16.2418 110.949 16.6177 110.949 17.1009C110.975 17.5841 110.573 17.9599 110.089 17.9599Z" fill="url(#paint6_linear_13_4040)"/>
<path d="M43.5886 38.4162C42.9977 38.4162 42.5412 37.9329 42.5412 37.3692V36.8323C41.44 38.1209 39.8018 38.9262 37.3578 38.9262C31.1539 38.9262 28.0922 33.7182 28.0922 28.537C28.0922 23.329 31.1539 18.0941 37.3578 18.0941C39.8018 18.0941 41.44 18.9263 42.5412 20.188V12.4028C42.5412 11.6243 43.1589 10.98 43.9646 10.98H47.268C42.5412 4.34916 34.7796 0.000183982 26.0511 0.000183982C11.4141 -0.0535071 0 11.6511 0 25.9867C0 40.3222 11.4141 52 26.0242 52C35.8538 52 44.448 46.4967 48.8794 38.4162H43.5886ZM25.3528 37.0202C25.3528 37.7987 24.7351 38.443 23.9831 38.443H19.7129C18.934 38.443 18.2895 37.8256 18.2895 37.0202V19.9464C18.2895 19.1679 18.9072 18.5236 19.7129 18.5236H23.9831C24.7351 18.5236 25.3528 19.1411 25.3528 19.9464V37.0202ZM21.8346 16.6444C19.8203 16.6444 18.1821 15.0068 18.1821 12.9666C18.1821 10.9263 19.8203 9.28874 21.8346 9.28874C23.8757 9.2619 25.514 10.8995 25.514 12.9397C25.514 14.98 23.8757 16.6444 21.8346 16.6444Z" fill="url(#paint7_linear_13_4040)"/>
<path d="M38.7546 24.9127C36.606 24.9127 35.2095 26.4161 35.2095 28.4832C35.2095 30.5234 36.5792 32.0268 38.7546 32.0268C40.8763 32.0268 42.3265 30.5771 42.3265 28.4832C42.3265 26.3624 40.8763 24.9127 38.7546 24.9127Z" fill="url(#paint8_linear_13_4040)"/>
<defs>
<linearGradient id="paint0_linear_13_4040" x1="57.3169" y1="34.4798" x2="65.342" y2="34.4798" gradientUnits="userSpaceOnUse">
<stop stop-color="#DA2128"/>
<stop offset="0.1434" stop-color="#E1392B"/>
<stop offset="0.3265" stop-color="#E9512E"/>
<stop offset="0.5214" stop-color="#EE622F"/>
<stop offset="0.7346" stop-color="#F16C31"/>
<stop offset="1" stop-color="#F26F31"/>
</linearGradient>
<linearGradient id="paint1_linear_13_4040" x1="100.717" y1="14.8271" x2="114.386" y2="14.8271" gradientUnits="userSpaceOnUse">
<stop stop-color="#DA2128"/>
<stop offset="0.1434" stop-color="#E1392B"/>
<stop offset="0.3265" stop-color="#E9512E"/>
<stop offset="0.5214" stop-color="#EE622F"/>
<stop offset="0.7346" stop-color="#F16C31"/>
<stop offset="1" stop-color="#F26F31"/>
</linearGradient>
<linearGradient id="paint2_linear_13_4040" x1="105.664" y1="12.5502" x2="109.463" y2="12.5502" gradientUnits="userSpaceOnUse">
<stop stop-color="#DA2128"/>
<stop offset="0.1434" stop-color="#E1392B"/>
<stop offset="0.3265" stop-color="#E9512E"/>
<stop offset="0.5214" stop-color="#EE622F"/>
<stop offset="0.7346" stop-color="#F16C31"/>
<stop offset="1" stop-color="#F26F31"/>
</linearGradient>
<linearGradient id="paint3_linear_13_4040" x1="106.714" y1="10.2735" x2="108.411" y2="10.2735" gradientUnits="userSpaceOnUse">
<stop stop-color="#DA2128"/>
<stop offset="0.1434" stop-color="#E1392B"/>
<stop offset="0.3265" stop-color="#E9512E"/>
<stop offset="0.5214" stop-color="#EE622F"/>
<stop offset="0.7346" stop-color="#F16C31"/>
<stop offset="1" stop-color="#F26F31"/>
</linearGradient>
<linearGradient id="paint4_linear_13_4040" x1="107.891" y1="19.3805" x2="111.69" y2="19.3805" gradientUnits="userSpaceOnUse">
<stop stop-color="#DA2128"/>
<stop offset="0.1434" stop-color="#E1392B"/>
<stop offset="0.3265" stop-color="#E9512E"/>
<stop offset="0.5214" stop-color="#EE622F"/>
<stop offset="0.7346" stop-color="#F16C31"/>
<stop offset="1" stop-color="#F26F31"/>
</linearGradient>
<linearGradient id="paint5_linear_13_4040" x1="110.713" y1="21.6574" x2="112.421" y2="21.6574" gradientUnits="userSpaceOnUse">
<stop stop-color="#DA2128"/>
<stop offset="0.1434" stop-color="#E1392B"/>
<stop offset="0.3265" stop-color="#E9512E"/>
<stop offset="0.5214" stop-color="#EE622F"/>
<stop offset="0.7346" stop-color="#F16C31"/>
<stop offset="1" stop-color="#F26F31"/>
</linearGradient>
<linearGradient id="paint6_linear_13_4040" x1="104.134" y1="17.1037" x2="110.968" y2="17.1037" gradientUnits="userSpaceOnUse">
<stop stop-color="#DA2128"/>
<stop offset="0.1434" stop-color="#E1392B"/>
<stop offset="0.3265" stop-color="#E9512E"/>
<stop offset="0.5214" stop-color="#EE622F"/>
<stop offset="0.7346" stop-color="#F16C31"/>
<stop offset="1" stop-color="#F26F31"/>
</linearGradient>
<linearGradient id="paint7_linear_13_4040" x1="0" y1="25.9831" x2="48.892" y2="25.9831" gradientUnits="userSpaceOnUse">
<stop stop-color="#DA2128"/>
<stop offset="0.1434" stop-color="#E1392B"/>
<stop offset="0.3265" stop-color="#E9512E"/>
<stop offset="0.5214" stop-color="#EE622F"/>
<stop offset="0.7346" stop-color="#F16C31"/>
<stop offset="1" stop-color="#F26F31"/>
</linearGradient>
<linearGradient id="paint8_linear_13_4040" x1="35.2189" y1="28.4741" x2="42.327" y2="28.4741" gradientUnits="userSpaceOnUse">
<stop stop-color="#DA2128"/>
<stop offset="0.1434" stop-color="#E1392B"/>
<stop offset="0.3265" stop-color="#E9512E"/>
<stop offset="0.5214" stop-color="#EE622F"/>
<stop offset="0.7346" stop-color="#F16C31"/>
<stop offset="1" stop-color="#F26F31"/>
</linearGradient>
</defs>
</svg>
