<svg width="115" height="59" viewBox="0 0 115 59" fill="none" xmlns="http://www.w3.org/2000/svg">
<path d="M101.201 22.2939C98.69 22.2939 97.2049 23.3735 96.2599 24.6421V23.6704C96.2599 23.1306 95.8279 22.6988 95.2878 22.6988H91.0757C90.3466 22.6988 89.7796 23.2656 89.7796 23.9943V39.5405C89.7796 40.2692 90.3466 40.836 91.0757 40.836H94.9638C95.6929 40.836 96.2599 40.2692 96.2599 39.5405V31.0657C96.2599 29.6352 97.2319 28.5556 98.825 28.5556C100.391 28.5556 101.39 29.6352 101.39 31.0657V39.5405C101.39 40.2692 101.957 40.836 102.632 40.836H106.52C107.249 40.836 107.816 40.2692 107.816 39.5405V29.5003C107.843 26.8552 106.898 22.2939 101.201 22.2939ZM82.0302 23.8054L79.0331 33.2519L76.036 23.8054C75.82 23.1576 75.2259 22.6988 74.5239 22.6988H70.2577C69.5827 22.6988 69.1236 23.3735 69.3666 24.0213L75.5229 39.8374C75.7389 40.4582 76.333 40.836 76.981 40.836H81.0582C81.7062 40.836 82.3003 40.4312 82.5703 39.8374L88.6725 24.0213C88.9156 23.3735 88.4565 22.6988 87.7815 22.6988H83.5423C82.8403 22.6988 82.2193 23.1846 82.0302 23.8054Z" fill="#133C8A"/>
<path d="M66.693 33.5753C64.6409 33.5753 63.0479 35.2217 63.0479 37.219C63.0479 39.2162 64.6409 40.8626 66.693 40.8626C68.6911 40.8626 70.3382 39.2162 70.3382 37.219C70.3112 35.1947 68.6911 33.5753 66.693 33.5753Z" fill="url(#paint0_linear_13_6820)"/>
<path d="M114.026 20.1614L103.199 20.1614C102.767 20.1614 102.416 19.8105 102.416 19.3787C102.416 18.9468 102.767 18.5959 103.199 18.5959L114.026 18.5959C114.458 18.5959 114.809 18.9468 114.809 19.3787C114.809 19.8105 114.458 20.1614 114.026 20.1614Z" fill="url(#paint1_linear_13_6820)"/>
<path d="M109.57 18.083H107.681C107.249 18.083 106.898 17.7321 106.898 17.3003C106.898 16.8684 107.249 16.5176 107.681 16.5176H109.57C110.002 16.5176 110.353 16.8684 110.353 17.3003C110.353 17.7321 110.002 18.083 109.57 18.083Z" fill="url(#paint2_linear_13_6820)"/>
<path d="M108.625 16.0318C108.193 16.0318 107.842 15.681 107.842 15.2491C107.842 14.8173 108.193 14.4664 108.625 14.4664C109.057 14.4664 109.408 14.8173 109.408 15.2491C109.381 15.681 109.057 16.0318 108.625 16.0318Z" fill="url(#paint3_linear_13_6820)"/>
<path d="M109.705 24.291H111.594C112.026 24.291 112.377 23.9401 112.377 23.5083C112.377 23.0765 112.026 22.7256 111.594 22.7256H109.705C109.273 22.7256 108.922 23.0765 108.922 23.5083C108.922 23.9401 109.273 24.291 109.705 24.291Z" fill="url(#paint4_linear_13_6820)"/>
<path d="M112.27 26.3421C112.701 26.3421 113.052 25.9913 113.052 25.5594C113.052 25.1276 112.701 24.7767 112.27 24.7767C111.838 24.7767 111.487 25.1276 111.487 25.5594C111.487 25.9913 111.838 26.3421 112.27 26.3421Z" fill="url(#paint5_linear_13_6820)"/>
<path d="M110.919 22.2126H106.302C105.87 22.2126 105.519 21.8618 105.519 21.4299C105.519 20.9981 105.87 20.6472 106.302 20.6472H110.919C111.351 20.6472 111.702 20.9981 111.702 21.4299C111.702 21.8618 111.351 22.2126 110.919 22.2126Z" fill="url(#paint6_linear_13_6820)"/>
<path d="M58.9435 27.3949C58.8895 27.4759 58.8355 27.5568 58.7545 27.6108L52.1392 35.087H58.2414C58.3224 35.087 58.4035 35.087 58.4845 35.114C58.8355 33.3057 59.0245 31.4164 59.0245 29.5001C59.0245 28.7984 58.9975 28.0966 58.9435 27.3949Z" fill="#F26F31"/>
<path d="M22.3298 28.5286C20.4398 28.5286 19.1167 29.8511 19.1167 31.7674C19.1167 33.6567 20.4398 34.9792 22.3298 34.9792C24.3279 34.9792 25.57 33.6297 25.57 31.7674C25.57 29.8781 24.3009 28.5286 22.3298 28.5286Z" fill="url(#paint7_linear_13_6820)"/>
<path d="M45.1461 40.7818C44.4711 40.7818 43.904 40.215 43.904 39.4863V36.9222C43.904 36.5174 44.039 36.1665 44.3091 35.8966L50.9244 28.4204H45.4701C44.7951 28.4204 44.2281 27.8536 44.2281 27.1789V24.021C44.2281 23.3193 44.7951 22.7255 45.4701 22.7255H57.8907C57.9987 22.7255 58.1337 22.7525 58.2417 22.7795C55.1906 9.74337 43.472 0 29.5124 0C12.9606 0 0 13.2521 0 29.5C0 45.7479 12.9606 59 29.5124 59C41.7709 59 52.3284 51.4698 56.7566 40.7818H45.1461ZM23.6261 41.2136C21.412 41.2136 19.9269 40.5119 18.9009 39.3243V39.8102C18.9009 40.35 18.4689 40.7818 17.9288 40.7818H13.7706C13.0686 40.7818 12.4746 40.215 12.4746 39.4863V17.1386C12.4746 16.4369 13.0416 15.8431 13.7706 15.8431L17.6588 15.8431C18.3339 15.8431 18.9009 16.4099 18.9009 17.1386V24.183C19.9269 23.0494 21.439 22.2937 23.6261 22.2937C29.2154 22.2937 31.9965 27.0439 31.9965 31.7672C31.9965 36.4634 29.2154 41.2136 23.6261 41.2136ZM40.9069 39.5133C40.9069 40.215 40.3399 40.8088 39.6648 40.8088H35.7767C35.0746 40.8088 34.4806 40.242 34.4806 39.5133V24.021C34.4806 23.3193 35.0476 22.7255 35.7767 22.7255H39.6648C40.3399 22.7255 40.9069 23.2923 40.9069 24.021V39.5133ZM37.7207 21.0252C35.9117 21.0252 34.3996 19.5407 34.3996 17.6784C34.3996 15.8161 35.8847 14.3317 37.7207 14.3317C39.5838 14.3317 41.0689 15.8161 41.0689 17.6784C41.0689 19.5137 39.5568 21.0252 37.7207 21.0252Z" fill="url(#paint8_linear_13_6820)"/>
<defs>
<linearGradient id="paint0_linear_13_6820" x1="63.0398" y1="37.2048" x2="70.3205" y2="37.2048" gradientUnits="userSpaceOnUse">
<stop stop-color="#DA2128"/>
<stop offset="0.1434" stop-color="#E1392B"/>
<stop offset="0.3265" stop-color="#E9512E"/>
<stop offset="0.5214" stop-color="#EE622F"/>
<stop offset="0.7346" stop-color="#F16C31"/>
<stop offset="1" stop-color="#F26F31"/>
</linearGradient>
<linearGradient id="paint1_linear_13_6820" x1="102.413" y1="19.375" x2="114.814" y2="19.375" gradientUnits="userSpaceOnUse">
<stop stop-color="#DA2128"/>
<stop offset="0.1434" stop-color="#E1392B"/>
<stop offset="0.3265" stop-color="#E9512E"/>
<stop offset="0.5214" stop-color="#EE622F"/>
<stop offset="0.7346" stop-color="#F16C31"/>
<stop offset="1" stop-color="#F26F31"/>
</linearGradient>
<linearGradient id="paint2_linear_13_6820" x1="106.902" y1="17.3094" x2="110.347" y2="17.3094" gradientUnits="userSpaceOnUse">
<stop stop-color="#DA2128"/>
<stop offset="0.1434" stop-color="#E1392B"/>
<stop offset="0.3265" stop-color="#E9512E"/>
<stop offset="0.5214" stop-color="#EE622F"/>
<stop offset="0.7346" stop-color="#F16C31"/>
<stop offset="1" stop-color="#F26F31"/>
</linearGradient>
<linearGradient id="paint3_linear_13_6820" x1="107.854" y1="15.2439" x2="109.394" y2="15.2439" gradientUnits="userSpaceOnUse">
<stop stop-color="#DA2128"/>
<stop offset="0.1434" stop-color="#E1392B"/>
<stop offset="0.3265" stop-color="#E9512E"/>
<stop offset="0.5214" stop-color="#EE622F"/>
<stop offset="0.7346" stop-color="#F16C31"/>
<stop offset="1" stop-color="#F26F31"/>
</linearGradient>
<linearGradient id="paint4_linear_13_6820" x1="108.921" y1="23.5063" x2="112.366" y2="23.5063" gradientUnits="userSpaceOnUse">
<stop stop-color="#DA2128"/>
<stop offset="0.1434" stop-color="#E1392B"/>
<stop offset="0.3265" stop-color="#E9512E"/>
<stop offset="0.5214" stop-color="#EE622F"/>
<stop offset="0.7346" stop-color="#F16C31"/>
<stop offset="1" stop-color="#F26F31"/>
</linearGradient>
<linearGradient id="paint5_linear_13_6820" x1="111.482" y1="25.5717" x2="113.031" y2="25.5717" gradientUnits="userSpaceOnUse">
<stop stop-color="#DA2128"/>
<stop offset="0.1434" stop-color="#E1392B"/>
<stop offset="0.3265" stop-color="#E9512E"/>
<stop offset="0.5214" stop-color="#EE622F"/>
<stop offset="0.7346" stop-color="#F16C31"/>
<stop offset="1" stop-color="#F26F31"/>
</linearGradient>
<linearGradient id="paint6_linear_13_6820" x1="105.512" y1="21.4406" x2="111.712" y2="21.4406" gradientUnits="userSpaceOnUse">
<stop stop-color="#DA2128"/>
<stop offset="0.1434" stop-color="#E1392B"/>
<stop offset="0.3265" stop-color="#E9512E"/>
<stop offset="0.5214" stop-color="#EE622F"/>
<stop offset="0.7346" stop-color="#F16C31"/>
<stop offset="1" stop-color="#F26F31"/>
</linearGradient>
<linearGradient id="paint7_linear_13_6820" x1="19.1101" y1="31.7566" x2="25.5585" y2="31.7566" gradientUnits="userSpaceOnUse">
<stop stop-color="#DA2128"/>
<stop offset="0.1434" stop-color="#E1392B"/>
<stop offset="0.3265" stop-color="#E9512E"/>
<stop offset="0.5214" stop-color="#EE622F"/>
<stop offset="0.7346" stop-color="#F16C31"/>
<stop offset="1" stop-color="#F26F31"/>
</linearGradient>
<linearGradient id="paint8_linear_13_6820" x1="0.00596728" y1="29.4965" x2="58.25" y2="29.4965" gradientUnits="userSpaceOnUse">
<stop stop-color="#DA2128"/>
<stop offset="0.1434" stop-color="#E1392B"/>
<stop offset="0.3265" stop-color="#E9512E"/>
<stop offset="0.5214" stop-color="#EE622F"/>
<stop offset="0.7346" stop-color="#F16C31"/>
<stop offset="1" stop-color="#F26F31"/>
</linearGradient>
</defs>
</svg>
