<?xml version="1.0" encoding="utf-8"?>
<!-- Generator: Adobe Illustrator 27.7.0, SVG Export Plug-In . SVG Version: 6.00 Build 0)  -->
<svg version="1.1" id="Layer_1" xmlns="http://www.w3.org/2000/svg" xmlns:xlink="http://www.w3.org/1999/xlink" x="0px" y="0px"
	 viewBox="0 0 100 100" style="enable-background:new 0 0 100 100;" xml:space="preserve">
<style type="text/css">
	.st0{clip-path:url(#SVGID_00000121983261385029839620000009412448269289755281_);}
	.st1{fill:#0AA44A;}
	.st2{fill:#0F8342;}
	.st3{fill:#FBE795;}
	.st4{fill:#DEBA6C;}
	.st5{fill:#FFFFFF;}
	.st6{opacity:8.000000e-02;enable-background:new    ;}
	.st7{clip-path:url(#SVGID_00000041978895746383733040000010468270380707095215_);}
	.st8{clip-path:url(#SVGID_00000138554568820320016240000010513863206000842175_);}
	.st9{clip-path:url(#SVGID_00000164473396256312829160000016846988342781480868_);fill:#FFFFFF;}
	.st10{clip-path:url(#SVGID_00000032611810999678266470000004995426477132228783_);}
	.st11{clip-path:url(#SVGID_00000089572229910121683470000003086137440951860629_);}
	.st12{clip-path:url(#SVGID_00000005952685258194977410000009760097144123526567_);}
	.st13{clip-path:url(#SVGID_00000075131030846096408340000002683349739761727628_);}
	.st14{clip-path:url(#SVGID_00000176003546189696455080000012473179984801803924_);}
	.st15{clip-path:url(#SVGID_00000124881260015776317840000016049587374413252027_);}
	.st16{clip-path:url(#SVGID_00000092420629123807089500000013678426527169445821_);}
	.st17{clip-path:url(#SVGID_00000049941788815073120900000014058815446718549398_);}
	.st18{clip-path:url(#SVGID_00000144312723655454446340000008762435386168474281_);}
	.st19{clip-path:url(#SVGID_00000131347247649911864840000011181007552754930580_);}
	.st20{clip-path:url(#SVGID_00000006670514634075259540000013066536020562441635_);}
	.st21{clip-path:url(#SVGID_00000181772242723249603460000017821560705555901365_);}
	.st22{clip-path:url(#SVGID_00000018214644383434884140000004758642356184226979_);}
	.st23{clip-path:url(#SVGID_00000042706680163774380000000009021413525261377437_);}
	.st24{clip-path:url(#SVGID_00000026145805051216013010000000905811075394868926_);}
	.st25{clip-path:url(#SVGID_00000139263618358795045240000001136317234248178363_);}
	.st26{fill:#50E2E2;}
	.st27{fill:#5DE6ED;}
	.st28{fill:#3EDDDD;}
	.st29{fill:#16725E;}
	.st30{fill:#D6D6D6;}
</style>
<g>
	<defs>
		<rect id="SVGID_1_" x="11.7" y="13" width="81.2" height="86.6"/>
	</defs>
	<clipPath id="SVGID_00000028297795076173173140000015456734695398287025_">
		<use xlink:href="#SVGID_1_"  style="overflow:visible;"/>
	</clipPath>
	<g style="clip-path:url(#SVGID_00000028297795076173173140000015456734695398287025_);">
		<path class="st1" d="M34.4,25.5c0,0,5.5-2.4,14.9-2.7c0,0,10.5-0.1,15.4,3.6c0,0,5.7,2.4,7.3,8.2c0,0,2.9,7,3.6,12.6
			c0,0,4.3,16.2-0.7,22.9c0,0-1.5,2.7-5.8,4c0,0-8.8,3.9-20.1,4.1c0,0-9.2,0.7-20.4-4c0,0-6.2-2.6-7.3-8.5c0,0-0.1-13.4,2.2-23.4
			C23.3,42.2,24.4,28,34.4,25.5"/>
		<path class="st2" d="M25.7,55.8c0,0-1.3-18.9,4.3-25.2c0,0,5.7-8.8,28.1-5.3c0,0,7.4,1.5,9.8,6c0,0,6.2,11.8,5.1,23.3L25.7,55.8z"
			/>
		<path class="st3" d="M30.4,46.4c0,0-3.4-4.5,1-6.5c0,0,3.6-2.4,7.1,1.8c0,0,9.7-3.2,22.4-0.4c0,0,2.5-3.7,7-1.5c0,0,3.8,2,1.3,6.2
			c0,0,4.3,2.4,4.5,12.2c0,0,1.4,11.8-5.6,14.2c0,0-8.9,3.3-17.4,2.9c0,0-13.6,0.5-20.4-2.9c0,0-4.6-3.7-4.6-5.9
			C25.7,66.5,24.9,50.5,30.4,46.4"/>
		<path class="st4" d="M32.6,70c0,0-4.8-7.2-2.8-14.6c0,0,0-10.3,12.3-12.3c0,0,10.6-3.5,22.1,1.9c0,0,4.2,1.5,5,8.9
			c0,0,1.4,12.2-3.1,16.1c0,0-9.2,3.3-16.7,2.5C49.4,72.4,34.7,72.5,32.6,70"/>
		<path class="st2" d="M27.4,83.3c0,0-4.8,7.1-3.1,22.5c0,0,3.3,12.9,6.3,19l3.1,7.1c0,0,7.9,0.1,8.3,0l2.5-6c0,0,5.1,1.3,9.8,0.1
			l2.4,5.9c0,0,5.3,0.7,8.5,0c0,0,5.5-13.6,5.8-14.9c0,0,3.7-8.2,3.6-18.8c0,0-0.7-20.3-10.7-24.1c0,0-16.5,3.7-27.8,0.7
			C36.2,74.8,28.6,79.9,27.4,83.3"/>
		<path class="st1" d="M45.2,122.5c0,0-12.5-2.3-16-19c0,0-0.7-13.6,4-19.1c0,0,5.1-10,20.6-7.6c0,0,11.4,1.9,14.6,14.9
			c0,0,4.3,15.8-6.6,26.3C61.8,118,54.9,124.7,45.2,122.5"/>
		<g>
			<path class="st5" d="M49,109.6c-1.6,0-3.2-0.3-4.6-0.9c-1.5-0.6-2.8-1.5-3.9-2.6c-1.1-1.1-2-2.4-2.6-3.8c-0.6-1.4-1-3-1-4.7
				c0-1.6,0.3-3.2,0.9-4.7c0.6-1.5,1.5-2.8,2.6-3.9c1.1-1.1,2.4-2,3.8-2.7c1.4-0.7,3-1,4.7-1c0,0,0.1,0,0.1,0c1.6,0,3.2,0.3,4.6,0.9
				c1.5,0.6,2.8,1.5,3.9,2.6c1.1,1.1,2,2.4,2.6,3.8c0.7,1.5,1,3,1,4.7c0,1.7-0.3,3.3-0.9,4.7c-0.6,1.5-1.5,2.8-2.6,3.9
				c-1.1,1.1-2.4,2-3.8,2.6C52.3,109.3,50.7,109.6,49,109.6C49,109.6,49,109.6,49,109.6 M48.9,86.2C48.9,86.2,48.9,86.2,48.9,86.2
				c-1.6,0-3.1,0.3-4.5,0.9c-1.4,0.6-2.6,1.5-3.6,2.5c-1,1-1.8,2.3-2.4,3.7c-0.6,1.4-0.9,2.8-0.9,4.4c0,1.6,0.3,3.1,0.9,4.4
				c0.6,1.4,1.4,2.6,2.5,3.6c1,1,2.3,1.8,3.6,2.4c1.4,0.6,2.9,0.9,4.4,0.8c1.5,0,3-0.3,4.4-0.9c1.4-0.6,2.6-1.4,3.6-2.5
				c1-1,1.8-2.3,2.4-3.6c0.6-1.4,0.9-2.9,0.9-4.4c0-1.5-0.3-3-0.9-4.4c-0.6-1.4-1.5-2.6-2.5-3.6c-1-1-2.3-1.9-3.6-2.4
				C51.9,86.5,50.5,86.2,48.9,86.2 M49,106.4c-1.2,0-2.3-0.2-3.3-0.7c-1.1-0.5-2-1.1-2.8-1.9c-0.8-0.8-1.4-1.7-1.9-2.8
				c-0.5-1.1-0.7-2.2-0.7-3.4c0-1.2,0.2-2.4,0.6-3.4c0.4-1.1,1.1-2,1.8-2.8c0.8-0.8,1.7-1.4,2.7-1.9c1.1-0.5,2.2-0.7,3.4-0.7
				c1.2,0,2.3,0.2,3.4,0.7c1,0.5,2,1.1,2.8,1.9c0.8,0.8,1.4,1.7,1.9,2.8c0.5,1.1,0.7,2.2,0.7,3.4c0,1.2-0.2,2.4-0.6,3.5
				c-0.4,1.1-1.1,2-1.8,2.8c-0.8,0.8-1.7,1.4-2.7,1.9C51.4,106.1,50.3,106.4,49,106.4C49.1,106.4,49.1,106.4,49,106.4 M49,89.5
				C49,89.5,48.9,89.5,49,89.5c-1.1,0-2.2,0.2-3.1,0.7c-1,0.4-1.8,1-2.5,1.8c-0.7,0.7-1.3,1.6-1.7,2.6c-0.4,1-0.6,2.1-0.6,3.2
				c0,1.1,0.2,2.2,0.6,3.1c0.4,1,1,1.8,1.7,2.5c0.7,0.7,1.6,1.3,2.6,1.7c1,0.4,2,0.6,3.1,0.6c1.1,0,2.1-0.2,3.1-0.7
				c1-0.4,1.8-1,2.5-1.8c0.7-0.7,1.3-1.6,1.7-2.6c0.4-1,0.6-2,0.6-3.2c0-1.1-0.2-2.2-0.6-3.1c-0.4-1-1-1.8-1.7-2.5
				c-0.7-0.7-1.6-1.3-2.5-1.7C51.1,89.7,50,89.5,49,89.5"/>
			<path class="st5" d="M40.7,97.9c0,1.2,0.2,2.3,0.7,3.3c0.4,1,1,1.9,1.8,2.7c0.8,0.8,1.7,1.3,2.7,1.8c1,0.4,2.1,0.6,3.2,0.6
				c1.1,0,2.2-0.2,3.2-0.7c1-0.5,1.9-1.1,2.6-1.8c0.7-0.8,1.3-1.7,1.8-2.7c0.4-1,0.6-2.1,0.6-3.3c0-1.2-0.2-2.3-0.7-3.3
				c-0.4-1-1-1.9-1.8-2.7C54,91,53.1,90.4,52.1,90c-1-0.4-2.1-0.6-3.2-0.6c-1.1,0-2.2,0.2-3.2,0.7c-1,0.5-1.9,1.1-2.6,1.8
				c-0.7,0.8-1.3,1.7-1.7,2.7C40.9,95.6,40.7,96.7,40.7,97.9"/>
			<path class="st1" d="M54.8,97.6c0-0.2,0.1-0.5,0.1-0.7c0-1.9-1.6-3.4-3.5-3.4c-1.4,0-2.6,0.9-3.2,2.1c-0.4-0.3-0.9-0.4-1.4-0.4
				c-1.4,0-2.5,1.1-2.6,2.4c-0.7,0.3-1.3,1.1-1.3,2c0,1.2,1,2.2,2.2,2.2l3.1,0c0.2,0,0.2-0.2,0.2-0.2l0-1.4c0-0.1-0.1-0.2-0.2-0.2
				l-0.6,0c-0.1,0-0.2-0.1-0.1-0.2l1.8-2.4c0.1-0.1,0.2-0.1,0.3,0l1.8,2.4c0.1,0.1,0,0.2-0.1,0.2l-0.6,0c-0.1,0-0.2,0.1-0.2,0.2
				l0,1.4c0,0,0,0.2,0.2,0.2l3.1,0c1.2,0,2.2-1,2.2-2.2C55.9,98.6,55.5,97.9,54.8,97.6"/>
		</g>
		<g class="st6">
			<g>
				<defs>
					<rect id="SVGID_00000143597506853389569450000004827406395752043955_" x="28" y="81.5" width="36" height="40.5"/>
				</defs>
				<clipPath id="SVGID_00000086683679269980383210000018094560879879268484_">
					<use xlink:href="#SVGID_00000143597506853389569450000004827406395752043955_"  style="overflow:visible;"/>
				</clipPath>
				<g style="clip-path:url(#SVGID_00000086683679269980383210000018094560879879268484_);">
					<defs>
						
							<rect id="SVGID_00000010991591091685809890000012704104880856128161_" x="31.8" y="83.1" transform="matrix(0.581 -0.8139 0.8139 0.581 -63.8339 80.0554)" width="28" height="37.8"/>
					</defs>
					<clipPath id="SVGID_00000016049920870636757610000012595486590832027311_">
						<use xlink:href="#SVGID_00000010991591091685809890000012704104880856128161_"  style="overflow:visible;"/>
					</clipPath>
					<g style="clip-path:url(#SVGID_00000016049920870636757610000012595486590832027311_);">
						<defs>
							<rect id="SVGID_00000148631640416609950180000000893301673675820979_" x="22" y="79.3" width="48" height="45.8"/>
						</defs>
						<clipPath id="SVGID_00000119816786988825045240000014478718667206762641_">
							<use xlink:href="#SVGID_00000148631640416609950180000000893301673675820979_"  style="overflow:visible;"/>
						</clipPath>
						<path style="clip-path:url(#SVGID_00000119816786988825045240000014478718667206762641_);fill:#FFFFFF;" d="M57.4,117.6
							c-5.9,4.4-15.9,1-22.2-7.6c-6.4-8.6-6.8-19.1-0.9-23.5c5.9-4.4,15.9-1,22.2,7.6C62.9,102.7,63.3,113.2,57.4,117.6"/>
					</g>
				</g>
			</g>
		</g>
		<g>
			<path class="st5" d="M64.8,28.6c-0.6-0.7-1.3-1-2-1.2c-0.8-0.2-1.7-0.4-2.5-0.7c-0.7-0.2-1.4-0.1-2.1,0.1c-1.3,0.6-2.6,1.1-4,1.7
				c-1.6,0.7-3.2,1.4-4.8,2c-0.6,0.2-1.2,0.4-1.8,0.6c0-0.7-0.1-1.2-0.1-1.8c-0.5-0.2-0.6,0.2-0.6,0.5c0.2,1.2,0.2,2.5,0.6,3.6
				c1.3,3.3,5.1,5,8.7,3.9c3.2-1,5.2-3.8,4.9-7c-0.1-0.6-0.3-1.2-0.4-1.9C62.1,27.9,63.4,28.5,64.8,28.6z M46.1,31.6
				c-1.2-0.4-2.3-0.7-3.4-1.2c-1.6-0.6-3.1-1.3-4.6-2c-1.5-0.7-1.7-0.6-3,0.3c-0.6,0.5-1.3,0.9-1.9,1.4c0.5,0.1,0.9,0.1,1.4,0.1
				c0.5,0.1,0.9,0.2,1.3,0.5c0.2,0.1,0.1,0.6,0.1,0.9c0,0.1,0,0.1,0,0.2c0.1,2.2,1.2,3.7,3.1,4.6c1.9,0.9,3.9,0.7,5.6-0.6
				c2.1-1.6,2.1-3.9,2-6.2c0-0.1-0.2-0.2-0.3-0.3c0,0-0.1,0.1-0.1,0.1C46.1,30.1,46.1,30.8,46.1,31.6z"/>
			<path d="M64.8,28.6c-1.4-0.1-2.7-0.7-4-0.1c0.1,0.6,0.3,1.3,0.4,1.9c0.3,3.2-1.7,6.1-4.9,7c-3.6,1.1-7.4-0.6-8.7-3.9
				c-0.4-1.1-0.4-2.4-0.6-3.6c0-0.3,0-0.7,0.6-0.5c0,0.5,0.1,1.1,0.1,1.8c0.6-0.2,1.2-0.4,1.8-0.6c1.6-0.7,3.2-1.4,4.8-2
				c1.3-0.6,2.6-1.1,4-1.7c0.7-0.3,1.3-0.4,2.1-0.1c0.8,0.3,1.7,0.4,2.5,0.7C63.5,27.5,64.2,27.9,64.8,28.6z M48,32.8
				c1,2.5,2.9,3.9,5.6,4.2c2.5,0.3,4.7-0.7,6.1-2.9c1.1-1.7,1.3-3.5,0.6-5.3c-1.7,0.7-3.3,1.5-5,2.2c0.1,1-0.2,1.5-0.7,1.7
				c-0.6,0.2-1.1,0.1-1.8-0.7c-0.1-0.1-0.4-0.2-0.6-0.1C50.8,32.2,49.4,32.5,48,32.8z"/>
			<path d="M46.1,31.6c0-0.8,0-1.5,0-2.2c0,0,0.1-0.1,0.1-0.1c0.1,0.1,0.3,0.2,0.3,0.3c0.2,2.3,0.1,4.6-2,6.2
				c-1.7,1.3-3.6,1.5-5.6,0.6c-1.9-0.9-3-2.4-3.1-4.6c0-0.1,0-0.1,0-0.2c0-0.3,0.1-0.8-0.1-0.9c-0.4-0.3-0.9-0.4-1.3-0.5
				c-0.4-0.1-0.9,0-1.4-0.1c0.6-0.5,1.3-0.9,1.9-1.4c1.4-1,1.5-1,3-0.3c1.5,0.7,3.1,1.4,4.6,2C43.8,30.8,44.9,31.2,46.1,31.6z
				 M45.1,32.4c0,0.1-0.1,0.2-0.1,0.2c-0.2,0.5-0.5,0.8-1.1,0.8c-0.6-0.1-0.8-0.4-0.9-0.9c0-0.1-0.3-0.3-0.4-0.3
				c-1.5-0.3-3-0.6-4.4-1c-0.5-0.1-1.1-0.2-1.6-0.3c-0.6,2.2,1.3,4.9,3.8,5.5c2.6,0.6,5.2-1.2,5.7-3.9
				C45.7,32.5,45.4,32.4,45.1,32.4z"/>
			<path class="st5" d="M48,32.8c1.5-0.3,2.8-0.6,4.2-0.9c0.2,0,0.5,0,0.6,0.1c0.7,0.8,1.1,0.9,1.8,0.7c0.5-0.2,0.8-0.7,0.7-1.7
				c1.6-0.7,3.3-1.4,5-2.2c0.7,1.8,0.5,3.6-0.6,5.3c-1.4,2.2-3.5,3.2-6.1,2.9C50.9,36.7,49,35.3,48,32.8z"/>
			<path class="st5" d="M45.1,32.4c0.3,0,0.6,0.1,0.9,0.1c-0.5,2.7-3.1,4.5-5.7,3.9c-2.5-0.6-4.4-3.2-3.8-5.5
				c0.5,0.1,1.1,0.2,1.6,0.3c1.5,0.3,3,0.6,4.4,1c0.2,0,0.4,0.2,0.4,0.3c0.1,0.5,0.4,0.9,0.9,0.9c0.6,0.1,0.9-0.3,1.1-0.8
				C45,32.5,45.1,32.5,45.1,32.4z"/>
		</g>
		<path class="st5" d="M47,64.4c0,0-3.8-1.2-3.9-1.5c-0.1-0.3-1.1-3-1.1-3l5.9,0.9l4.8-0.9l3.8-1l-0.3,1.7l-1.5,2.6l-7.4,1.3H47z"/>
		<g>
			<path d="M58.4,56.3c0.8-0.1,1.2,0.2,1.4,1.1c-0.4-0.6-0.7-0.4-1.1-0.1c-0.9,0.6-1.3,1.4-1.7,2.3c-1.3,3.1-3.4,5.3-6.8,5.9
				c-3.9,0.7-7.4-1.2-8.8-4.9c-0.4-1-0.8-1.9-1.6-2.6c-0.2-0.2-0.4-0.5-0.6-0.7c-0.3-0.5-0.6-0.8-1,0.1c0.1-1,0.5-1.3,1.5-1.2
				c-0.5,0.3-0.6,0.6-0.3,1c1,1.4,2.2,2.4,3.9,2.7c4.7,0.8,9.3,0.6,13.6-1.8c0.6-0.3,1.1-0.7,1.6-1.1C59.1,56.8,59.1,56.5,58.4,56.3
				z M42.6,60.2c0.2,0.8,0.8,1.3,1.2,2c0.3,0.5,0.6,0.6,0.9,0c0.3-0.6,0.7-0.7,1.4-0.5c2.1,0.5,4.2,0.5,6.2,0
				c0.7-0.2,1.2-0.2,1.7,0.4c0.2,0.2,0.4,0.4,0.7,0c0.5-0.9,0.9-1.9,1.2-2.9C51.5,60.8,47.2,61.2,42.6,60.2z"/>
			<path d="M53.6,65.5c-1.7,2.7-6.8,2.8-8.9,0.2c1.6,1,3,1.6,4.7,1.6C51,67.3,52.4,66.5,53.6,65.5z"/>
		</g>
		<g>
			<defs>
				<path id="SVGID_00000143577788011667873200000008182612991771115925_" d="M32.9,98.5l-5.2,7.1c0,0,10.8,4.1,11,3.9
					c0,0,1.6-0.1-0.2-2.6l-1.6-1.9c0,0,3.6,2.5,4.4,1.3c0,0,0.2-1.8-0.9-3.1L32.9,98.5z"/>
			</defs>
			<clipPath id="SVGID_00000105408041955284933080000018011005183419989691_">
				<use xlink:href="#SVGID_00000143577788011667873200000008182612991771115925_"  style="overflow:visible;"/>
			</clipPath>
			<g style="clip-path:url(#SVGID_00000105408041955284933080000018011005183419989691_);">
				<g>
					<defs>
						
							<rect id="SVGID_00000108279048562226727290000010267028523661324210_" x="25.7" y="95.2" transform="matrix(0.7529 -0.6582 0.6582 0.7529 -59.8816 48.4262)" width="17.7" height="17.5"/>
					</defs>
					<clipPath id="SVGID_00000075846869035133664010000000068097492756690065_">
						<use xlink:href="#SVGID_00000108279048562226727290000010267028523661324210_"  style="overflow:visible;"/>
					</clipPath>
					<g style="clip-path:url(#SVGID_00000075846869035133664010000000068097492756690065_);">
						<defs>
							
								<rect id="SVGID_00000022546629409909004890000000593223202614220164_" x="17" y="86.4" transform="matrix(0.7528 -0.6583 0.6583 0.7528 -59.8902 48.4406)" width="35.1" height="35.1"/>
						</defs>
						<clipPath id="SVGID_00000169560115415211935470000002001786358376275359_">
							<use xlink:href="#SVGID_00000022546629409909004890000000593223202614220164_"  style="overflow:visible;"/>
						</clipPath>
						<g style="clip-path:url(#SVGID_00000169560115415211935470000002001786358376275359_);">
							
								<image style="overflow:visible;" width="207" height="207" xlink:href="5673987BD122B4C3.jpg"  transform="matrix(0.24 0 0 0.24 9.6 79.12)">
							</image>
						</g>
					</g>
				</g>
			</g>
		</g>
		<g>
			<defs>
				<path id="SVGID_00000060710442637500682640000009250856191550963872_" d="M63.1,42.9c0,0,1.2,2.2,3.6,0.7c0,0,2-1.2,0.4-3.2
					c-0.1-0.2-0.3-0.3-0.4-0.4C64.9,38.9,62.4,40.8,63.1,42.9"/>
			</defs>
			<clipPath id="SVGID_00000128466774165614364520000018089853723117765048_">
				<use xlink:href="#SVGID_00000060710442637500682640000009250856191550963872_"  style="overflow:visible;"/>
			</clipPath>
			<g style="clip-path:url(#SVGID_00000128466774165614364520000018089853723117765048_);">
				<g>
					<defs>
						
							<rect id="SVGID_00000013913355355976496970000002648291174298311552_" x="61.1" y="37.6" transform="matrix(0.8418 -0.5397 0.5397 0.8418 -12.2742 41.9541)" width="8.6" height="8.6"/>
					</defs>
					<clipPath id="SVGID_00000137116022044153984230000001072306341585545372_">
						<use xlink:href="#SVGID_00000013913355355976496970000002648291174298311552_"  style="overflow:visible;"/>
					</clipPath>
					<g style="clip-path:url(#SVGID_00000137116022044153984230000001072306341585545372_);">
						<defs>
							
								<rect id="SVGID_00000152222041224618356230000004775865404829616772_" x="57.2" y="33.7" transform="matrix(0.8418 -0.5398 0.5398 0.8418 -12.2741 41.9599)" width="16.5" height="16.5"/>
						</defs>
						<clipPath id="SVGID_00000024720920154403324230000017155853378629728898_">
							<use xlink:href="#SVGID_00000152222041224618356230000004775865404829616772_"  style="overflow:visible;"/>
						</clipPath>
						<g style="clip-path:url(#SVGID_00000024720920154403324230000017155853378629728898_);">
							
								<image style="overflow:visible;" width="96" height="96" xlink:href="5673987BD122B4C1.jpg"  transform="matrix(0.24 0 0 0.24 54 30.4)">
							</image>
						</g>
					</g>
				</g>
			</g>
		</g>
		<g>
			<defs>
				<path id="SVGID_00000109009459049229888170000010873760419504365199_" d="M30.9,43.2c0,0,1.2,2.2,3.6,0.7c0,0,2-1.2,0.4-3.2
					c-0.1-0.2-0.3-0.3-0.4-0.4C32.8,39.2,30.3,41.1,30.9,43.2"/>
			</defs>
			<clipPath id="SVGID_00000111895988895709582040000002802054547917158790_">
				<use xlink:href="#SVGID_00000109009459049229888170000010873760419504365199_"  style="overflow:visible;"/>
			</clipPath>
			<g style="clip-path:url(#SVGID_00000111895988895709582040000002802054547917158790_);">
				<g>
					<defs>
						
							<rect id="SVGID_00000165932679077885098680000010317824051451287474_" x="29" y="37.9" transform="matrix(0.8418 -0.5397 0.5397 0.8418 -17.5182 24.6532)" width="8.6" height="8.6"/>
					</defs>
					<clipPath id="SVGID_00000173870801746255947890000008060229707957320580_">
						<use xlink:href="#SVGID_00000165932679077885098680000010317824051451287474_"  style="overflow:visible;"/>
					</clipPath>
					<g style="clip-path:url(#SVGID_00000173870801746255947890000008060229707957320580_);">
						<defs>
							
								<rect id="SVGID_00000103972835320816575530000007348471492363786925_" x="25.1" y="34" transform="matrix(0.8418 -0.5398 0.5398 0.8418 -17.5194 24.657)" width="16.5" height="16.5"/>
						</defs>
						<clipPath id="SVGID_00000054246936808407359250000016293020454984434058_">
							<use xlink:href="#SVGID_00000103972835320816575530000007348471492363786925_"  style="overflow:visible;"/>
						</clipPath>
						<g style="clip-path:url(#SVGID_00000054246936808407359250000016293020454984434058_);">
							
								<image style="overflow:visible;" width="96" height="96" xlink:href="5673987BD122B4C7.jpg"  transform="matrix(0.24 0 0 0.24 21.84 30.64)">
							</image>
						</g>
					</g>
				</g>
			</g>
		</g>
		<g>
			<defs>
				<path id="SVGID_00000079482780274472328110000015022178935908326584_" d="M20.5,92.3c0,0-0.2,7.1,7.8,12.7c0,0,2-5.7,6.6-5.2
					c0,0-12-6.5-0.6-17.4l-0.2-5.6C34.1,76.8,19.7,78.9,20.5,92.3"/>
			</defs>
			<clipPath id="SVGID_00000005979649171190880530000001708719070364097979_">
				<use xlink:href="#SVGID_00000079482780274472328110000015022178935908326584_"  style="overflow:visible;"/>
			</clipPath>
			<g style="clip-path:url(#SVGID_00000005979649171190880530000001708719070364097979_);">
				<g>
					<defs>
						
							<rect id="SVGID_00000034783294055718631620000011509158966921589916_" x="19.1" y="76.4" transform="matrix(0.9994 -3.419793e-02 3.419793e-02 0.9994 -3.0891 0.9838)" width="16.2" height="28.8"/>
					</defs>
					<clipPath id="SVGID_00000150817753634907555700000003070608533026038965_">
						<use xlink:href="#SVGID_00000034783294055718631620000011509158966921589916_"  style="overflow:visible;"/>
					</clipPath>
					<g style="clip-path:url(#SVGID_00000150817753634907555700000003070608533026038965_);">
						<defs>
							
								<rect id="SVGID_00000137832267155413023010000004565216048619782053_" x="18.1" y="75.9" transform="matrix(0.9994 -3.450989e-02 3.450989e-02 0.9994 -3.1172 0.9933)" width="18.2" height="29.9"/>
						</defs>
						<clipPath id="SVGID_00000096771506506533485590000015728406785024302215_">
							<use xlink:href="#SVGID_00000137832267155413023010000004565216048619782053_"  style="overflow:visible;"/>
						</clipPath>
						<g style="clip-path:url(#SVGID_00000096771506506533485590000015728406785024302215_);">
							
								<image style="overflow:visible;" width="81" height="128" xlink:href="5673987BD122B4C0.jpg"  transform="matrix(0.24 0 0 0.24 17.52 75.52)">
							</image>
						</g>
					</g>
				</g>
			</g>
		</g>
		<g>
			<defs>
				<path id="SVGID_00000128447617234314245160000018412167617070864817_" d="M65.1,74.9L66,85.5c11-0.1,0.4,12.4,0.4,12.4
					c4.5-0.8,6.9,4.7,6.9,4.7c7.6-6.1,6.9-13.2,6.9-13.2c-0.3-4.4-3.5-7.8-6.9-10.2C69.3,76.3,65.1,74.9,65.1,74.9"/>
			</defs>
			<clipPath id="SVGID_00000143589357763549432990000014396537896446484097_">
				<use xlink:href="#SVGID_00000128447617234314245160000018412167617070864817_"  style="overflow:visible;"/>
			</clipPath>
			<g style="clip-path:url(#SVGID_00000143589357763549432990000014396537896446484097_);">
				<g>
					<defs>
						
							<rect id="SVGID_00000129190538729681282470000006745403954249863837_" x="64.5" y="74.6" transform="matrix(0.9994 -3.419228e-02 3.419228e-02 0.9994 -2.9896 2.5445)" width="16.8" height="28.3"/>
					</defs>
					<clipPath id="SVGID_00000044161377385707658150000009885262085362351238_">
						<use xlink:href="#SVGID_00000129190538729681282470000006745403954249863837_"  style="overflow:visible;"/>
					</clipPath>
					<g style="clip-path:url(#SVGID_00000044161377385707658150000009885262085362351238_);">
						<defs>
							
								<rect id="SVGID_00000174589662749897858830000013322656253502330247_" x="63.6" y="74" transform="matrix(0.9994 -3.450977e-02 3.450977e-02 0.9994 -3.0169 2.5686)" width="18.7" height="29.4"/>
						</defs>
						<clipPath id="SVGID_00000119840210111485506100000014792086870897425327_">
							<use xlink:href="#SVGID_00000174589662749897858830000013322656253502330247_"  style="overflow:visible;"/>
						</clipPath>
						
							<g transform="matrix(1 0 0 1 3.814697e-06 0)" style="clip-path:url(#SVGID_00000119840210111485506100000014792086870897425327_);">
							
								<image style="overflow:visible;" width="83" height="126" xlink:href="5673987BD122B4CE.jpg"  transform="matrix(0.24 0 0 0.24 62.88 73.6)">
							</image>
						</g>
					</g>
				</g>
			</g>
		</g>
		<g>
			<defs>
				<path id="SVGID_00000129926912429217962100000004874695600501861005_" d="M60.6,100.1c-1.1,1.3-0.7,3.1-0.7,3.1
					c0.9,1.1,4.3-1.6,4.3-1.6l-1.5,2c-1.6,2.6,0,2.6,0,2.6c0.2,0.1,10.7-4.7,10.7-4.7l-5.7-6.7L60.6,100.1z"/>
			</defs>
			<clipPath id="SVGID_00000045613757404483465290000012034722146687033762_">
				<use xlink:href="#SVGID_00000129926912429217962100000004874695600501861005_"  style="overflow:visible;"/>
			</clipPath>
			<g style="clip-path:url(#SVGID_00000045613757404483465290000012034722146687033762_);">
				<g>
					<defs>
						
							<rect id="SVGID_00000134950961396503247290000007622936401958162822_" x="57.6" y="91.5" transform="matrix(0.605 -0.7962 0.7962 0.605 -53.8321 92.5307)" width="17.5" height="18"/>
					</defs>
					<clipPath id="SVGID_00000039106849428442972080000008361335292827190412_">
						<use xlink:href="#SVGID_00000134950961396503247290000007622936401958162822_"  style="overflow:visible;"/>
					</clipPath>
					<g style="clip-path:url(#SVGID_00000039106849428442972080000008361335292827190412_);">
						<defs>
							
								<rect id="SVGID_00000124143097916212488180000005402139114793105337_" x="48.9" y="83.1" transform="matrix(0.605 -0.7962 0.7962 0.605 -53.8318 92.5293)" width="34.9" height="34.9"/>
						</defs>
						<clipPath id="SVGID_00000179624778902458960430000018219865559960350893_">
							<use xlink:href="#SVGID_00000124143097916212488180000005402139114793105337_"  style="overflow:visible;"/>
						</clipPath>
						<g style="clip-path:url(#SVGID_00000179624778902458960430000018219865559960350893_);">
							
								<image style="overflow:visible;" width="205" height="204" xlink:href="5673987BD122B4CF.jpg"  transform="matrix(0.24 0 0 0.24 41.76 76)">
							</image>
						</g>
					</g>
				</g>
			</g>
		</g>
		<g>
			<defs>
				<path id="SVGID_00000009549629524307807310000005469384572238568881_" d="M33.4,131.6l0.2,0.7c0.1,0.3,2.3,4.7,2.3,4.7
					c1.1,0.3,1.3-1.9,1.3-1.9c0.1-0.1,0.5,0,0.5,0l0.3,1.6c0.7,0.5,1.6-0.2,1.6-0.2c1.6-1.3,2.5-5.2,2.5-5.2L33.4,131.6z"/>
			</defs>
			<clipPath id="SVGID_00000129189048128661798690000010248587078855339424_">
				<use xlink:href="#SVGID_00000009549629524307807310000005469384572238568881_"  style="overflow:visible;"/>
			</clipPath>
			<g style="clip-path:url(#SVGID_00000129189048128661798690000010248587078855339424_);">
				<g>
					<defs>
						
							<rect id="SVGID_00000057136133006082708380000011677199439351533738_" x="33.3" y="131.3" transform="matrix(1 -2.019714e-03 2.019714e-03 1 -0.2712 7.644740e-02)" width="8.8" height="5.9"/>
					</defs>
					<clipPath id="SVGID_00000108293744796549623920000002345836185049754556_">
						<use xlink:href="#SVGID_00000057136133006082708380000011677199439351533738_"  style="overflow:visible;"/>
					</clipPath>
					<g style="clip-path:url(#SVGID_00000108293744796549623920000002345836185049754556_);">
						<defs>
							
								<rect id="SVGID_00000099619904463124961020000010616025855728521602_" x="33.3" y="131.3" transform="matrix(1 -2.368467e-03 2.368467e-03 1 -0.318 8.970340e-02)" width="8.8" height="6"/>
						</defs>
						<clipPath id="SVGID_00000057852661351599644590000009966910880543805107_">
							<use xlink:href="#SVGID_00000099619904463124961020000010616025855728521602_"  style="overflow:visible;"/>
						</clipPath>
						<g style="clip-path:url(#SVGID_00000057852661351599644590000009966910880543805107_);">
							
								<image style="overflow:visible;" width="38" height="26" xlink:href="5673987BD122B4C2.jpg"  transform="matrix(0.24 0 0 0.24 33.12 131.2)">
							</image>
						</g>
					</g>
				</g>
			</g>
		</g>
		<g>
			<defs>
				<path id="SVGID_00000155105590893629105020000018291907701257064327_" d="M56.6,131.6l0.2,0.7c0.1,0.3,2.3,4.7,2.3,4.7
					c1.1,0.3,1.3-1.9,1.3-1.9c0.1-0.1,0.5,0,0.5,0l0.3,1.6c0.7,0.5,1.6-0.2,1.6-0.2c1.6-1.3,2.5-5.2,2.5-5.2L56.6,131.6z"/>
			</defs>
			<clipPath id="SVGID_00000024685788902665473250000017374419875798027925_">
				<use xlink:href="#SVGID_00000155105590893629105020000018291907701257064327_"  style="overflow:visible;"/>
			</clipPath>
			<g style="clip-path:url(#SVGID_00000024685788902665473250000017374419875798027925_);">
				<g>
					<defs>
						
							<rect id="SVGID_00000136408681100438419380000018399198440403732614_" x="56.5" y="131.3" transform="matrix(1 -2.019714e-03 2.019714e-03 1 -0.2712 0.1233)" width="8.8" height="5.9"/>
					</defs>
					<clipPath id="SVGID_00000172442089634179828040000011103737746942972321_">
						<use xlink:href="#SVGID_00000136408681100438419380000018399198440403732614_"  style="overflow:visible;"/>
					</clipPath>
					<g style="clip-path:url(#SVGID_00000172442089634179828040000011103737746942972321_);">
						<defs>
							
								<rect id="SVGID_00000170982788063922707710000015575011265850917800_" x="56.5" y="131.3" transform="matrix(1 -2.368467e-03 2.368467e-03 1 -0.318 0.1446)" width="8.8" height="6"/>
						</defs>
						<clipPath id="SVGID_00000081638219513590239320000005085385542370857882_">
							<use xlink:href="#SVGID_00000170982788063922707710000015575011265850917800_"  style="overflow:visible;"/>
						</clipPath>
						<g style="clip-path:url(#SVGID_00000081638219513590239320000005085385542370857882_);">
							
								<image style="overflow:visible;" width="38" height="26" xlink:href="5673987BD122B4C5.jpg"  transform="matrix(0.24 0 0 0.24 56.4 131.2)">
							</image>
						</g>
					</g>
				</g>
			</g>
		</g>
	</g>
</g>
<g>
	<g>
		<path class="st26" d="M24.9,51.2c0,0,9.6,3.3,23.9,2.3c14.3-1.1,25.5-6.1,25.5-6.1s-4.4,7.2-0.5,16.7c0,0-13.5,22.2-39.3,13.1
			c0,0-9.2-2.4-10.3-12.5C23.1,54.7,24.9,51.2,24.9,51.2z"/>
		<path class="st27" d="M74.2,47.3c0,0-11.2,5.1-25.5,6.1c-14.3,1.1-23.9-2.3-23.9-2.3s-0.1,0.2-0.2,0.6c0.6,0.4,1.1,0.8,1.7,1.1
			c1.5,0.7,3,1.2,4.6,1.6c3.7,1,7.5,2.4,11.2,1.9c0.1,0,0.2,0,0.2,0.1c0.4,1.6,0.5,3.3,0.5,4.9c0,2,0.2,3.9,0.7,5.9
			c1.1,3.8,2.8,7.2,4.3,10.7c0.1,0.1,0,0.2-0.1,0.3c-0.7,0.4-1.5,0.7-2.2,1c18.6,0.6,28.2-15.3,28.2-15.3
			C69.9,54.5,74.2,47.3,74.2,47.3z"/>
		<path class="st28" d="M74.2,47.3c0,0-11.2,5.1-25.5,6.1c-10.3,0.8-18.1-0.7-21.7-1.6c2.3,1.2,4.8,1.6,7.2,1.9
			c4.3,0.7,8.7,0.9,13,0.8c4.1-0.1,8.2-0.4,12.2-1.2c1.9-0.4,3.7-0.9,5.5-1.6c1.3-0.5,2.7-1.1,4.1-1c0.1,0,0.2,0.1,0.2,0.2
			c0.1,1.2-0.8,1.9-1.5,2.4c-0.9,0.6-1.8,1-2.7,1.6c0.5,0,1.1-0.1,1.6,0c0.1,0,0.2,0.1,0.2,0.2c0.5,2.3,0.5,4.8,1.2,7.1
			c0.2,0.8,0.6,1.5,1,2.2c0.1,0.2,0.1,0.4,0,0.5c-1.3,3.3-4.2,5.6-6.6,7.5c-2.9,2.2-5.8,4.1-9,5.5c-0.8,0.4-1.7,0.8-2.6,1.1
			c15-2.2,22.8-15,22.8-15C69.9,54.5,74.2,47.3,74.2,47.3z"/>
	</g>
	<g>
		<path class="st29" d="M27.1,54.7c0,0,0.2,0.1,0.5,0.2c0.3,0.1,0.7,0.2,1.3,0.4c0.6,0.1,1.3,0.3,2.1,0.5c0.8,0.2,1.7,0.3,2.7,0.5
			c0.5,0.1,1,0.2,1.5,0.2c0.5,0.1,1.1,0.2,1.6,0.2c0.6,0.1,1.1,0.1,1.7,0.2c0.6,0.1,1.2,0.1,1.8,0.1c1.2,0.1,2.5,0.1,3.8,0.1
			c0.6,0,1.3,0,1.9,0c0.6,0,1.3-0.1,1.9-0.1c1.3-0.1,2.6-0.2,3.8-0.3c1.3-0.2,2.5-0.4,3.7-0.5c1.2-0.2,2.3-0.5,3.4-0.7
			c0.3-0.1,0.5-0.1,0.8-0.2c0.3-0.1,0.5-0.1,0.8-0.2c0.5-0.1,1-0.3,1.5-0.4c0.9-0.3,1.8-0.4,2.5-0.7c0.7-0.2,1.4-0.5,1.9-0.6
			c1.1-0.3,1.7-0.5,1.7-0.5s-0.6,0.2-1.7,0.6c-0.5,0.2-1.2,0.4-1.9,0.7c-0.7,0.3-1.6,0.5-2.5,0.8c-0.5,0.1-1,0.3-1.5,0.4
			c-0.3,0.1-0.5,0.1-0.8,0.2c-0.3,0.1-0.5,0.1-0.8,0.2c-1.1,0.2-2.2,0.5-3.4,0.7c-1.2,0.2-2.4,0.4-3.7,0.6c-1.3,0.1-2.6,0.3-3.8,0.3
			c-0.6,0-1.3,0-1.9,0.1c-0.6,0-1.3,0-1.9,0c-1.3,0-2.5,0-3.8-0.1c-0.6,0-1.2-0.1-1.8-0.1c-0.6-0.1-1.2-0.1-1.7-0.2
			c-0.6-0.1-1.1-0.2-1.6-0.2c-0.5-0.1-1-0.2-1.5-0.3c-1-0.2-1.9-0.4-2.7-0.6c-0.8-0.2-1.5-0.4-2.1-0.6C27.7,55,27.1,54.7,27.1,54.7z
			"/>
		<path class="st29" d="M26.8,58.8c0,0,0.6,0.4,1.7,0.8c1.1,0.5,2.7,1.1,4.7,1.7c1,0.3,2,0.6,3.2,0.8c1.1,0.3,2.3,0.4,3.5,0.6
			c1.2,0.2,2.5,0.3,3.8,0.4c0.3,0,0.6,0,1,0c0.3,0,0.6,0,1,0c0.7,0,1.3,0,1.9,0c0.7,0,1.3-0.1,1.9-0.1c0.6,0,1.3-0.1,1.9-0.2
			c0.6-0.1,1.3-0.2,1.9-0.3c0.6-0.1,1.2-0.2,1.8-0.3c1.2-0.3,2.3-0.5,3.4-0.8c0.5-0.1,1.1-0.3,1.6-0.4c0.5-0.2,1-0.3,1.4-0.5
			c0.9-0.3,1.8-0.6,2.5-0.9c0.7-0.3,1.4-0.5,1.9-0.8c1-0.5,1.6-0.7,1.6-0.7S67.1,58.5,66,59c-0.5,0.3-1.2,0.5-1.9,0.9
			c-0.7,0.3-1.6,0.6-2.5,1c-0.5,0.2-0.9,0.3-1.4,0.5c-0.5,0.2-1,0.3-1.6,0.5c-1.1,0.3-2.2,0.6-3.4,0.9c-0.6,0.1-1.2,0.2-1.8,0.3
			c-0.6,0.1-1.2,0.2-1.9,0.3c-0.6,0.1-1.3,0.1-1.9,0.2c-0.6,0-1.3,0.1-2,0.1c-0.7,0-1.3,0-2,0c-0.3,0-0.7,0-1,0c-0.3,0-0.7,0-1-0.1
			c-1.3-0.1-2.6-0.2-3.8-0.4c-1.2-0.2-2.4-0.4-3.6-0.7c-1.1-0.3-2.2-0.6-3.2-0.9c-2-0.6-3.6-1.3-4.7-1.9
			C27.4,59.2,26.8,58.8,26.8,58.8z"/>
		<path class="st29" d="M28.3,66.1c0,0,0.2,0.1,0.4,0.3c0.3,0.2,0.7,0.4,1.3,0.8c0.5,0.3,1.2,0.7,2,1.1c0.8,0.4,1.6,0.8,2.6,1.2
			c0.5,0.2,1,0.4,1.5,0.6c0.5,0.2,1.1,0.4,1.6,0.6c0.6,0.2,1.1,0.4,1.7,0.5c0.6,0.2,1.2,0.3,1.8,0.5c0.6,0.1,1.2,0.2,1.9,0.4
			c0.6,0.1,1.3,0.1,1.9,0.2c0.6,0,1.3,0,1.9,0.1c0.6,0,1.3-0.1,1.9-0.1c0.6-0.1,1.3-0.2,1.9-0.3c0.6-0.1,1.3-0.2,1.9-0.4
			c0.6-0.2,1.2-0.3,1.8-0.5c0.6-0.2,1.2-0.4,1.7-0.6c1.1-0.4,2.2-0.9,3.3-1.3c1-0.5,2-0.9,2.9-1.4c1.7-0.9,3.2-1.8,4.2-2.4
			c1-0.6,1.5-1,1.5-1s-0.5,0.4-1.5,1.1c-1,0.7-2.4,1.6-4.1,2.5c-0.9,0.5-1.8,1-2.8,1.5c-1,0.5-2.1,1-3.3,1.4
			c-0.6,0.2-1.2,0.4-1.8,0.6c-0.6,0.2-1.2,0.3-1.8,0.5c-0.6,0.2-1.3,0.3-1.9,0.4c-0.6,0.1-1.3,0.2-1.9,0.3c-0.7,0.1-1.3,0.1-2,0.1
			c-0.7,0-1.3,0-2-0.1c-0.6-0.1-1.3-0.2-1.9-0.2c-0.6-0.1-1.3-0.2-1.9-0.4c-0.6-0.2-1.2-0.3-1.8-0.5c-0.6-0.2-1.2-0.4-1.7-0.6
			c-0.6-0.2-1.1-0.4-1.6-0.6c-0.5-0.2-1-0.4-1.5-0.7c-1-0.4-1.8-0.9-2.6-1.3c-0.8-0.4-1.4-0.8-2-1.1C28.9,66.6,28.3,66.1,28.3,66.1z
			"/>
		<path class="st29" d="M31.4,72.3c0,0,0.5,0.3,1.4,0.8c0.5,0.2,1,0.5,1.7,0.8c0.6,0.3,1.4,0.6,2.2,0.8c0.8,0.3,1.7,0.6,2.6,0.8
			c0.9,0.2,1.9,0.4,2.9,0.6c1,0.2,2.1,0.3,3.1,0.3c1.1,0,2.1,0.1,3.2,0c0.5,0,1.1-0.1,1.6-0.1c0.3,0,0.5-0.1,0.8-0.1
			c0.3,0,0.5-0.1,0.8-0.1c0.5-0.1,1-0.2,1.5-0.3c0.5-0.1,1-0.3,1.5-0.4c0.5-0.1,0.9-0.3,1.4-0.4c0.2-0.1,0.5-0.2,0.7-0.2
			c0.2-0.1,0.4-0.2,0.6-0.3c0.9-0.3,1.6-0.7,2.4-1.1c0.4-0.2,0.7-0.4,1-0.6c0.3-0.2,0.6-0.3,0.9-0.5c0.6-0.4,1.1-0.6,1.5-0.9
			c0.8-0.5,1.3-0.9,1.3-0.9s-0.4,0.3-1.2,0.9c-0.4,0.3-0.9,0.6-1.4,1c-0.6,0.4-1.2,0.7-1.9,1.2c-0.7,0.4-1.5,0.8-2.4,1.1
			c-0.2,0.1-0.4,0.2-0.6,0.3c-0.2,0.1-0.4,0.2-0.7,0.2c-0.5,0.2-0.9,0.3-1.4,0.5c-0.5,0.1-1,0.3-1.5,0.4c-0.5,0.1-1,0.2-1.5,0.3
			c-0.3,0-0.5,0.1-0.8,0.1c-0.3,0-0.5,0.1-0.8,0.1c-0.5,0.1-1.1,0.1-1.6,0.1c-1.1,0.1-2.2,0-3.2,0c-1.1-0.1-2.1-0.2-3.1-0.4
			c-1-0.2-2-0.4-2.9-0.7c-0.9-0.3-1.8-0.6-2.6-0.9c-1.6-0.6-2.9-1.3-3.8-1.8C31.9,72.6,31.4,72.3,31.4,72.3z"/>
	</g>
</g>
<path class="st30" d="M50,100c-13.5,0-26.2-5.4-35.4-14.6C5,75.8,0,63.5,0,50C0,22.3,22.3,0,50,0c13.5,0,25.8,5,35.4,14.6
	S100,36.5,100,50C100,77.7,77.7,100,50,100z M22.7,82.3c7.7,6.5,16.9,10,27.3,10c23.5,0,42.3-18.8,42.3-42.3c0-10-3.5-19.6-10-27.3
	L22.7,82.3z M50,7.7C26.5,7.7,7.7,26.5,7.7,50c0,10,3.5,19.6,9.6,26.9l59.6-59.6C69.6,11.2,60,7.7,50,7.7z"/>
</svg>
