<svg width="12" height="7" viewBox="0 0 12 7" fill="none" xmlns="http://www.w3.org/2000/svg">
<path d="M11.9609 0.334468C11.9192 0.235113 11.849 0.150329 11.7592 0.0908067C11.6694 0.0312841 11.564 -0.000312146 11.4562 2.32474e-06H0.543784C0.436033 -0.000312146 0.330602 0.0312841 0.240784 0.0908067C0.150966 0.150329 0.0807826 0.235113 0.0390835 0.334468C-0.000191105 0.435275 -0.0101192 0.545142 0.0104478 0.651357C0.0310148 0.757572 0.0812363 0.855792 0.155301 0.934652L5.61152 6.39087C5.71578 6.49155 5.85506 6.54782 6 6.54782C6.14494 6.54782 6.28422 6.49155 6.38848 6.39087L11.8447 0.934652C11.9188 0.855792 11.969 0.757572 11.9896 0.651357C12.0101 0.545142 12.0002 0.435275 11.9609 0.334468Z" fill="#797979"/>
</svg>
