<svg width="17px" height="19px" viewBox="0 0 255 285" fill="none" xmlns="http://www.w3.org/2000/svg">
<path d="M241.004 186.371C235.68 186.371 231.364 190.687 231.364 196.012V253.853C231.364 259.177 227.048 263.493 221.724 263.493H28.9211C23.5968 263.493 19.2807 259.177 19.2807 253.853V196.012C19.2807 190.687 14.9647 186.371 9.64036 186.371C4.31605 186.371 0 190.687 0 196.012V253.853C0 269.825 12.9481 282.773 28.9205 282.773H221.724C237.697 282.773 250.645 269.825 250.645 253.853V196.012C250.645 190.687 246.329 186.371 241.004 186.371Z" fill="#2c6ee7"/>
<path d="M180.121 166.708C176.385 163.1 170.463 163.1 166.727 166.708L134.963 198.452V9.64037C134.963 4.31606 130.647 1.52588e-05 125.322 1.52588e-05C119.998 1.52588e-05 115.682 4.31606 115.682 9.64037V198.453L83.9367 166.708C80.107 163.009 74.0043 163.115 70.3056 166.944C66.6973 170.68 66.6973 176.603 70.3056 180.339L118.506 228.539C122.266 232.308 128.37 232.316 132.14 228.557C132.145 228.551 132.151 228.545 132.157 228.539L180.358 180.339C184.057 176.509 183.951 170.406 180.121 166.708Z" fill="#2c6ee7"/>
</svg>
