<svg width="20" height="20" viewBox="0 0 20 20" fill="none" xmlns="http://www.w3.org/2000/svg">
<path d="M10 0C4.47726 0 0 4.47726 0 10C0 15.5227 4.47726 20 10 20C15.5227 20 20 15.5227 20 10C20 4.47726 15.5274 0 10 0ZM15.1055 13.8115L13.8115 15.1055C13.7693 15.1477 13.7178 15.1664 13.6615 15.1664C13.6053 15.1664 13.549 15.143 13.5115 15.1055L10.0047 11.5987L6.49789 15.1055C6.4557 15.1477 6.40413 15.1664 6.34787 15.1664C6.29161 15.1664 6.23535 15.143 6.19784 15.1055L4.90389 13.8115C4.8195 13.7271 4.8195 13.5912 4.90389 13.5068L8.41069 10L4.90389 6.4932C4.8195 6.40881 4.8195 6.27285 4.90389 6.18847L6.19784 4.89451C6.27754 4.81481 6.42288 4.81481 6.50258 4.89451L10.0094 8.40131L13.5162 4.89451C13.5584 4.85232 13.6099 4.83357 13.6662 4.83357C13.7225 4.83357 13.7787 4.85701 13.8162 4.89451L15.1102 6.18847C15.1946 6.27285 15.1946 6.40881 15.1102 6.4932L11.6034 10L15.1102 13.5068C15.1899 13.5912 15.1899 13.7271 15.1055 13.8115Z" fill="#FC4649"/>
</svg>
