<svg width="66" height="34" viewBox="0 0 66 34" fill="none" xmlns="http://www.w3.org/2000/svg">
<path d="M48.6378 10.0226C45.4388 10.0226 43.5442 11.3921 42.3329 13.0418V11.7968C42.3329 11.112 41.7738 10.5517 41.0906 10.5517H35.7174C34.8167 10.5517 34.0713 11.2676 34.0713 12.2014V32.091C34.0713 32.9936 34.7857 33.7407 35.7174 33.7407H40.6868C41.5875 33.7407 42.3329 33.0248 42.3329 32.091V21.2591C42.3329 19.4227 43.5753 18.0531 45.6251 18.0531C47.6439 18.0531 48.9173 19.4227 48.9173 21.2591V32.091C48.9173 32.9936 49.6317 33.7407 50.5013 33.7407H55.4707C56.3714 33.7407 57.1168 33.0248 57.1168 32.091V19.2359C57.1168 15.8743 55.9055 10.0226 48.6378 10.0226ZM24.1947 11.9835L20.3745 24.0604L16.5232 11.9835C16.2437 11.1742 15.4672 10.5517 14.5976 10.5517H9.16232C8.29268 10.5517 7.70257 11.4233 8.01315 12.2325L15.871 32.4334C16.1505 33.2115 16.927 33.7095 17.7345 33.7095H22.9213C23.7288 33.7095 24.5053 33.2115 24.8469 32.4334L32.6426 12.2325C32.9532 11.4233 32.3631 10.5517 31.4935 10.5517H26.1203C25.2507 10.5517 24.4742 11.1431 24.1947 11.9835Z" fill="#133C8A"/>
<path d="M4.62774 33.7092C7.18356 33.7092 9.25547 31.6328 9.25547 29.0714C9.25547 26.51 7.18356 24.4336 4.62774 24.4336C2.07191 24.4336 0 26.51 0 29.0714C0 31.6328 2.07191 33.7092 4.62774 33.7092Z" fill="url(#paint0_linear_71_9959)"/>
<path d="M65.0061 7.28357L51.216 7.28357C50.657 7.28357 50.2222 6.84781 50.2222 6.28754C50.2222 5.75839 50.657 5.2915 51.216 5.2915L65.0061 5.2915C65.5651 5.2915 65.9999 5.72727 65.9999 6.28754C65.9999 6.84781 65.5341 7.28357 65.0061 7.28357Z" fill="url(#paint1_linear_71_9959)"/>
<path d="M59.3223 4.63758H56.8998C56.3407 4.63758 55.9059 4.20181 55.9059 3.64154C55.9059 3.08127 56.3407 2.64551 56.8998 2.64551L59.3223 2.64551C59.8814 2.64551 60.3162 3.08127 60.3162 3.64154C60.3162 4.20181 59.8503 4.63758 59.3223 4.63758Z" fill="url(#paint2_linear_71_9959)"/>
<path d="M58.1105 1.99207C57.5827 1.99207 57.1171 1.5563 57.1171 0.996035C57.1171 0.466891 57.5517 0 58.1105 0C58.6383 0 59.104 0.435765 59.104 0.996035C59.104 1.5563 58.6383 1.99207 58.1105 1.99207Z" fill="url(#paint3_linear_71_9959)"/>
<path d="M59.4773 12.575H61.8998C62.4589 12.575 62.8937 12.1392 62.8937 11.5789C62.8937 11.0186 62.4589 10.5829 61.8998 10.5829H59.4773C58.9182 10.5829 58.4834 11.0186 58.4834 11.5789C58.4834 12.1392 58.9182 12.575 59.4773 12.575Z" fill="url(#paint4_linear_71_9959)"/>
<path d="M62.7383 15.2208C63.2972 15.2208 63.7318 14.7851 63.7318 14.2248C63.7318 13.6645 63.2972 13.2288 62.7383 13.2288C62.1795 13.2288 61.7449 13.6645 61.7449 14.2248C61.7449 14.7539 62.1795 15.2208 62.7383 15.2208Z" fill="url(#paint5_linear_71_9959)"/>
<path d="M61.0301 9.92933H55.129C54.57 9.92933 54.1351 9.49356 54.1351 8.93329C54.1351 8.37302 54.601 7.93726 55.129 7.93726L61.0301 7.93726C61.5892 7.93726 62.024 8.37302 62.024 8.93329C62.0551 9.49356 61.5892 9.92933 61.0301 9.92933Z" fill="url(#paint6_linear_71_9959)"/>
<defs>
<linearGradient id="paint0_linear_71_9959" x1="0.00170822" y1="29.0831" x2="9.28236" y2="29.0831" gradientUnits="userSpaceOnUse">
<stop stop-color="#DA2128"/>
<stop offset="0.1434" stop-color="#E1392B"/>
<stop offset="0.3265" stop-color="#E9512E"/>
<stop offset="0.5214" stop-color="#EE622F"/>
<stop offset="0.7346" stop-color="#F16C31"/>
<stop offset="1" stop-color="#F26F31"/>
</linearGradient>
<linearGradient id="paint1_linear_71_9959" x1="50.1915" y1="6.29675" x2="65.999" y2="6.29675" gradientUnits="userSpaceOnUse">
<stop stop-color="#DA2128"/>
<stop offset="0.1434" stop-color="#E1392B"/>
<stop offset="0.3265" stop-color="#E9512E"/>
<stop offset="0.5214" stop-color="#EE622F"/>
<stop offset="0.7346" stop-color="#F16C31"/>
<stop offset="1" stop-color="#F26F31"/>
</linearGradient>
<linearGradient id="paint2_linear_71_9959" x1="55.9125" y1="3.65676" x2="60.3061" y2="3.65676" gradientUnits="userSpaceOnUse">
<stop stop-color="#DA2128"/>
<stop offset="0.1434" stop-color="#E1392B"/>
<stop offset="0.3265" stop-color="#E9512E"/>
<stop offset="0.5214" stop-color="#EE622F"/>
<stop offset="0.7346" stop-color="#F16C31"/>
<stop offset="1" stop-color="#F26F31"/>
</linearGradient>
<linearGradient id="paint3_linear_71_9959" x1="57.1278" y1="1.01714" x2="59.0898" y2="1.01714" gradientUnits="userSpaceOnUse">
<stop stop-color="#DA2128"/>
<stop offset="0.1434" stop-color="#E1392B"/>
<stop offset="0.3265" stop-color="#E9512E"/>
<stop offset="0.5214" stop-color="#EE622F"/>
<stop offset="0.7346" stop-color="#F16C31"/>
<stop offset="1" stop-color="#F26F31"/>
</linearGradient>
<linearGradient id="paint4_linear_71_9959" x1="58.4879" y1="11.5763" x2="62.8814" y2="11.5763" gradientUnits="userSpaceOnUse">
<stop stop-color="#DA2128"/>
<stop offset="0.1434" stop-color="#E1392B"/>
<stop offset="0.3265" stop-color="#E9512E"/>
<stop offset="0.5214" stop-color="#EE622F"/>
<stop offset="0.7346" stop-color="#F16C31"/>
<stop offset="1" stop-color="#F26F31"/>
</linearGradient>
<linearGradient id="paint5_linear_71_9959" x1="61.7523" y1="14.2162" x2="63.7278" y2="14.2162" gradientUnits="userSpaceOnUse">
<stop stop-color="#DA2128"/>
<stop offset="0.1434" stop-color="#E1392B"/>
<stop offset="0.3265" stop-color="#E9512E"/>
<stop offset="0.5214" stop-color="#EE622F"/>
<stop offset="0.7346" stop-color="#F16C31"/>
<stop offset="1" stop-color="#F26F31"/>
</linearGradient>
<linearGradient id="paint6_linear_71_9959" x1="54.1437" y1="8.93653" x2="62.0459" y2="8.93653" gradientUnits="userSpaceOnUse">
<stop stop-color="#DA2128"/>
<stop offset="0.1434" stop-color="#E1392B"/>
<stop offset="0.3265" stop-color="#E9512E"/>
<stop offset="0.5214" stop-color="#EE622F"/>
<stop offset="0.7346" stop-color="#F16C31"/>
<stop offset="1" stop-color="#F26F31"/>
</linearGradient>
</defs>
</svg>
