<?xml version="1.0" encoding="utf-8"?>
<!-- Generator: Adobe Illustrator 27.7.0, SVG Export Plug-In . SVG Version: 6.00 Build 0)  -->
<svg version="1.1" id="Layer_1" xmlns="http://www.w3.org/2000/svg" xmlns:xlink="http://www.w3.org/1999/xlink" x="0px" y="0px"
	 viewBox="0 0 100 100" style="enable-background:new 0 0 100 100;" xml:space="preserve">
<style type="text/css">
	.st0{clip-path:url(#SVGID_00000178176893822660007650000014107684665372256914_);}
	.st1{fill:#0AA44A;}
	.st2{fill:#0F8342;}
	.st3{fill:#FBE795;}
	.st4{fill:#DEBA6C;}
	.st5{fill:#FFFFFF;}
	.st6{opacity:8.000000e-02;enable-background:new    ;}
	.st7{clip-path:url(#SVGID_00000142165484332929595870000007700397279937593987_);}
	.st8{clip-path:url(#SVGID_00000177467354499221735540000016115574434113960109_);}
	.st9{clip-path:url(#SVGID_00000019644588340000653440000009464989156767606962_);fill:#FFFFFF;}
	.st10{clip-path:url(#SVGID_00000023960727860395558570000006155740117108010115_);}
	.st11{clip-path:url(#SVGID_00000126292097440733126590000012553351586754850189_);}
	.st12{clip-path:url(#SVGID_00000015343513819814995580000010365501122987669439_);}
	.st13{clip-path:url(#SVGID_00000047039118317754780750000016988681756514734248_);}
	.st14{clip-path:url(#SVGID_00000109715100072464383380000018286742708801684107_);}
	.st15{clip-path:url(#SVGID_00000115501402254637056700000002755074949239559865_);}
	.st16{clip-path:url(#SVGID_00000098187229506755100290000007684606743055030913_);}
	.st17{clip-path:url(#SVGID_00000084505835464753561570000011526453809157018788_);}
	.st18{clip-path:url(#SVGID_00000057145886029100168430000006715133470560754349_);}
	.st19{clip-path:url(#SVGID_00000044865548802266135230000007496824288054748300_);}
	.st20{clip-path:url(#SVGID_00000098939733559877859020000016662437116450039169_);}
	.st21{clip-path:url(#SVGID_00000162338066379270092580000002855837476161458842_);}
	.st22{clip-path:url(#SVGID_00000062871341738934632740000007180941995687198129_);}
	.st23{clip-path:url(#SVGID_00000039122743161354366940000013274304258960453560_);}
	.st24{clip-path:url(#SVGID_00000134236442920584821610000013191872966263466158_);}
	.st25{clip-path:url(#SVGID_00000051368999165624033080000016573293145226097813_);}
	.st26{fill:#D6D6D6;}
</style>
<g>
	<defs>
		<rect id="SVGID_1_" x="13" y="15.5" width="74.6" height="84.5"/>
	</defs>
	<clipPath id="SVGID_00000121995601904577822690000016068697934411289017_">
		<use xlink:href="#SVGID_1_"  style="overflow:visible;"/>
	</clipPath>
	<g style="clip-path:url(#SVGID_00000121995601904577822690000016068697934411289017_);">
		<path class="st1" d="M33.9,26.9c0,0,5.1-2.2,13.7-2.5c0,0,9.7-0.1,14.1,3.3c0,0,5.2,2.2,6.7,7.6c0,0,2.7,6.4,3.3,11.6
			c0,0,4,14.9-0.7,21.1c0,0-1.3,2.5-5.4,3.6c0,0-8.1,3.6-18.4,3.8c0,0-8.4,0.6-18.8-3.6c0,0-5.7-2.4-6.7-7.8c0,0,0-12.3,2-21.5
			C23.7,42.3,24.7,29.2,33.9,26.9"/>
		<path class="st2" d="M25.9,54.7c0,0-1.2-17.4,3.9-23.2c0,0,5.2-8.1,25.8-4.9c0,0,6.8,1.4,9,5.5c0,0,5.7,10.8,4.7,21.4L25.9,54.7z"
			/>
		<path class="st3" d="M30.2,46.1c0,0-3.1-4.1,0.9-6c0,0,3.3-2.2,6.6,1.6c0,0,8.9-2.9,20.5-0.4c0,0,2.3-3.4,6.4-1.4
			c0,0,3.5,1.9,1.2,5.7c0,0,4,2.2,4.1,11.2c0,0,1.3,10.9-5.1,13.1c0,0-8.2,3.1-16,2.7c0,0-12.5,0.4-18.8-2.7c0,0-4.3-3.4-4.2-5.5
			C25.9,64.6,25.2,49.9,30.2,46.1"/>
		<path class="st4" d="M32.3,67.9c0,0-4.4-6.6-2.5-13.4c0,0,0-9.5,11.3-11.3c0,0,9.7-3.2,20.3,1.7c0,0,3.9,1.4,4.6,8.2
			c0,0,1.3,11.2-2.8,14.8c0,0-8.4,3-15.3,2.3C47.7,70.1,34.2,70.2,32.3,67.9"/>
		<path class="st2" d="M27.5,80.1c0,0-4.4,6.5-2.9,20.7c0,0,3,11.8,5.8,17.5l2.8,6.5c0,0,7.3,0,7.7,0l2.3-5.5c0,0,4.6,1.2,9,0.1
			l2.2,5.4c0,0,4.9,0.6,7.8,0c0,0,5.1-12.5,5.4-13.7c0,0,3.4-7.5,3.3-17.3c0,0-0.7-18.7-9.8-22.1c0,0-15.2,3.4-25.5,0.6
			C35.5,72.2,28.5,77,27.5,80.1"/>
		<path class="st1" d="M43.9,116.1c0,0-11.4-2.1-14.7-17.4c0,0-0.6-12.5,3.6-17.6c0,0,4.7-9.2,18.9-6.9c0,0,10.4,1.8,13.4,13.7
			c0,0,4,14.5-6.1,24.1C59.1,111.9,52.7,118.1,43.9,116.1"/>
		<g>
			<path class="st5" d="M47.3,104.3c-1.5,0-2.9-0.3-4.3-0.8c-1.3-0.6-2.5-1.4-3.5-2.4c-1-1-1.8-2.2-2.4-3.5
				c-0.6-1.3-0.9-2.8-0.9-4.3c0-1.5,0.3-2.9,0.8-4.3c0.6-1.3,1.4-2.6,2.4-3.6c1-1,2.2-1.8,3.5-2.4c1.3-0.6,2.8-0.9,4.3-0.9
				c0,0,0.1,0,0.1,0c1.5,0,2.9,0.3,4.2,0.8c1.3,0.6,2.5,1.4,3.6,2.4c1,1,1.8,2.2,2.4,3.5c0.6,1.3,0.9,2.8,0.9,4.3
				c0,1.5-0.3,3-0.8,4.3c-0.6,1.3-1.4,2.5-2.4,3.5c-1,1-2.2,1.8-3.5,2.4C50.3,103.9,48.9,104.2,47.3,104.3
				C47.4,104.3,47.3,104.3,47.3,104.3 M47.3,82.7C47.2,82.7,47.2,82.7,47.3,82.7c-1.5,0-2.9,0.3-4.1,0.9c-1.3,0.6-2.4,1.3-3.3,2.3
				c-0.9,1-1.7,2.1-2.2,3.4c-0.5,1.3-0.8,2.6-0.8,4c0,1.4,0.3,2.8,0.9,4c0.6,1.2,1.3,2.4,2.3,3.3c1,0.9,2.1,1.7,3.3,2.2
				c1.3,0.5,2.6,0.8,4.1,0.8c1.4,0,2.8-0.3,4-0.9c1.3-0.6,2.4-1.3,3.3-2.3c0.9-1,1.7-2.1,2.2-3.3c0.5-1.3,0.8-2.6,0.8-4.1
				c0-1.4-0.3-2.7-0.9-4c-0.6-1.3-1.3-2.4-2.3-3.3c-1-0.9-2.1-1.7-3.3-2.2C50,83,48.7,82.7,47.3,82.7 M47.4,101.3
				c-1.1,0-2.1-0.2-3.1-0.6c-1-0.4-1.8-1-2.6-1.7c-0.7-0.7-1.3-1.6-1.7-2.5c-0.4-1-0.6-2-0.7-3.1c0-1.1,0.2-2.2,0.6-3.2
				c0.4-1,1-1.9,1.7-2.6c0.7-0.7,1.6-1.3,2.5-1.8c1-0.4,2-0.7,3.1-0.7c1.1,0,2.1,0.2,3.1,0.6c1,0.4,1.8,1,2.5,1.7
				c0.7,0.7,1.3,1.6,1.7,2.6c0.4,1,0.6,2,0.7,3.1c0,1.1-0.2,2.2-0.6,3.2c-0.4,1-1,1.8-1.7,2.6c-0.7,0.7-1.6,1.3-2.5,1.8
				C49.5,101,48.5,101.2,47.4,101.3C47.4,101.3,47.4,101.3,47.4,101.3 M47.3,85.7C47.3,85.7,47.3,85.7,47.3,85.7c-1,0-2,0.2-2.9,0.6
				c-0.9,0.4-1.7,0.9-2.3,1.6c-0.6,0.7-1.2,1.5-1.5,2.4c-0.4,0.9-0.6,1.9-0.5,2.9c0,1,0.2,2,0.6,2.9c0.4,0.9,0.9,1.7,1.6,2.3
				c0.7,0.7,1.5,1.2,2.4,1.6c0.9,0.4,1.8,0.6,2.8,0.6c1,0,1.9-0.2,2.8-0.6c0.9-0.4,1.6-0.9,2.3-1.6c0.7-0.7,1.2-1.5,1.5-2.4
				c0.4-0.9,0.6-1.9,0.5-2.9c0-1-0.2-2-0.6-2.9c-0.4-0.9-0.9-1.7-1.6-2.3c-0.7-0.7-1.5-1.2-2.3-1.6C49.2,85.9,48.3,85.7,47.3,85.7"
				/>
			<path class="st5" d="M39.7,93.5c0,1.1,0.2,2.1,0.6,3c0.4,0.9,1,1.8,1.7,2.4c0.7,0.7,1.5,1.2,2.5,1.6c0.9,0.4,1.9,0.6,3,0.6
				c1,0,2-0.2,2.9-0.6c0.9-0.4,1.7-1,2.4-1.7c0.7-0.7,1.2-1.5,1.6-2.5c0.4-0.9,0.6-2,0.6-3c0-1.1-0.2-2.1-0.6-3
				c-0.4-0.9-1-1.8-1.7-2.4c-0.7-0.7-1.5-1.2-2.4-1.6c-0.9-0.4-1.9-0.6-3-0.6c-1,0-2,0.2-3,0.6c-0.9,0.4-1.7,1-2.4,1.7
				c-0.7,0.7-1.2,1.5-1.6,2.5C39.9,91.4,39.7,92.4,39.7,93.5"/>
			<path class="st1" d="M52.7,93.2c0-0.2,0.1-0.4,0.1-0.6c0-1.7-1.4-3.2-3.2-3.2c-1.3,0-2.4,0.8-2.9,1.9c-0.4-0.2-0.8-0.4-1.3-0.4
				c-1.3,0-2.3,1-2.4,2.2c-0.7,0.3-1.2,1-1.2,1.8c0,1.1,0.9,2,2,2l2.9,0c0.1,0,0.1-0.2,0.1-0.2l0-1.3c0-0.1-0.1-0.2-0.2-0.2l-0.5,0
				c-0.1,0-0.1-0.1-0.1-0.2l1.6-2.2c0.1-0.1,0.2-0.1,0.2,0l1.7,2.2c0.1,0.1,0,0.2-0.1,0.2l-0.5,0c-0.1,0-0.2,0.1-0.2,0.2l0,1.3
				c0,0,0,0.2,0.2,0.2l2.9,0c1.1,0,2-0.9,2-2C53.7,94.2,53.3,93.5,52.7,93.2"/>
		</g>
		<g class="st6">
			<g>
				<defs>
					<rect id="SVGID_00000024714232949791348050000016614611228620197302_" x="28" y="78.4" width="33.1" height="37.3"/>
				</defs>
				<clipPath id="SVGID_00000114072209478756816620000006715794780197323412_">
					<use xlink:href="#SVGID_00000024714232949791348050000016614611228620197302_"  style="overflow:visible;"/>
				</clipPath>
				<g style="clip-path:url(#SVGID_00000114072209478756816620000006715794780197323412_);">
					<defs>
						
							<rect id="SVGID_00000038373063253837769440000014268837796479801008_" x="31.5" y="79.9" transform="matrix(0.581 -0.8139 0.8139 0.581 -60.5572 76.8965)" width="25.7" height="34.7"/>
					</defs>
					<clipPath id="SVGID_00000009573265366540637720000018433160304788014230_">
						<use xlink:href="#SVGID_00000038373063253837769440000014268837796479801008_"  style="overflow:visible;"/>
					</clipPath>
					<g style="clip-path:url(#SVGID_00000009573265366540637720000018433160304788014230_);">
						<defs>
							<rect id="SVGID_00000011718809880863500630000004499808995255048351_" x="22.5" y="76.4" width="44.1" height="42.1"/>
						</defs>
						<clipPath id="SVGID_00000120520761244154215460000009589853975884846503_">
							<use xlink:href="#SVGID_00000011718809880863500630000004499808995255048351_"  style="overflow:visible;"/>
						</clipPath>
						<path style="clip-path:url(#SVGID_00000120520761244154215460000009589853975884846503_);fill:#FFFFFF;" d="M55,111.5
							c-5.4,4-14.6,0.9-20.4-7C28.7,96.7,28.4,87,33.8,83c5.4-4,14.6-0.9,20.4,7C60.1,97.8,60.4,107.5,55,111.5"/>
					</g>
				</g>
			</g>
		</g>
		<g>
			<path class="st5" d="M61.8,29.8c-0.6-0.6-1.2-0.9-1.9-1.1c-0.8-0.2-1.5-0.4-2.3-0.6c-0.7-0.2-1.3-0.1-1.9,0.1
				c-1.2,0.5-2.4,1.1-3.6,1.6c-1.5,0.6-2.9,1.3-4.4,1.9c-0.5,0.2-1.1,0.4-1.6,0.6c0-0.6-0.1-1.1-0.1-1.6c-0.5-0.2-0.5,0.2-0.5,0.4
				c0.1,1.1,0.1,2.3,0.6,3.3c1.2,3.1,4.7,4.6,8,3.6c2.9-0.9,4.8-3.5,4.5-6.5c-0.1-0.6-0.2-1.1-0.4-1.7
				C59.4,29.2,60.5,29.7,61.8,29.8z M44.7,32.5c-1.1-0.4-2.2-0.7-3.2-1.1c-1.4-0.6-2.8-1.2-4.2-1.8c-1.4-0.6-1.5-0.6-2.8,0.3
				c-0.6,0.4-1.2,0.9-1.7,1.3c0.5,0.1,0.9,0.1,1.2,0.1c0.4,0.1,0.9,0.2,1.2,0.4c0.2,0.1,0.1,0.5,0.1,0.8c0,0.1,0,0.1,0,0.2
				c0.1,2,1.1,3.4,2.9,4.2c1.8,0.8,3.5,0.7,5.1-0.6c1.9-1.5,2-3.6,1.8-5.7c0-0.1-0.2-0.2-0.3-0.3c0,0-0.1,0.1-0.1,0.1
				C44.7,31.2,44.7,31.8,44.7,32.5z"/>
			<path d="M61.8,29.8c-1.3,0-2.5-0.6-3.6-0.1c0.1,0.6,0.3,1.1,0.4,1.7c0.3,3-1.6,5.6-4.5,6.5c-3.3,1-6.8-0.5-8-3.6
				c-0.4-1-0.4-2.2-0.6-3.3c0-0.3,0-0.6,0.5-0.4c0,0.5,0.1,1,0.1,1.6c0.6-0.2,1.1-0.3,1.6-0.6c1.5-0.6,2.9-1.2,4.4-1.9
				c1.2-0.5,2.4-1,3.6-1.6c0.6-0.3,1.2-0.4,1.9-0.1c0.7,0.3,1.5,0.4,2.3,0.6C60.6,28.8,61.3,29.1,61.8,29.8z M46.4,33.7
				c1,2.3,2.7,3.6,5.1,3.9c2.3,0.2,4.3-0.6,5.6-2.7c1-1.6,1.2-3.2,0.5-4.9c-1.6,0.7-3.1,1.3-4.6,2c0.1,0.9-0.1,1.4-0.6,1.6
				c-0.6,0.2-1,0-1.6-0.6c-0.1-0.1-0.4-0.2-0.5-0.1C49,33.1,47.7,33.4,46.4,33.7z"/>
			<path d="M44.7,32.5c0-0.7,0-1.3,0-2c0,0,0.1-0.1,0.1-0.1c0.1,0.1,0.3,0.2,0.3,0.3c0.2,2.1,0.1,4.2-1.8,5.7
				c-1.6,1.2-3.3,1.4-5.1,0.6c-1.8-0.8-2.8-2.2-2.9-4.2c0-0.1,0-0.1,0-0.2c0-0.3,0.1-0.7-0.1-0.8c-0.3-0.2-0.8-0.3-1.2-0.4
				c-0.4-0.1-0.8,0-1.2-0.1c0.6-0.4,1.1-0.9,1.7-1.3c1.3-0.9,1.4-0.9,2.8-0.3c1.4,0.6,2.8,1.3,4.2,1.8
				C42.5,31.8,43.6,32.1,44.7,32.5z M43.7,33.3c0,0.1-0.1,0.2-0.1,0.2c-0.2,0.4-0.5,0.8-1,0.7c-0.5-0.1-0.7-0.4-0.9-0.8
				c0-0.1-0.2-0.2-0.4-0.3c-1.4-0.3-2.7-0.6-4.1-0.9c-0.5-0.1-1-0.2-1.5-0.3c-0.5,2,1.2,4.5,3.5,5c2.4,0.5,4.8-1.1,5.2-3.6
				C44.3,33.3,44,33.3,43.7,33.3z"/>
			<path class="st5" d="M46.4,33.7c1.3-0.3,2.6-0.6,3.9-0.9c0.2,0,0.4,0,0.5,0.1c0.6,0.7,1,0.9,1.6,0.6c0.5-0.2,0.7-0.7,0.6-1.6
				c1.5-0.7,3-1.3,4.6-2c0.7,1.7,0.5,3.3-0.5,4.9c-1.3,2-3.3,2.9-5.6,2.7C49.1,37.3,47.3,36,46.4,33.7z"/>
			<path class="st5" d="M43.7,33.3c0.3,0,0.6,0.1,0.8,0.1c-0.4,2.5-2.9,4.1-5.2,3.6c-2.3-0.5-4-3-3.5-5c0.5,0.1,1,0.2,1.5,0.3
				c1.4,0.3,2.7,0.6,4.1,0.9c0.1,0,0.3,0.2,0.4,0.3c0.1,0.5,0.3,0.8,0.9,0.8c0.6,0.1,0.8-0.3,1-0.7C43.7,33.4,43.7,33.4,43.7,33.3z"
				/>
		</g>
		<path class="st5" d="M45.5,62.7c0,0-3.5-1.1-3.6-1.4c-0.1-0.3-1-2.8-1-2.8l5.4,0.8l4.4-0.8l3.5-1l-0.3,1.6l-1.4,2.4l-6.8,1.2H45.5
			z"/>
		<g>
			<path d="M56,55.2c0.7-0.1,1.1,0.2,1.3,1c-0.4-0.5-0.7-0.3-1-0.1c-0.8,0.5-1.2,1.2-1.6,2.1c-1.2,2.8-3.1,4.9-6.2,5.5
				c-3.5,0.6-6.8-1.1-8.1-4.5c-0.3-0.9-0.7-1.7-1.5-2.4c-0.2-0.2-0.4-0.4-0.5-0.7c-0.3-0.4-0.5-0.8-0.9,0.1c0.1-0.9,0.4-1.2,1.4-1.1
				c-0.5,0.3-0.5,0.5-0.2,0.9c0.9,1.3,2.1,2.2,3.6,2.5c4.3,0.7,8.5,0.5,12.5-1.6c0.5-0.3,1-0.7,1.5-1C56.6,55.7,56.6,55.5,56,55.2z
				 M41.4,58.8c0.2,0.7,0.7,1.2,1.1,1.8c0.3,0.5,0.6,0.6,0.8,0c0.3-0.6,0.7-0.6,1.3-0.5c1.9,0.5,3.8,0.5,5.7,0
				c0.6-0.2,1.1-0.2,1.6,0.4c0.2,0.2,0.4,0.4,0.6,0c0.5-0.8,0.8-1.7,1.1-2.7C49.6,59.4,45.6,59.7,41.4,58.8z"/>
			<path d="M51.6,63.7c-1.6,2.5-6.3,2.6-8.2,0.1c1.4,0.9,2.8,1.4,4.3,1.5C49.2,65.3,50.4,64.6,51.6,63.7z"/>
		</g>
		<g>
			<defs>
				<path id="SVGID_00000086658075407956358100000002012338571886041514_" d="M32.5,94l-4.8,6.5c0,0,9.9,3.7,10.1,3.6
					c0,0,1.4-0.1-0.2-2.4l-1.5-1.7c0,0,3.3,2.3,4.1,1.2c0,0,0.2-1.7-0.9-2.8L32.5,94z"/>
			</defs>
			<clipPath id="SVGID_00000086652774118016744510000008685006895881731728_">
				<use xlink:href="#SVGID_00000086658075407956358100000002012338571886041514_"  style="overflow:visible;"/>
			</clipPath>
			<g style="clip-path:url(#SVGID_00000086652774118016744510000008685006895881731728_);">
				<g>
					<defs>
						
							<rect id="SVGID_00000041998193032689443350000005794525848067847320_" x="25.9" y="91" transform="matrix(0.7529 -0.6582 0.6582 0.7529 -56.7708 46.873)" width="16.3" height="16.1"/>
					</defs>
					<clipPath id="SVGID_00000015333168792756669940000010911860220008404411_">
						<use xlink:href="#SVGID_00000041998193032689443350000005794525848067847320_"  style="overflow:visible;"/>
					</clipPath>
					<g style="clip-path:url(#SVGID_00000015333168792756669940000010911860220008404411_);">
						<defs>
							
								<rect id="SVGID_00000125581188864574274030000009171430848670488482_" x="17.9" y="82.9" transform="matrix(0.7528 -0.6583 0.6583 0.7528 -56.7788 46.8869)" width="32.2" height="32.2"/>
						</defs>
						<clipPath id="SVGID_00000102525210409772041080000014494607865313886336_">
							<use xlink:href="#SVGID_00000125581188864574274030000009171430848670488482_"  style="overflow:visible;"/>
						</clipPath>
						<g style="clip-path:url(#SVGID_00000102525210409772041080000014494607865313886336_);">
							
								<image style="overflow:visible;" width="190" height="190" xlink:href="FD63423908CE704B.jpg"  transform="matrix(0.24 0 0 0.24 11.28 76.24)">
							</image>
						</g>
					</g>
				</g>
			</g>
		</g>
		<g>
			<defs>
				<path id="SVGID_00000084501419453795311970000006335364563517950880_" d="M60.2,42.9c0,0,1.1,2.1,3.3,0.7c0,0,1.8-1.1,0.4-2.9
					c-0.1-0.1-0.3-0.3-0.4-0.4C61.9,39.2,59.6,41,60.2,42.9"/>
			</defs>
			<clipPath id="SVGID_00000178186018365625603300000014700289612722793630_">
				<use xlink:href="#SVGID_00000084501419453795311970000006335364563517950880_"  style="overflow:visible;"/>
			</clipPath>
			<g style="clip-path:url(#SVGID_00000178186018365625603300000014700289612722793630_);">
				<g>
					<defs>
						
							<rect id="SVGID_00000130636098034117608590000015029454713507816893_" x="58.5" y="38.1" transform="matrix(0.8418 -0.5397 0.5397 0.8418 -12.8155 40.3419)" width="7.9" height="7.9"/>
					</defs>
					<clipPath id="SVGID_00000148637565337129271630000008124499707128416658_">
						<use xlink:href="#SVGID_00000130636098034117608590000015029454713507816893_"  style="overflow:visible;"/>
					</clipPath>
					<g style="clip-path:url(#SVGID_00000148637565337129271630000008124499707128416658_);">
						<defs>
							
								<rect id="SVGID_00000083811806564799384720000001778361896581076125_" x="54.9" y="34.5" transform="matrix(0.8418 -0.5398 0.5398 0.8418 -12.8155 40.3475)" width="15.1" height="15.1"/>
						</defs>
						<clipPath id="SVGID_00000114760391536596699390000014705650319780646817_">
							<use xlink:href="#SVGID_00000083811806564799384720000001778361896581076125_"  style="overflow:visible;"/>
						</clipPath>
						<g style="clip-path:url(#SVGID_00000114760391536596699390000014705650319780646817_);">
							
								<image style="overflow:visible;" width="88" height="89" xlink:href="FD63423908CE7049.jpg"  transform="matrix(0.24 0 0 0.24 51.84 31.36)">
							</image>
						</g>
					</g>
				</g>
			</g>
		</g>
		<g>
			<defs>
				<path id="SVGID_00000144332526222815870610000006440077084777687714_" d="M30.7,43.2c0,0,1.1,2.1,3.3,0.7c0,0,1.8-1.1,0.4-2.9
					c-0.1-0.1-0.3-0.3-0.4-0.4C32.4,39.5,30.1,41.3,30.7,43.2"/>
			</defs>
			<clipPath id="SVGID_00000041279759987664349010000006525471583738523064_">
				<use xlink:href="#SVGID_00000144332526222815870610000006440077084777687714_"  style="overflow:visible;"/>
			</clipPath>
			<g style="clip-path:url(#SVGID_00000041279759987664349010000006525471583738523064_);">
				<g>
					<defs>
						
							<rect id="SVGID_00000132058264848466439150000013174365798287513773_" x="28.9" y="38.3" transform="matrix(0.8418 -0.5397 0.5397 0.8418 -17.6336 24.4454)" width="7.9" height="7.9"/>
					</defs>
					<clipPath id="SVGID_00000073691664384190340440000000241048504352613547_">
						<use xlink:href="#SVGID_00000132058264848466439150000013174365798287513773_"  style="overflow:visible;"/>
					</clipPath>
					<g style="clip-path:url(#SVGID_00000073691664384190340440000000241048504352613547_);">
						<defs>
							
								<rect id="SVGID_00000115474920992285969310000018153952816035419061_" x="25.3" y="34.7" transform="matrix(0.8418 -0.5398 0.5398 0.8418 -17.6348 24.4492)" width="15.1" height="15.1"/>
						</defs>
						<clipPath id="SVGID_00000013158113680477665640000018272961155927204248_">
							<use xlink:href="#SVGID_00000115474920992285969310000018153952816035419061_"  style="overflow:visible;"/>
						</clipPath>
						<g style="clip-path:url(#SVGID_00000013158113680477665640000018272961155927204248_);">
							
								<image style="overflow:visible;" width="88" height="88" xlink:href="FD63423908CE704F.jpg"  transform="matrix(0.24 0 0 0.24 22.32 31.84)">
							</image>
						</g>
					</g>
				</g>
			</g>
		</g>
		<g>
			<defs>
				<path id="SVGID_00000122713847592091358980000010720188443988213908_" d="M21.2,88.4c0,0-0.2,6.5,7.2,11.6c0,0,1.9-5.2,6.1-4.8
					c0,0-11.1-6-0.5-16L33.7,74C33.7,74,20.3,76,21.2,88.4"/>
			</defs>
			<clipPath id="SVGID_00000061459417482391664210000001724722914652461754_">
				<use xlink:href="#SVGID_00000122713847592091358980000010720188443988213908_"  style="overflow:visible;"/>
			</clipPath>
			<g style="clip-path:url(#SVGID_00000061459417482391664210000001724722914652461754_);">
				<g>
					<defs>
						
							<rect id="SVGID_00000007399819539708365210000014658045877493950384_" x="19.8" y="73.7" transform="matrix(0.9994 -3.419795e-02 3.419795e-02 0.9994 -2.9574 0.9844)" width="14.9" height="26.4"/>
					</defs>
					<clipPath id="SVGID_00000114790464668746097270000007023476095982194079_">
						<use xlink:href="#SVGID_00000007399819539708365210000014658045877493950384_"  style="overflow:visible;"/>
					</clipPath>
					<g style="clip-path:url(#SVGID_00000114790464668746097270000007023476095982194079_);">
						<defs>
							
								<rect id="SVGID_00000131339731299638084430000011317067057763448214_" x="18.9" y="73.2" transform="matrix(0.9994 -3.450995e-02 3.450995e-02 0.9994 -2.9842 0.9938)" width="16.7" height="27.5"/>
						</defs>
						<clipPath id="SVGID_00000118396146586367538350000005156948419077136063_">
							<use xlink:href="#SVGID_00000131339731299638084430000011317067057763448214_"  style="overflow:visible;"/>
						</clipPath>
						<g style="clip-path:url(#SVGID_00000118396146586367538350000005156948419077136063_);">
							
								<image style="overflow:visible;" width="75" height="117" xlink:href="FD63423908CE7048.jpg"  transform="matrix(0.24 0 0 0.24 18.24 72.88)">
							</image>
						</g>
					</g>
				</g>
			</g>
		</g>
		<g>
			<defs>
				<path id="SVGID_00000006692271501510064470000009371794419758610587_" d="M62.1,72.3l0.8,9.7C73,82,63.3,93.5,63.3,93.5
					c4.2-0.7,6.4,4.3,6.4,4.3c6.9-5.6,6.3-12.1,6.3-12.1c-0.3-4.1-3.2-7.2-6.3-9.4C66,73.7,62.1,72.3,62.1,72.3"/>
			</defs>
			<clipPath id="SVGID_00000162319777589684652970000018420611263549620413_">
				<use xlink:href="#SVGID_00000006692271501510064470000009371794419758610587_"  style="overflow:visible;"/>
			</clipPath>
			<g style="clip-path:url(#SVGID_00000162319777589684652970000018420611263549620413_);">
				<g>
					<defs>
						
							<rect id="SVGID_00000171692328965363519970000007229581896412151487_" x="61.6" y="72" transform="matrix(0.9994 -3.419231e-02 3.419231e-02 0.9994 -2.8659 2.4183)" width="15.4" height="26"/>
					</defs>
					<clipPath id="SVGID_00000122722742809566064360000006453380489794102423_">
						<use xlink:href="#SVGID_00000171692328965363519970000007229581896412151487_"  style="overflow:visible;"/>
					</clipPath>
					<g style="clip-path:url(#SVGID_00000122722742809566064360000006453380489794102423_);">
						<defs>
							
								<rect id="SVGID_00000025404536135368337720000016047047307952357777_" x="60.7" y="71.5" transform="matrix(0.9994 -3.450968e-02 3.450968e-02 0.9994 -2.8921 2.4413)" width="17.2" height="27"/>
						</defs>
						<clipPath id="SVGID_00000101076256952720779020000009076192256180616101_">
							<use xlink:href="#SVGID_00000025404536135368337720000016047047307952357777_"  style="overflow:visible;"/>
						</clipPath>
						<g style="clip-path:url(#SVGID_00000101076256952720779020000009076192256180616101_);">
							
								<image style="overflow:visible;" width="77" height="116" xlink:href="FD63423908CE7046.jpg"  transform="matrix(0.24 0 0 0.24 60 71.2)">
							</image>
						</g>
					</g>
				</g>
			</g>
		</g>
		<g>
			<defs>
				<path id="SVGID_00000127031963903575405990000008425030212518292145_" d="M58,95.5c-1,1.2-0.7,2.9-0.7,2.9c0.8,1.1,4-1.4,4-1.4
					l-1.4,1.8c-1.5,2.4,0,2.4,0,2.4c0.2,0.1,9.8-4.3,9.8-4.3l-5.2-6.2L58,95.5z"/>
			</defs>
			<clipPath id="SVGID_00000103231349760938822740000007608475376669905579_">
				<use xlink:href="#SVGID_00000127031963903575405990000008425030212518292145_"  style="overflow:visible;"/>
			</clipPath>
			<g style="clip-path:url(#SVGID_00000103231349760938822740000007608475376669905579_);">
				<g>
					<defs>
						
							<rect id="SVGID_00000061432952607499435440000015936158200456870274_" x="55.2" y="87.6" transform="matrix(0.605 -0.7962 0.7962 0.605 -51.3602 88.2344)" width="16.1" height="16.5"/>
					</defs>
					<clipPath id="SVGID_00000082365242558533506090000011387621929066857863_">
						<use xlink:href="#SVGID_00000061432952607499435440000015936158200456870274_"  style="overflow:visible;"/>
					</clipPath>
					<g style="clip-path:url(#SVGID_00000082365242558533506090000011387621929066857863_);">
						<defs>
							
								<rect id="SVGID_00000003083482367126196450000011073749708838344854_" x="47.2" y="79.9" transform="matrix(0.605 -0.7962 0.7962 0.605 -51.36 88.233)" width="32" height="32.1"/>
						</defs>
						<clipPath id="SVGID_00000167382303397366093250000000787229623719391108_">
							<use xlink:href="#SVGID_00000003083482367126196450000011073749708838344854_"  style="overflow:visible;"/>
						</clipPath>
						<g style="clip-path:url(#SVGID_00000167382303397366093250000000787229623719391108_);">
							
								<image style="overflow:visible;" width="189" height="188" xlink:href="FD63423908CE7047.jpg"  transform="matrix(0.24 0 0 0.24 40.56 73.36)">
							</image>
						</g>
					</g>
				</g>
			</g>
		</g>
		<g>
			<defs>
				<path id="SVGID_00000036949031912321098040000001143604082298724285_" d="M33,124.5l0.2,0.7c0.1,0.3,2.1,4.3,2.1,4.3
					c1,0.2,1.2-1.7,1.2-1.7c0.1-0.1,0.5,0,0.5,0l0.3,1.4c0.7,0.5,1.5-0.1,1.5-0.1c1.5-1.2,2.3-4.8,2.3-4.8L33,124.5z"/>
			</defs>
			<clipPath id="SVGID_00000178911152831884407350000018025474693870207363_">
				<use xlink:href="#SVGID_00000036949031912321098040000001143604082298724285_"  style="overflow:visible;"/>
			</clipPath>
			<g style="clip-path:url(#SVGID_00000178911152831884407350000018025474693870207363_);">
				<g>
					<defs>
						
							<rect id="SVGID_00000151509244607302938480000004739204408234010760_" x="32.9" y="124.2" transform="matrix(1 -2.019458e-03 2.019458e-03 1 -0.2563 7.486682e-02)" width="8.1" height="5.5"/>
					</defs>
					<clipPath id="SVGID_00000013909862913986498220000009558988927050551182_">
						<use xlink:href="#SVGID_00000151509244607302938480000004739204408234010760_"  style="overflow:visible;"/>
					</clipPath>
					<g style="clip-path:url(#SVGID_00000013909862913986498220000009558988927050551182_);">
						<defs>
							
								<rect id="SVGID_00000057124354094138356850000016707141212818835090_" x="32.9" y="124.2" transform="matrix(1 -2.368598e-03 2.368598e-03 1 -0.3006 8.786289e-02)" width="8.1" height="5.5"/>
						</defs>
						<clipPath id="SVGID_00000095333796042812992740000004789113829394875793_">
							<use xlink:href="#SVGID_00000057124354094138356850000016707141212818835090_"  style="overflow:visible;"/>
						</clipPath>
						<g style="clip-path:url(#SVGID_00000095333796042812992740000004789113829394875793_);">
							
								<image style="overflow:visible;" width="34" height="24" xlink:href="FD63423908CE7057.jpg"  transform="matrix(0.24 0 0 0.24 32.88 124)">
							</image>
						</g>
					</g>
				</g>
			</g>
		</g>
		<g>
			<defs>
				<path id="SVGID_00000093139261845441563510000013364452569143552663_" d="M54.3,124.5l0.2,0.7c0.1,0.3,2.1,4.3,2.1,4.3
					c1,0.2,1.2-1.7,1.2-1.7c0.1-0.1,0.5,0,0.5,0l0.3,1.4c0.7,0.5,1.5-0.1,1.5-0.1c1.5-1.2,2.3-4.8,2.3-4.8L54.3,124.5z"/>
			</defs>
			<clipPath id="SVGID_00000159452532875605718690000012818974430470606229_">
				<use xlink:href="#SVGID_00000093139261845441563510000013364452569143552663_"  style="overflow:visible;"/>
			</clipPath>
			<g style="clip-path:url(#SVGID_00000159452532875605718690000012818974430470606229_);">
				<g>
					<defs>
						
							<rect id="SVGID_00000044858578123668420290000011419564023521065891_" x="54.2" y="124.2" transform="matrix(1 -2.019458e-03 2.019458e-03 1 -0.2562 0.1179)" width="8.1" height="5.5"/>
					</defs>
					<clipPath id="SVGID_00000121275161890406126180000017739947287130761116_">
						<use xlink:href="#SVGID_00000044858578123668420290000011419564023521065891_"  style="overflow:visible;"/>
					</clipPath>
					<g style="clip-path:url(#SVGID_00000121275161890406126180000017739947287130761116_);">
						<defs>
							
								<rect id="SVGID_00000150806169114520385370000007268664464585906048_" x="54.2" y="124.2" transform="matrix(1 -2.368598e-03 2.368598e-03 1 -0.3005 0.1383)" width="8.1" height="5.5"/>
						</defs>
						<clipPath id="SVGID_00000140720196084829151760000010628244681369273786_">
							<use xlink:href="#SVGID_00000150806169114520385370000007268664464585906048_"  style="overflow:visible;"/>
						</clipPath>
						<g style="clip-path:url(#SVGID_00000140720196084829151760000010628244681369273786_);">
							
								<image style="overflow:visible;" width="35" height="24" xlink:href="FD63423908CE7059.jpg"  transform="matrix(0.24 0 0 0.24 54 124)">
							</image>
						</g>
					</g>
				</g>
			</g>
		</g>
	</g>
</g>
<path d="M70.2,33.7c0-0.1-0.7-2-3.1-2.6c-1-0.2-4.1-0.5-4.4-0.5l-8.2-0.8c-1.6-0.1-3.2,0.4-4.4,1.6c-0.3,0.3-0.5,0.5-0.7,0.8
	c-0.7-0.1-1.5-0.2-2-0.3c-0.5,0-1.3-0.1-2-0.1c-0.2-0.3-0.3-0.6-0.6-0.9c-0.5-0.7-1.1-1.2-1.8-1.6c-0.7-0.4-1.5-0.6-2.3-0.7
	l-8.2-0.8c-0.3,0-3.4-0.3-4.5-0.3c-2.5,0.2-3.5,1.9-3.5,2c-0.1,0.1-0.1,0.2-0.1,0.3l-0.3,3c0,0.2,0.1,0.5,0.2,0.6l1.9,1.9l0.1,4.1
	c0,1.3,0.6,2.6,1.4,3.6c0.9,1,2.1,1.6,3.4,1.7l5.7,0.5c3.4,0.3,6.7-1.9,7.7-5.4l0.7-2.4c0.6,0,1.3,0,1.6,0c0.3,0,0.9,0.2,1.5,0.3
	l0.3,2.5c0.4,3.6,3.1,6.4,6.6,6.7l5.7,0.5c2.7,0.2,5.1-1.6,5.7-4.3l0.9-4l2.2-1.5c0.1-0.1,0.2-0.1,0.2-0.2c0.1-0.1,0.1-0.2,0.1-0.3
	l0.3-3C70.2,33.9,70.2,33.8,70.2,33.7L70.2,33.7z"/>
<path class="st26" d="M50,100c-13.5,0-26.2-5.4-35.4-14.6C5,75.8,0,63.5,0,50C0,22.3,22.3,0,50,0c13.5,0,25.8,5,35.4,14.6
	S100,36.5,100,50C100,77.7,77.7,100,50,100z M22.7,82.3c7.7,6.5,16.9,10,27.3,10c23.5,0,42.3-18.8,42.3-42.3c0-10-3.5-19.6-10-27.3
	L22.7,82.3z M50,7.7C26.5,7.7,7.7,26.5,7.7,50c0,10,3.5,19.6,9.6,26.9l59.6-59.6C69.6,11.2,60,7.7,50,7.7z"/>
</svg>
