<?xml version="1.0" encoding="utf-8"?>
<!-- Generator: Adobe Illustrator 27.7.0, SVG Export Plug-In . SVG Version: 6.00 Build 0)  -->
<svg version="1.1" id="Layer_1" xmlns="http://www.w3.org/2000/svg" xmlns:xlink="http://www.w3.org/1999/xlink" x="0px" y="0px"
	 viewBox="0 0 100 100" style="enable-background:new 0 0 100 100;" xml:space="preserve">
<style type="text/css">
	.st0{clip-path:url(#SVGID_00000149379494146971873760000012204277376465493650_);}
	.st1{fill:#0AA44A;}
	.st2{fill:#0F8342;}
	.st3{fill:#FBE795;}
	.st4{fill:#DEBA6C;}
	.st5{fill:#FFFFFF;}
	.st6{opacity:8.000000e-02;enable-background:new    ;}
	.st7{clip-path:url(#SVGID_00000158013291752870960450000001516234870399407529_);}
	.st8{clip-path:url(#SVGID_00000180332425443262725010000011961125640789975478_);}
	.st9{clip-path:url(#SVGID_00000176745499205691804140000003895552918030391483_);fill:#FFFFFF;}
	.st10{clip-path:url(#SVGID_00000166648892200072015470000008212750825575500441_);}
	.st11{clip-path:url(#SVGID_00000106828570158255339200000006807430223314663555_);}
	.st12{clip-path:url(#SVGID_00000009570196447598834790000017428779748735707582_);}
	.st13{clip-path:url(#SVGID_00000134237138471611020250000006592543202295965329_);}
	.st14{clip-path:url(#SVGID_00000008870835013079603610000014795916306061242038_);}
	.st15{clip-path:url(#SVGID_00000073719833322457649350000017378568265442209409_);}
	.st16{clip-path:url(#SVGID_00000081614249857724153040000017579889114441602478_);}
	.st17{clip-path:url(#SVGID_00000112621253422756809750000012450208077672850614_);}
	.st18{clip-path:url(#SVGID_00000043455348622469530840000005833466802973199254_);}
	.st19{clip-path:url(#SVGID_00000019655552741063191540000001467433914540041905_);}
	.st20{clip-path:url(#SVGID_00000067947117222786175750000016228042603227715003_);}
	.st21{clip-path:url(#SVGID_00000108306633327198588120000011613868378332688822_);}
	.st22{clip-path:url(#SVGID_00000093138850516280342560000015338112827354150584_);}
	.st23{clip-path:url(#SVGID_00000105426410188028173530000007646222518952137105_);}
	.st24{clip-path:url(#SVGID_00000071541926966665952160000001080703971021581954_);}
	.st25{clip-path:url(#SVGID_00000062877485715467769910000009352488459760680076_);}
	.st26{fill:#38CDDE;}
	.st27{fill:#16A4BC;}
	.st28{fill:#FFE26B;}
	.st29{fill:#FCC147;}
	.st30{fill:#D6D6D6;}
</style>
<g>
	<defs>
		<rect id="SVGID_1_" x="14" y="18.6" width="73.4" height="83.2"/>
	</defs>
	<clipPath id="SVGID_00000076586863520454676500000017362442917169552565_">
		<use xlink:href="#SVGID_1_"  style="overflow:visible;"/>
	</clipPath>
	<g style="clip-path:url(#SVGID_00000076586863520454676500000017362442917169552565_);">
		<path class="st1" d="M34.6,29.8c0,0,5-2.2,13.5-2.5c0,0,9.5-0.1,13.9,3.2c0,0,5.2,2.2,6.6,7.5c0,0,2.7,6.3,3.2,11.4
			c0,0,3.9,14.7-0.7,20.8c0,0-1.3,2.5-5.3,3.6c0,0-7.9,3.6-18.1,3.7c0,0-8.3,0.6-18.5-3.6c0,0-5.6-2.3-6.6-7.7c0,0,0-12.1,2-21.2
			C24.6,45,25.6,32.1,34.6,29.8"/>
		<path class="st2" d="M26.7,57.2c0,0-1.2-17.1,3.9-22.8c0,0,5.1-7.9,25.4-4.8c0,0,6.7,1.4,8.8,5.5c0,0,5.6,10.6,4.6,21.1L26.7,57.2
			z"/>
		<path class="st3" d="M30.9,48.7c0,0-3.1-4.1,0.9-5.9c0,0,3.2-2.2,6.5,1.6c0,0,8.8-2.9,20.2-0.4c0,0,2.2-3.3,6.3-1.3
			c0,0,3.4,1.8,1.2,5.7c0,0,3.9,2.2,4.1,11c0,0,1.3,10.7-5.1,12.9c0,0-8,3-15.7,2.6c0,0-12.3,0.4-18.5-2.7c0,0-4.2-3.3-4.2-5.4
			C26.7,66.9,26,52.4,30.9,48.7"/>
		<path class="st4" d="M33,70.1c0,0-4.3-6.5-2.5-13.2c0,0,0-9.3,11.1-11.2c0,0,9.6-3.2,20,1.7c0,0,3.8,1.4,4.5,8.1
			c0,0,1.3,11-2.8,14.6c0,0-8.3,3-15.1,2.2C48.2,72.3,34.8,72.4,33,70.1"/>
		<path class="st2" d="M28.2,82.2c0,0-4.3,6.4-2.8,20.3c0,0,3,11.7,5.7,17.2l2.8,6.4c0,0,7.2,0,7.6,0l2.2-5.4c0,0,4.6,1.2,8.9,0.1
			l2.2,5.3c0,0,4.8,0.6,7.7,0c0,0,5-12.3,5.3-13.5c0,0,3.4-7.4,3.3-17c0,0-0.7-18.4-9.7-21.8c0,0-14.9,3.4-25.1,0.6
			C36.2,74.4,29.3,79.1,28.2,82.2"/>
		<path class="st1" d="M44.4,117.6c0,0-11.3-2.1-14.4-17.2c0,0-0.6-12.3,3.6-17.3c0,0,4.6-9.1,18.6-6.8c0,0,10.3,1.7,13.2,13.4
			c0,0,3.9,14.3-6,23.8C59.4,113.5,53.1,119.6,44.4,117.6"/>
		<g>
			<path class="st5" d="M47.8,106c-1.5,0-2.9-0.3-4.2-0.8c-1.3-0.6-2.5-1.3-3.5-2.3c-1-1-1.8-2.1-2.4-3.4c-0.6-1.3-0.9-2.7-0.9-4.2
				c0-1.5,0.3-2.9,0.8-4.2c0.6-1.3,1.3-2.5,2.3-3.5c1-1,2.1-1.8,3.4-2.4c1.3-0.6,2.7-0.9,4.3-0.9c0,0,0.1,0,0.1,0
				c1.5,0,2.9,0.3,4.2,0.8c1.3,0.6,2.5,1.4,3.5,2.3c1,1,1.8,2.2,2.4,3.5c0.6,1.3,0.9,2.7,0.9,4.2c0,1.5-0.3,2.9-0.8,4.3
				c-0.6,1.3-1.4,2.5-2.3,3.5c-1,1-2.1,1.8-3.5,2.4C50.8,105.7,49.3,106,47.8,106C47.8,106,47.8,106,47.8,106 M47.7,84.7
				C47.7,84.7,47.7,84.7,47.7,84.7c-1.5,0-2.8,0.3-4.1,0.9c-1.2,0.6-2.3,1.3-3.2,2.3c-0.9,0.9-1.7,2.1-2.2,3.3
				c-0.5,1.2-0.8,2.6-0.8,4c0,1.4,0.3,2.8,0.8,4c0.5,1.2,1.3,2.3,2.2,3.2c0.9,0.9,2,1.7,3.3,2.2c1.2,0.5,2.6,0.8,4,0.8
				c1.4,0,2.7-0.3,4-0.8c1.2-0.5,2.3-1.3,3.3-2.2c0.9-0.9,1.7-2,2.2-3.3c0.5-1.2,0.8-2.6,0.8-4c0-1.4-0.3-2.7-0.9-3.9
				c-0.6-1.2-1.3-2.3-2.3-3.3c-0.9-0.9-2-1.7-3.3-2.2C50.4,85,49.1,84.7,47.7,84.7 M47.8,103c-1.1,0-2.1-0.2-3-0.6
				c-1-0.4-1.8-1-2.5-1.7c-0.7-0.7-1.3-1.6-1.7-2.5c-0.4-1-0.6-2-0.6-3.1c0-1.1,0.2-2.1,0.6-3.1c0.4-1,1-1.8,1.7-2.6
				c0.7-0.7,1.5-1.3,2.5-1.7c1-0.4,2-0.6,3-0.7c1.1,0,2.1,0.2,3,0.6c0.9,0.4,1.8,1,2.5,1.7c0.7,0.7,1.3,1.6,1.7,2.5
				c0.4,1,0.6,2,0.6,3.1c0,1.1-0.2,2.2-0.6,3.1c-0.4,1-1,1.8-1.7,2.5c-0.7,0.7-1.5,1.3-2.5,1.7C50,102.8,49,103,47.8,103
				C47.9,103,47.9,103,47.8,103 M47.8,87.7C47.8,87.7,47.7,87.7,47.8,87.7c-1,0-2,0.2-2.8,0.6c-0.9,0.4-1.6,0.9-2.3,1.6
				c-0.6,0.7-1.1,1.5-1.5,2.3c-0.4,0.9-0.5,1.9-0.5,2.9c0,1,0.2,2,0.6,2.8c0.4,0.9,0.9,1.7,1.6,2.3c0.7,0.6,1.4,1.2,2.3,1.5
				c0.9,0.4,1.8,0.6,2.8,0.5c1,0,1.9-0.2,2.8-0.6c0.9-0.4,1.6-0.9,2.3-1.6c0.6-0.7,1.2-1.4,1.5-2.3C54.8,97,55,96,55,95
				c0-1-0.2-2-0.6-2.8c-0.4-0.9-0.9-1.7-1.6-2.3c-0.7-0.6-1.4-1.2-2.3-1.5C49.7,87.9,48.7,87.7,47.8,87.7"/>
			<path class="st5" d="M40.3,95.3c0,1.1,0.2,2,0.6,3c0.4,0.9,0.9,1.7,1.6,2.4c0.7,0.7,1.5,1.2,2.4,1.6c0.9,0.4,1.9,0.6,2.9,0.6
				c1,0,2-0.2,2.9-0.6c0.9-0.4,1.7-1,2.4-1.7c0.7-0.7,1.2-1.5,1.6-2.4c0.4-0.9,0.6-1.9,0.6-3c0-1.1-0.2-2-0.6-3
				c-0.4-0.9-0.9-1.7-1.6-2.4c-0.7-0.7-1.5-1.2-2.4-1.6c-0.9-0.4-1.9-0.6-2.9-0.6c-1,0-2,0.2-2.9,0.6c-0.9,0.4-1.7,1-2.4,1.7
				c-0.7,0.7-1.2,1.5-1.6,2.5C40.4,93.3,40.3,94.3,40.3,95.3"/>
			<path class="st1" d="M53.1,95c0-0.2,0.1-0.4,0.1-0.6c0-1.7-1.4-3.1-3.1-3.1c-1.3,0-2.4,0.8-2.9,1.9c-0.4-0.2-0.8-0.4-1.3-0.4
				c-1.2,0-2.3,1-2.4,2.2c-0.7,0.3-1.1,1-1.1,1.8c0,1.1,0.9,2,2,2l2.8,0c0.1,0,0.1-0.2,0.1-0.2l0-1.3c0-0.1-0.1-0.2-0.2-0.2l-0.5,0
				c-0.1,0-0.1-0.1-0.1-0.2l1.6-2.2c0.1-0.1,0.2-0.1,0.2,0L50,97c0.1,0.1,0,0.2-0.1,0.2l-0.5,0c-0.1,0-0.2,0.1-0.2,0.2l0,1.3
				c0,0,0,0.2,0.2,0.2l2.8,0c1.1,0,2-0.9,2-2C54.1,96,53.7,95.4,53.1,95"/>
		</g>
		<g class="st6">
			<g>
				<defs>
					<rect id="SVGID_00000183947863287951693380000003739168494941544323_" x="28.8" y="80.5" width="32.6" height="36.7"/>
				</defs>
				<clipPath id="SVGID_00000044890985499008345970000017982691079617044105_">
					<use xlink:href="#SVGID_00000183947863287951693380000003739168494941544323_"  style="overflow:visible;"/>
				</clipPath>
				<g style="clip-path:url(#SVGID_00000044890985499008345970000017982691079617044105_);">
					<defs>
						
							<rect id="SVGID_00000172434191866274903000000014345649472453847722_" x="32.3" y="82" transform="matrix(0.581 -0.8139 0.8139 0.581 -61.8206 78.0815)" width="25.3" height="34.2"/>
					</defs>
					<clipPath id="SVGID_00000169553484547566355800000000565122588085468823_">
						<use xlink:href="#SVGID_00000172434191866274903000000014345649472453847722_"  style="overflow:visible;"/>
					</clipPath>
					<g style="clip-path:url(#SVGID_00000169553484547566355800000000565122588085468823_);">
						<defs>
							<rect id="SVGID_00000069374560578669301800000003884400106597406338_" x="23.3" y="78.5" width="43.5" height="41.4"/>
						</defs>
						<clipPath id="SVGID_00000138573141080223247860000016897844329133195423_">
							<use xlink:href="#SVGID_00000069374560578669301800000003884400106597406338_"  style="overflow:visible;"/>
						</clipPath>
						<path style="clip-path:url(#SVGID_00000138573141080223247860000016897844329133195423_);fill:#FFFFFF;" d="M55.4,113.1
							c-5.3,4-14.4,0.9-20.1-6.9C29.5,98.5,29.1,89,34.5,85c5.3-4,14.4-0.9,20.1,6.9C60.4,99.7,60.7,109.2,55.4,113.1"/>
					</g>
				</g>
			</g>
		</g>
		<g>
			<path class="st5" d="M62.1,32.6c-0.6-0.6-1.2-0.9-1.8-1.1c-0.7-0.2-1.5-0.4-2.2-0.6c-0.7-0.2-1.3-0.1-1.9,0.1
				c-1.2,0.5-2.4,1-3.6,1.5c-1.4,0.6-2.9,1.2-4.3,1.8c-0.5,0.2-1,0.4-1.6,0.5c0-0.6-0.1-1.1-0.1-1.6C46,33.2,46,33.5,46,33.8
				c0.1,1.1,0.1,2.3,0.6,3.3c1.2,3,4.6,4.5,7.9,3.5c2.9-0.9,4.7-3.4,4.4-6.4c-0.1-0.6-0.2-1.1-0.4-1.7C59.7,32,60.8,32.6,62.1,32.6z
				 M45.2,35.3c-1.1-0.4-2.1-0.7-3.1-1.1c-1.4-0.6-2.8-1.2-4.2-1.8c-1.4-0.6-1.5-0.6-2.7,0.3c-0.6,0.4-1.1,0.8-1.7,1.3
				c0.4,0.1,0.8,0,1.2,0.1c0.4,0.1,0.9,0.2,1.2,0.4c0.1,0.1,0.1,0.5,0.1,0.8c0,0.1,0,0.1,0,0.2c0.1,1.9,1.1,3.3,2.8,4.2
				c1.8,0.8,3.5,0.7,5-0.5c1.9-1.5,1.9-3.5,1.8-5.6c0-0.1-0.2-0.2-0.3-0.3c0,0-0.1,0.1-0.1,0.1C45.2,34,45.2,34.6,45.2,35.3z"/>
			<path d="M62.1,32.6c-1.3,0-2.4-0.6-3.6-0.1c0.1,0.6,0.3,1.1,0.4,1.7c0.3,2.9-1.5,5.5-4.4,6.4c-3.2,1-6.7-0.5-7.9-3.5
				c-0.4-1-0.4-2.2-0.6-3.3c0-0.3,0-0.6,0.5-0.4c0,0.5,0.1,1,0.1,1.6c0.6-0.2,1.1-0.3,1.6-0.5c1.4-0.6,2.9-1.2,4.3-1.8
				c1.2-0.5,2.4-1,3.6-1.5c0.6-0.3,1.2-0.4,1.9-0.1c0.7,0.2,1.5,0.4,2.2,0.6C60.9,31.7,61.5,32,62.1,32.6z M46.9,36.4
				c0.9,2.3,2.6,3.6,5,3.8c2.3,0.2,4.2-0.6,5.5-2.6c1-1.5,1.2-3.2,0.5-4.8c-1.5,0.7-3,1.3-4.5,2c0.1,0.9-0.1,1.4-0.6,1.6
				c-0.6,0.2-1,0-1.6-0.6c-0.1-0.1-0.4-0.2-0.5-0.1C49.4,35.9,48.2,36.1,46.9,36.4z"/>
			<path d="M45.2,35.3c0-0.7,0-1.3,0-1.9c0,0,0.1-0.1,0.1-0.1c0.1,0.1,0.3,0.2,0.3,0.3c0.2,2.1,0.1,4.2-1.8,5.6
				c-1.5,1.2-3.3,1.4-5,0.5c-1.7-0.8-2.7-2.2-2.8-4.2c0-0.1,0-0.1,0-0.2c0-0.3,0.1-0.7-0.1-0.8c-0.3-0.2-0.8-0.3-1.2-0.4
				c-0.4-0.1-0.8,0-1.2-0.1c0.6-0.4,1.1-0.9,1.7-1.3c1.2-0.9,1.4-0.9,2.7-0.3c1.4,0.6,2.8,1.2,4.2,1.8
				C43.1,34.7,44.1,34.9,45.2,35.3z M44.3,36.1c0,0.1-0.1,0.2-0.1,0.2c-0.2,0.4-0.5,0.8-1,0.7c-0.5-0.1-0.7-0.4-0.9-0.8
				c0-0.1-0.2-0.2-0.4-0.3c-1.3-0.3-2.7-0.6-4-0.9c-0.5-0.1-1-0.2-1.4-0.3c-0.5,2,1.2,4.4,3.4,4.9c2.3,0.5,4.7-1.1,5.1-3.5
				C44.8,36.1,44.6,36.1,44.3,36.1z"/>
			<path class="st5" d="M46.9,36.4c1.3-0.3,2.6-0.6,3.8-0.9c0.2,0,0.4,0,0.5,0.1c0.6,0.7,1,0.9,1.6,0.6c0.5-0.2,0.7-0.7,0.6-1.6
				c1.5-0.6,3-1.3,4.5-2c0.7,1.6,0.5,3.3-0.5,4.8c-1.3,2-3.2,2.9-5.5,2.6C49.5,40,47.8,38.7,46.9,36.4z"/>
			<path class="st5" d="M44.3,36.1c0.3,0,0.6,0.1,0.8,0.1c-0.4,2.4-2.8,4-5.1,3.5c-2.3-0.5-4-2.9-3.4-4.9c0.5,0.1,1,0.2,1.4,0.3
				c1.3,0.3,2.7,0.6,4,0.9c0.1,0,0.3,0.2,0.4,0.3c0.1,0.5,0.3,0.8,0.9,0.8c0.5,0.1,0.8-0.3,1-0.7C44.2,36.2,44.2,36.2,44.3,36.1z"/>
		</g>
		<path class="st5" d="M46,65.1c0,0-3.4-1.1-3.6-1.4c-0.1-0.3-1-2.7-1-2.7l5.4,0.8l4.3-0.8l3.4-0.9l-0.3,1.5l-1.4,2.4l-6.7,1.2H46z"
			/>
		<g>
			<path d="M56.3,57.7c0.7-0.1,1.1,0.2,1.2,1c-0.4-0.5-0.7-0.3-1-0.1c-0.8,0.5-1.2,1.2-1.6,2.1c-1.2,2.8-3,4.8-6.1,5.4
				c-3.5,0.6-6.7-1.1-8-4.4c-0.3-0.9-0.7-1.7-1.5-2.3c-0.2-0.2-0.4-0.4-0.5-0.7c-0.3-0.4-0.5-0.8-0.9,0.1c0.1-0.9,0.4-1.1,1.4-1.1
				c-0.5,0.2-0.5,0.5-0.2,0.9c0.9,1.2,2,2.2,3.6,2.5c4.2,0.7,8.4,0.5,12.3-1.6c0.5-0.3,1-0.7,1.5-1C56.9,58.1,56.9,57.9,56.3,57.7z
				 M42,61.2c0.2,0.7,0.7,1.2,1,1.8c0.3,0.5,0.6,0.5,0.8,0c0.3-0.6,0.7-0.6,1.3-0.5c1.9,0.5,3.8,0.5,5.7,0c0.6-0.2,1.1-0.2,1.6,0.4
				c0.2,0.2,0.4,0.4,0.6,0c0.5-0.8,0.8-1.7,1.1-2.6C50.1,61.8,46.1,62.1,42,61.2z"/>
			<path d="M52,66c-1.6,2.4-6.2,2.6-8.1,0.1c1.4,0.9,2.7,1.4,4.2,1.4C49.6,67.6,50.9,67,52,66z"/>
		</g>
		<g>
			<defs>
				<path id="SVGID_00000155132279939018205090000005183684714688600972_" d="M33.2,95.9l-4.7,6.4c0,0,9.8,3.7,9.9,3.6
					c0,0,1.4-0.1-0.2-2.3l-1.5-1.7c0,0,3.2,2.2,4,1.1c0,0,0.2-1.6-0.8-2.8L33.2,95.9z"/>
			</defs>
			<clipPath id="SVGID_00000089565888151914319210000006492376410570228871_">
				<use xlink:href="#SVGID_00000155132279939018205090000005183684714688600972_"  style="overflow:visible;"/>
			</clipPath>
			<g style="clip-path:url(#SVGID_00000089565888151914319210000006492376410570228871_);">
				<g>
					<defs>
						
							<rect id="SVGID_00000062172993832797657200000010220934942427664788_" x="26.7" y="92.9" transform="matrix(0.7529 -0.6582 0.6582 0.7529 -57.7841 47.7611)" width="16" height="15.8"/>
					</defs>
					<clipPath id="SVGID_00000054264804378599345990000004738913846577469598_">
						<use xlink:href="#SVGID_00000062172993832797657200000010220934942427664788_"  style="overflow:visible;"/>
					</clipPath>
					<g style="clip-path:url(#SVGID_00000054264804378599345990000004738913846577469598_);">
						<defs>
							
								<rect id="SVGID_00000067199788316653794040000013729696045197811343_" x="18.8" y="85" transform="matrix(0.7528 -0.6583 0.6583 0.7528 -57.7923 47.7752)" width="31.7" height="31.7"/>
						</defs>
						<clipPath id="SVGID_00000076596770199445429580000001899155111066951342_">
							<use xlink:href="#SVGID_00000067199788316653794040000013729696045197811343_"  style="overflow:visible;"/>
						</clipPath>
						<g style="clip-path:url(#SVGID_00000076596770199445429580000001899155111066951342_);">
							
								<image style="overflow:visible;" width="187" height="187" xlink:href="9BF9E27ACC07682.jpg"  transform="matrix(0.24 0 0 0.24 12.24 78.4)">
							</image>
						</g>
					</g>
				</g>
			</g>
		</g>
		<g>
			<defs>
				<path id="SVGID_00000132785115797174078800000005777107287553118108_" d="M60.5,45.6c0,0,1.1,2,3.2,0.7c0,0,1.8-1.1,0.3-2.9
					c-0.1-0.1-0.3-0.3-0.4-0.4C62.2,41.9,59.9,43.7,60.5,45.6"/>
			</defs>
			<clipPath id="SVGID_00000129200787761875854640000002175202398330947251_">
				<use xlink:href="#SVGID_00000132785115797174078800000005777107287553118108_"  style="overflow:visible;"/>
			</clipPath>
			<g style="clip-path:url(#SVGID_00000129200787761875854640000002175202398330947251_);">
				<g>
					<defs>
						
							<rect id="SVGID_00000049222488071352680180000014514887358487489436_" x="58.8" y="40.8" transform="matrix(0.8418 -0.5397 0.5397 0.8418 -14.2095 40.8948)" width="7.8" height="7.8"/>
					</defs>
					<clipPath id="SVGID_00000144307399693283888750000007943163544914266256_">
						<use xlink:href="#SVGID_00000049222488071352680180000014514887358487489436_"  style="overflow:visible;"/>
					</clipPath>
					<g style="clip-path:url(#SVGID_00000144307399693283888750000007943163544914266256_);">
						<defs>
							
								<rect id="SVGID_00000022538913837481112350000015244074880956739237_" x="55.2" y="37.2" transform="matrix(0.8418 -0.5398 0.5398 0.8418 -14.2097 40.9006)" width="14.9" height="14.9"/>
						</defs>
						<clipPath id="SVGID_00000158715411813978947750000003770160892868727200_">
							<use xlink:href="#SVGID_00000022538913837481112350000015244074880956739237_"  style="overflow:visible;"/>
						</clipPath>
						<g style="clip-path:url(#SVGID_00000158715411813978947750000003770160892868727200_);">
							
								<image style="overflow:visible;" width="86" height="87" xlink:href="9BF9E27ACC07686.jpg"  transform="matrix(0.24 0 0 0.24 52.32 34.24)">
							</image>
						</g>
					</g>
				</g>
			</g>
		</g>
		<g>
			<defs>
				<path id="SVGID_00000063592947511331720080000008023803044436566165_" d="M31.4,45.8c0,0,1.1,2,3.2,0.7c0,0,1.8-1.1,0.3-2.9
					c-0.1-0.1-0.3-0.3-0.4-0.4C33.1,42.2,30.9,44,31.4,45.8"/>
			</defs>
			<clipPath id="SVGID_00000151544931269370901980000017578103144427183244_">
				<use xlink:href="#SVGID_00000063592947511331720080000008023803044436566165_"  style="overflow:visible;"/>
			</clipPath>
			<g style="clip-path:url(#SVGID_00000151544931269370901980000017578103144427183244_);">
				<g>
					<defs>
						
							<rect id="SVGID_00000169529841946107681980000002894248698888684476_" x="29.7" y="41.1" transform="matrix(0.8418 -0.5397 0.5397 0.8418 -18.9548 25.2389)" width="7.8" height="7.8"/>
					</defs>
					<clipPath id="SVGID_00000045581536327667495430000000477171248614965173_">
						<use xlink:href="#SVGID_00000169529841946107681980000002894248698888684476_"  style="overflow:visible;"/>
					</clipPath>
					<g style="clip-path:url(#SVGID_00000045581536327667495430000000477171248614965173_);">
						<defs>
							
								<rect id="SVGID_00000132088356438808532370000013344821490135436967_" x="26.1" y="37.5" transform="matrix(0.8418 -0.5398 0.5398 0.8418 -18.9562 25.2429)" width="14.9" height="14.9"/>
						</defs>
						<clipPath id="SVGID_00000173136105031628424270000011116815978402379694_">
							<use xlink:href="#SVGID_00000132088356438808532370000013344821490135436967_"  style="overflow:visible;"/>
						</clipPath>
						<g style="clip-path:url(#SVGID_00000173136105031628424270000011116815978402379694_);">
							
								<image style="overflow:visible;" width="86" height="87" xlink:href="9BF9E27ACC07681.jpg"  transform="matrix(0.24 0 0 0.24 23.28 34.48)">
							</image>
						</g>
					</g>
				</g>
			</g>
		</g>
		<g>
			<defs>
				<path id="SVGID_00000055684027175884220420000011601181534045378494_" d="M22,90.3c0,0-0.2,6.4,7.1,11.5c0,0,1.8-5.1,6-4.7
					c0,0-10.9-5.9-0.5-15.8l-0.2-5.1C34.3,76.2,21.2,78.2,22,90.3"/>
			</defs>
			<clipPath id="SVGID_00000150079039112179782190000015643943918896367245_">
				<use xlink:href="#SVGID_00000055684027175884220420000011601181534045378494_"  style="overflow:visible;"/>
			</clipPath>
			<g style="clip-path:url(#SVGID_00000150079039112179782190000015643943918896367245_);">
				<g>
					<defs>
						
							<rect id="SVGID_00000045580390768392624910000002466881835307718307_" x="20.7" y="75.9" transform="matrix(0.9994 -3.419793e-02 3.419793e-02 0.9994 -3.0245 1.0121)" width="14.7" height="26"/>
					</defs>
					<clipPath id="SVGID_00000156558513688742548400000005543247559220691089_">
						<use xlink:href="#SVGID_00000045580390768392624910000002466881835307718307_"  style="overflow:visible;"/>
					</clipPath>
					<g style="clip-path:url(#SVGID_00000156558513688742548400000005543247559220691089_);">
						<defs>
							
								<rect id="SVGID_00000124148223534755971050000001538873585039856773_" x="19.8" y="75.4" transform="matrix(0.9994 -3.450995e-02 3.450995e-02 0.9994 -3.052 1.0218)" width="16.5" height="27"/>
						</defs>
						<clipPath id="SVGID_00000166673028037365527500000014637659502692226993_">
							<use xlink:href="#SVGID_00000124148223534755971050000001538873585039856773_"  style="overflow:visible;"/>
						</clipPath>
						<g style="clip-path:url(#SVGID_00000166673028037365527500000014637659502692226993_);">
							
								<image style="overflow:visible;" width="74" height="116" xlink:href="9BF9E27ACC07683.jpg"  transform="matrix(0.24 0 0 0.24 19.2 75.04)">
							</image>
						</g>
					</g>
				</g>
			</g>
		</g>
		<g>
			<defs>
				<path id="SVGID_00000072259600406658705820000013184262714485737901_" d="M62.3,74.5l0.8,9.6c9.9-0.1,0.4,11.2,0.4,11.2
					c4.1-0.7,6.3,4.3,6.3,4.3c6.8-5.5,6.2-11.9,6.2-11.9c-0.3-4-3.2-7.1-6.2-9.3C66.2,75.8,62.3,74.5,62.3,74.5"/>
			</defs>
			<clipPath id="SVGID_00000160885527442797505050000014045927673845224096_">
				<use xlink:href="#SVGID_00000072259600406658705820000013184262714485737901_"  style="overflow:visible;"/>
			</clipPath>
			<g style="clip-path:url(#SVGID_00000160885527442797505050000014045927673845224096_);">
				<g>
					<defs>
						
							<rect id="SVGID_00000054955699153443188310000005778633294090501771_" x="61.8" y="74.2" transform="matrix(0.9994 -3.419231e-02 3.419231e-02 0.9994 -2.9344 2.4244)" width="15.2" height="25.6"/>
					</defs>
					<clipPath id="SVGID_00000114762635180936460440000007320787045440204449_">
						<use xlink:href="#SVGID_00000054955699153443188310000005778633294090501771_"  style="overflow:visible;"/>
					</clipPath>
					<g style="clip-path:url(#SVGID_00000114762635180936460440000007320787045440204449_);">
						<defs>
							
								<rect id="SVGID_00000002379503198205603660000013703764481120266640_" x="61" y="73.7" transform="matrix(0.9994 -3.450979e-02 3.450979e-02 0.9994 -2.9613 2.4474)" width="16.9" height="26.6"/>
						</defs>
						<clipPath id="SVGID_00000132795224919554276420000007747025457566925224_">
							<use xlink:href="#SVGID_00000002379503198205603660000013703764481120266640_"  style="overflow:visible;"/>
						</clipPath>
						<g style="clip-path:url(#SVGID_00000132795224919554276420000007747025457566925224_);">
							
								<image style="overflow:visible;" width="75" height="114" xlink:href="9BF9E27ACC07680.jpg"  transform="matrix(0.24 0 0 0.24 60.48 73.36)">
							</image>
						</g>
					</g>
				</g>
			</g>
		</g>
		<g>
			<defs>
				<path id="SVGID_00000109021273005825404050000000500248905096350872_" d="M58.3,97.3c-1,1.2-0.7,2.8-0.7,2.8
					c0.8,1,3.9-1.4,3.9-1.4l-1.4,1.8c-1.4,2.3,0,2.3,0,2.3c0.2,0.1,9.7-4.2,9.7-4.2l-5.1-6.1L58.3,97.3z"/>
			</defs>
			<clipPath id="SVGID_00000029039309853080756920000001621586552463364519_">
				<use xlink:href="#SVGID_00000109021273005825404050000000500248905096350872_"  style="overflow:visible;"/>
			</clipPath>
			<g style="clip-path:url(#SVGID_00000029039309853080756920000001621586552463364519_);">
				<g>
					<defs>
						
							<rect id="SVGID_00000173159164483847132210000003008068116874298247_" x="55.5" y="89.6" transform="matrix(0.605 -0.7962 0.7962 0.605 -52.733 89.1475)" width="15.9" height="16.3"/>
					</defs>
					<clipPath id="SVGID_00000013894389699985774680000011216363715341818035_">
						<use xlink:href="#SVGID_00000173159164483847132210000003008068116874298247_"  style="overflow:visible;"/>
					</clipPath>
					<g style="clip-path:url(#SVGID_00000013894389699985774680000011216363715341818035_);">
						<defs>
							
								<rect id="SVGID_00000178190899062301989210000005171406672544025738_" x="47.7" y="81.9" transform="matrix(0.605 -0.7962 0.7962 0.605 -52.7328 89.1462)" width="31.6" height="31.6"/>
						</defs>
						<clipPath id="SVGID_00000044887589918202831400000018040356857321856389_">
							<use xlink:href="#SVGID_00000178190899062301989210000005171406672544025738_"  style="overflow:visible;"/>
						</clipPath>
						<g style="clip-path:url(#SVGID_00000044887589918202831400000018040356857321856389_);">
							
								<image style="overflow:visible;" width="185" height="185" xlink:href="9BF9E27ACC0768E.jpg"  transform="matrix(0.24 0 0 0.24 41.28 75.52)">
							</image>
						</g>
					</g>
				</g>
			</g>
		</g>
		<g>
			<defs>
				<path id="SVGID_00000065061726507330422330000010383896684101891761_" d="M33.7,125.9l0.2,0.7c0.1,0.3,2.1,4.3,2.1,4.3
					c1,0.2,1.2-1.7,1.2-1.7c0.1-0.1,0.5,0,0.5,0l0.3,1.4c0.7,0.5,1.5-0.1,1.5-0.1c1.5-1.2,2.2-4.7,2.2-4.7L33.7,125.9z"/>
			</defs>
			<clipPath id="SVGID_00000083079451090174872260000012427454792878153101_">
				<use xlink:href="#SVGID_00000065061726507330422330000010383896684101891761_"  style="overflow:visible;"/>
			</clipPath>
			<g style="clip-path:url(#SVGID_00000083079451090174872260000012427454792878153101_);">
				<g>
					<defs>
						
							<rect id="SVGID_00000055689415642345840540000006953952181195503001_" x="33.6" y="125.6" transform="matrix(1 -2.019993e-03 2.019993e-03 1 -0.2591 7.616688e-02)" width="7.9" height="5.4"/>
					</defs>
					<clipPath id="SVGID_00000093172581676551668220000014180267172489311115_">
						<use xlink:href="#SVGID_00000055689415642345840540000006953952181195503001_"  style="overflow:visible;"/>
					</clipPath>
					<g style="clip-path:url(#SVGID_00000093172581676551668220000014180267172489311115_);">
						<defs>
							
								<rect id="SVGID_00000032614627353170334150000014099257945239580558_" x="33.6" y="125.6" transform="matrix(1 -2.368304e-03 2.368304e-03 1 -0.3038 8.935340e-02)" width="8" height="5.4"/>
						</defs>
						<clipPath id="SVGID_00000039128339202255117280000006697133624519619494_">
							<use xlink:href="#SVGID_00000032614627353170334150000014099257945239580558_"  style="overflow:visible;"/>
						</clipPath>
						<g style="clip-path:url(#SVGID_00000039128339202255117280000006697133624519619494_);">
							
								<image style="overflow:visible;" width="35" height="24" xlink:href="9BF9E27ACC07685.jpg"  transform="matrix(0.24 0 0 0.24 33.36 125.44)">
							</image>
						</g>
					</g>
				</g>
			</g>
		</g>
		<g>
			<defs>
				<path id="SVGID_00000132088356565849854050000007404522724337746335_" d="M54.7,125.9l0.2,0.7c0.1,0.3,2.1,4.3,2.1,4.3
					c1,0.2,1.2-1.7,1.2-1.7c0.1-0.1,0.5,0,0.5,0l0.3,1.4c0.7,0.5,1.5-0.1,1.5-0.1c1.5-1.2,2.2-4.7,2.2-4.7L54.7,125.9z"/>
			</defs>
			<clipPath id="SVGID_00000159465177796160111480000017809750163672224174_">
				<use xlink:href="#SVGID_00000132088356565849854050000007404522724337746335_"  style="overflow:visible;"/>
			</clipPath>
			<g style="clip-path:url(#SVGID_00000159465177796160111480000017809750163672224174_);">
				<g>
					<defs>
						
							<rect id="SVGID_00000183929865000724185280000009959749357965730232_" x="54.6" y="125.6" transform="matrix(1 -2.019993e-03 2.019993e-03 1 -0.2591 0.1185)" width="7.9" height="5.4"/>
					</defs>
					<clipPath id="SVGID_00000078731054303091567850000014130172817632567486_">
						<use xlink:href="#SVGID_00000183929865000724185280000009959749357965730232_"  style="overflow:visible;"/>
					</clipPath>
					<g style="clip-path:url(#SVGID_00000078731054303091567850000014130172817632567486_);">
						<defs>
							
								<rect id="SVGID_00000016051650777408685820000003640425017443238580_" x="54.6" y="125.6" transform="matrix(1 -2.368304e-03 2.368304e-03 1 -0.3037 0.139)" width="8" height="5.4"/>
						</defs>
						<clipPath id="SVGID_00000046327965214750441720000001443378484120091311_">
							<use xlink:href="#SVGID_00000016051650777408685820000003640425017443238580_"  style="overflow:visible;"/>
						</clipPath>
						<g style="clip-path:url(#SVGID_00000046327965214750441720000001443378484120091311_);">
							
								<image style="overflow:visible;" width="34" height="24" xlink:href="9BF9E27ACC07687.jpg"  transform="matrix(0.24 0 0 0.24 54.48 125.44)">
							</image>
						</g>
					</g>
				</g>
			</g>
		</g>
	</g>
</g>
<path class="st26" d="M69.6,35.1c-6.6,1.5-13.7,1.6-20.7,0.6c-3-0.5-6-1.1-8.8-2c-3.8-1.2-7.4-2.7-10.7-4.6L53.8,3.5L69.6,35.1z"/>
<path class="st27" d="M53.8,3.5L40.1,33.6c-3.8-1.2-7.4-2.7-10.7-4.6L53.8,3.5z"/>
<path class="st28" d="M60.9,17.8c-5.2,0.5-9.8,0.5-13.8,0.3c-2.5-0.2-4.7-0.4-6.7-0.7l5.3-5.6c1.3,0.1,2.6,0.2,4.1,0.3
	c2.5,0.1,5.2,0.1,8.2-0.1L60.9,17.8z M66.6,29c-10.1,1.7-18.5,1.6-24.8,0.9c-5.1-0.6-8.9-1.5-11.2-2.2l0,0l2.8-2.9l1.3-1.4l0.7-0.7
	c2.4,0.5,5.4,1,9,1.4c5.3,0.4,11.8,0.5,19.3-0.6L66.6,29z"/>
<path class="st29" d="M44.4,24l-2.7,5.9c-5.1-0.6-8.9-1.5-11.2-2.2l2.8-2.9l1.3-1.4l0.7-0.7C37.8,23.2,40.8,23.7,44.4,24z
	 M49.9,12.1l-2.7,6c-2.5-0.2-4.7-0.4-6.7-0.7l5.3-5.6C47.1,11.9,48.4,12,49.9,12.1z"/>
<path class="st30" d="M50,100c-13.5,0-26.2-5.4-35.4-14.6C5,75.8,0,63.5,0,50C0,22.3,22.3,0,50,0c13.5,0,25.8,5,35.4,14.6
	S100,36.5,100,50C100,77.7,77.7,100,50,100z M22.7,82.3c7.7,6.5,16.9,10,27.3,10c23.5,0,42.3-18.8,42.3-42.3c0-10-3.5-19.6-10-27.3
	L22.7,82.3z M50,7.7C26.5,7.7,7.7,26.5,7.7,50c0,10,3.5,19.6,9.6,26.9l59.6-59.6C69.6,11.2,60,7.7,50,7.7z"/>
</svg>
