<?xml version="1.0" encoding="UTF-8"?>
<svg width="25px" height="25px" viewBox="0 0 25 25" version="1.1" xmlns="http://www.w3.org/2000/svg" xmlns:xlink="http://www.w3.org/1999/xlink">
    <!-- Generator: Sketch 53.2 (72643) - https://sketchapp.com -->
    <title>search</title>
    <desc>Created with Sketch.</desc>
    <g id="Page-1" stroke="none" stroke-width="1" fill="none" fill-rule="evenodd">
        <g id="Domain_Mobile-Copy-7" transform="translate(-268.000000, -231.000000)" fill="#FFFFFF" fill-rule="nonzero">
            <g id="Group-4" transform="translate(19.000000, 224.000000)">
                <g id="search" transform="translate(249.000000, 7.000000)">
                    <path d="M24.1868421,22.7574561 L18.2403509,16.572807 C19.7692982,14.7552632 20.6070175,12.4684211 20.6070175,10.0877193 C20.6070175,4.5254386 16.0815789,0 10.5192982,0 C4.95701754,0 0.431578947,4.5254386 0.431578947,10.0877193 C0.431578947,15.65 4.95701754,20.1754386 10.5192982,20.1754386 C12.6074561,20.1754386 14.5973684,19.545614 16.2986842,18.35 L22.2903509,24.5815789 C22.5407895,24.8416667 22.8776316,24.9850877 23.2385965,24.9850877 C23.5802632,24.9850877 23.904386,24.8548246 24.1504386,24.6179825 C24.6732456,24.1149123 24.6899123,23.2807018 24.1868421,22.7574561 Z M10.5192982,2.63157895 C14.6307018,2.63157895 17.9754386,5.97631579 17.9754386,10.0877193 C17.9754386,14.1991228 14.6307018,17.5438596 10.5192982,17.5438596 C6.40789474,17.5438596 3.06315789,14.1991228 3.06315789,10.0877193 C3.06315789,5.97631579 6.40789474,2.63157895 10.5192982,2.63157895 Z" id="Shape"></path>
                </g>
            </g>
        </g>
    </g>
</svg>