<svg width="100" height="100" viewBox="0 0 100 100" fill="none" xmlns="http://www.w3.org/2000/svg">
<path d="M91.2979 100H8.70215C3.89551 100 0 96.1045 0 91.2979V8.70215C0 3.89551 3.89551 0 8.70215 0H91.2979C96.1045 0 100 3.89551 100 8.70215V91.2979C100 96.1045 96.1045 100 91.2979 100Z" fill="#F5F5F5"/>
<path d="M91.2979 0H8.70215C3.89551 0 0 3.89551 0 8.70215V19.9996H100V8.70215C100 3.89551 96.1045 0 91.2979 0Z" fill="url(#paint0_linear_35_30409)"/>
<path d="M71.9398 10C71.9398 11.7699 70.5047 13.2051 68.7347 13.2051C66.9648 13.2051 65.5297 11.7699 65.5297 10C65.5297 8.23008 66.9646 6.79492 68.7347 6.79492C70.5049 6.79492 71.9398 8.22988 71.9398 10Z" fill="#8BE1E2"/>
<path d="M82.1594 10C82.1594 11.7699 80.7245 13.2051 78.9543 13.2051C77.1842 13.2051 75.7493 11.7699 75.7493 10C75.7493 8.23008 77.1844 6.79492 78.9543 6.79492C80.7243 6.79492 82.1594 8.22988 82.1594 10Z" fill="#FFD459"/>
<path d="M92.3789 10C92.3789 11.7699 90.9439 13.2051 89.1738 13.2051C87.4037 13.2051 85.9688 11.7699 85.9688 10C85.9688 8.23008 87.4039 6.79492 89.1738 6.79492C90.9438 6.79492 92.3789 8.22988 92.3789 10Z" fill="#FF6E3A"/>
<path d="M86.6272 90.5028H13.3731C9.38286 90.5028 6.14868 87.2679 6.14868 83.2786V57.0968C6.14868 53.1065 9.38306 49.8726 13.3731 49.8726H86.627C90.6165 49.8726 93.8514 53.1065 93.8514 57.0968V83.2784C93.8514 87.2679 90.6165 90.5028 86.627 90.5028H86.6272Z" fill="#E8E8E8"/>
<path d="M31.5742 88.4269C30.0537 88.1988 28.7078 87.2902 27.9052 85.8695C26.7951 83.9043 27.0591 81.5566 28.5781 79.8873L30.7822 77.4666L25.3142 71.4347C23.3947 69.3175 22.6951 66.4062 23.4419 63.6482C24.1898 60.8894 26.2634 58.7294 28.9894 57.8712C33.763 56.3673 38.0142 59.3078 39.3661 63.0203C39.5896 63.6335 39.2738 64.3126 38.6595 64.5363C38.0453 64.7599 37.3665 64.4439 37.1429 63.8298C36.1855 61.2007 33.2511 59.0095 29.7003 60.1279C27.7472 60.7437 26.2619 62.291 25.7263 64.2669C25.1908 66.2429 25.6919 68.3289 27.0675 69.8455L32.3829 75.7087L40.4908 66.8021C41.1697 66.056 42.2294 65.8646 43.1267 66.3253C43.8826 66.7136 44.329 67.4644 44.3259 68.2808L44.8165 67.3101C45.3146 66.323 46.3982 65.8683 47.4517 66.2041C48.5044 66.539 49.1263 67.5369 48.9622 68.6294L48.9494 68.7134L50.5027 66.0576C51.0292 65.1572 52.0531 64.7584 53.0501 65.0634C53.8763 65.316 54.4464 65.9804 54.579 66.7929L59.3009 59.5443L57.8285 58.0039C56.8519 56.9816 56.5613 55.5267 57.0693 54.2076C57.5775 52.8884 58.7691 52.005 60.179 51.9019C61.5585 51.8013 62.8517 52.4794 63.5542 53.6705C64.257 54.8615 64.2249 56.3209 63.4703 57.4798L62.3054 59.2673C62.951 59.9767 63.4388 60.815 63.7365 61.7267C64.0343 62.6385 64.1353 63.6031 64.0328 64.5568C63.9288 65.5395 63.6114 66.4876 63.1029 67.3348C62.5943 68.1821 61.9068 68.908 61.0884 69.4619L49.472 77.3353L75.2814 68.4441C75.8986 68.2312 76.5724 68.5593 76.7861 69.1773C76.888 69.474 76.868 69.7991 76.7304 70.0811C76.5927 70.3631 76.3488 70.5788 76.0521 70.681L49.0837 79.972C48.0255 80.3367 46.8949 79.8751 46.3951 78.8742C45.8945 77.874 46.2037 76.6921 47.129 76.065L59.7611 67.5025C60.2945 67.1418 60.7426 66.6689 61.0741 66.1168C61.4055 65.5648 61.6122 64.9469 61.6798 64.3066C61.7918 63.2669 61.5314 62.2212 60.9451 61.3554L56.288 68.5058C55.7328 69.358 54.7111 69.7144 53.746 69.3939C52.9624 69.133 52.4162 68.4921 52.2744 67.7162L50.566 70.6375C50.0249 71.5628 48.941 71.9605 47.9308 71.6033C46.9451 71.2562 46.3554 70.3064 46.4744 69.2763L45.9548 70.3041C45.449 71.3058 44.313 71.7621 43.2548 71.389C42.1966 71.0152 41.5986 69.9476 41.8333 68.85L41.8349 68.8408L33.979 77.4697L36.1785 79.8957C37.4374 81.2843 37.8378 83.1755 37.2497 84.9548C36.6622 86.7341 35.2142 88.015 33.3755 88.3804C32.7822 88.4995 32.1728 88.5152 31.5742 88.4269ZM32.379 79.2275L30.3283 81.4804C29.3341 82.5722 29.489 83.8623 29.965 84.7052C30.441 85.5482 31.4665 86.3464 32.9146 86.0587C33.9058 85.8611 34.6861 85.1714 35.0037 84.2117C35.3201 83.2527 35.1042 82.2326 34.4261 81.4841L32.379 79.2275ZM60.6384 54.2724C60.5434 54.2585 60.4473 54.2549 60.3515 54.2617C59.8572 54.2976 59.4558 54.5951 59.2773 55.0576C59.0996 55.5199 59.1972 56.0097 59.5398 56.3681L60.6277 57.5074L61.4874 56.1875C61.7523 55.7816 61.7628 55.2894 61.5165 54.872C61.3204 54.5394 61.0038 54.3273 60.6384 54.2724Z" fill="url(#paint1_linear_35_30409)"/>
<path d="M32.2293 33.2738C31.8842 33.1939 31.5371 33.1203 31.1882 33.0531V29.4246C31.1882 26.9848 28.8609 25 25.9999 25C23.1389 25 20.8118 26.9848 20.8118 29.4246V33.0533C20.4648 33.1204 20.1175 33.1934 19.7715 33.274C19.5497 33.3261 19.3541 33.4388 19.2147 33.5949C19.0754 33.751 18.9999 33.9418 19 34.138V43.4163C18.9999 43.6123 19.0754 43.803 19.2147 43.959C19.3541 44.115 19.5496 44.2276 19.7713 44.2796C23.8964 45.2401 28.1028 45.2401 32.2295 44.2796C32.4511 44.2275 32.6465 44.1149 32.7857 43.9589C32.9249 43.8029 33.0002 43.6123 33 43.4163V34.138C33.0002 33.9418 32.9249 33.7511 32.7857 33.595C32.6465 33.4389 32.451 33.3259 32.2293 33.2738ZM22.6088 29.4246C22.6088 27.8296 24.1304 26.5325 25.9999 26.5325C27.8696 26.5325 29.3912 27.8302 29.3912 29.4246V32.7672C27.1426 32.4838 24.8574 32.4838 22.6088 32.7672V29.4246ZM27.1152 39.7905C26.7932 39.9962 26.6121 40.3267 26.6121 40.67V41.3557C26.6121 41.4251 26.5958 41.4938 26.5643 41.5578C26.5328 41.6217 26.4867 41.6797 26.4286 41.7283C26.3706 41.7769 26.3017 41.8152 26.2261 41.8408C26.1505 41.8665 26.0697 41.8791 25.9883 41.8778C25.6513 41.8725 25.3877 41.6264 25.3877 41.3383V40.6872C25.3877 40.3354 25.2036 39.9967 24.8746 39.7838C24.6263 39.624 24.4291 39.4135 24.301 39.1718C24.1729 38.9301 24.118 38.6648 24.1414 38.4003C24.2061 37.6187 24.9501 36.9856 25.8673 36.9316C26.9569 36.8666 27.8632 37.6022 27.8632 38.5168C27.8638 38.7641 27.7964 39.0082 27.6666 39.2294C27.5367 39.4505 27.3479 39.6427 27.1152 39.7905Z" fill="#8BE1E2"/>
<path d="M39.9375 26.9187H77.9525V29.6501H39.9375V26.9187Z" fill="url(#paint2_linear_35_30409)"/>
<path d="M39.9375 33.6685H77.9525V36.3997H39.9375V33.6685Z" fill="url(#paint3_linear_35_30409)"/>
<path d="M39.9375 40.4182H70.209V43.1497H39.9375V40.4182Z" fill="url(#paint4_linear_35_30409)"/>
<defs>
<linearGradient id="paint0_linear_35_30409" x1="50" y1="5.40488" x2="50" y2="20.9402" gradientUnits="userSpaceOnUse">
<stop stop-color="#45425A"/>
<stop offset="1" stop-color="#2D3251"/>
</linearGradient>
<linearGradient id="paint1_linear_35_30409" x1="22.9267" y1="66.6857" x2="76.1004" y2="74.6487" gradientUnits="userSpaceOnUse">
<stop stop-color="#45425A"/>
<stop offset="1" stop-color="#2D3251"/>
</linearGradient>
<linearGradient id="paint2_linear_35_30409" x1="39.9375" y1="28.2845" x2="77.9531" y2="28.2845" gradientUnits="userSpaceOnUse">
<stop stop-color="#45425A"/>
<stop offset="1" stop-color="#2D3251"/>
</linearGradient>
<linearGradient id="paint3_linear_35_30409" x1="39.9375" y1="35.0343" x2="77.9531" y2="35.0343" gradientUnits="userSpaceOnUse">
<stop stop-color="#45425A"/>
<stop offset="1" stop-color="#2D3251"/>
</linearGradient>
<linearGradient id="paint4_linear_35_30409" x1="39.9375" y1="41.784" x2="70.2092" y2="41.784" gradientUnits="userSpaceOnUse">
<stop stop-color="#45425A"/>
<stop offset="1" stop-color="#2D3251"/>
</linearGradient>
</defs>
</svg>
