<svg width="79" height="40" viewBox="0 0 79 40" fill="none" xmlns="http://www.w3.org/2000/svg">
<path d="M68.9214 15.1147C67.2112 15.1147 66.1998 15.8467 65.5562 16.7067V16.048C65.5562 15.682 65.262 15.3892 64.8942 15.3892H62.0256C61.5291 15.3892 61.1429 15.7735 61.1429 16.2675V26.8073C61.1429 27.3014 61.5291 27.6856 62.0256 27.6856H64.6736C65.1701 27.6856 65.5562 27.3014 65.5562 26.8073V21.0617C65.5562 20.0919 66.2182 19.3599 67.3032 19.3599C68.3697 19.3599 69.0501 20.0919 69.0501 21.0617V26.8073C69.0501 27.3014 69.4363 27.6856 69.896 27.6856H72.544C73.0404 27.6856 73.4266 27.3014 73.4266 26.8073V20.0004C73.445 18.2072 72.8014 15.1147 68.9214 15.1147ZM55.8653 16.1394L53.8242 22.5438L51.783 16.1394C51.6359 15.7003 51.2314 15.3892 50.7532 15.3892H47.8478C47.3881 15.3892 47.0755 15.8467 47.241 16.2858L51.4336 27.0086C51.5807 27.4295 51.9853 27.6856 52.4266 27.6856H55.2033C55.6447 27.6856 56.0492 27.4112 56.2331 27.0086L60.389 16.2858C60.5545 15.8467 60.2419 15.3892 59.7821 15.3892H56.8951C56.417 15.3892 55.9941 15.7186 55.8653 16.1394Z" fill="#133C8A"/>
<path d="M45.4202 22.7632C44.0227 22.7632 42.9378 23.8794 42.9378 25.2334C42.9378 26.5875 44.0227 27.7037 45.4202 27.7037C46.781 27.7037 47.9027 26.5875 47.9027 25.2334C47.8843 23.8611 46.781 22.7632 45.4202 22.7632Z" fill="url(#paint0_linear_499_68)"/>
<path d="M77.656 13.669L70.2821 13.669C69.9879 13.669 69.7489 13.4311 69.7489 13.1383C69.7489 12.8455 69.9879 12.6077 70.2821 12.6077L77.656 12.6077C77.9503 12.6077 78.1893 12.8455 78.1893 13.1383C78.1893 13.4311 77.9503 13.669 77.656 13.669Z" fill="url(#paint1_linear_499_68)"/>
<path d="M74.6211 12.2598H73.3345C73.0404 12.2598 72.8014 12.0219 72.8014 11.7291C72.8014 11.4364 73.0404 11.1985 73.3345 11.1985H74.6211C74.9152 11.1985 75.1542 11.4364 75.1542 11.7291C75.1542 12.0219 74.9152 12.2598 74.6211 12.2598Z" fill="url(#paint2_linear_499_68)"/>
<path d="M73.9778 10.8692C73.6837 10.8692 73.4448 10.6313 73.4448 10.3385C73.4448 10.0457 73.6837 9.80786 73.9778 9.80786C74.2719 9.80786 74.5109 10.0457 74.5109 10.3385C74.4925 10.6313 74.2719 10.8692 73.9778 10.8692Z" fill="url(#paint3_linear_499_68)"/>
<path d="M74.7126 16.4685H75.9993C76.2934 16.4685 76.5323 16.2306 76.5323 15.9379C76.5323 15.6451 76.2934 15.4072 75.9993 15.4072H74.7126C74.4185 15.4072 74.1795 15.6451 74.1795 15.9379C74.1795 16.2306 74.4185 16.4685 74.7126 16.4685Z" fill="url(#paint4_linear_499_68)"/>
<path d="M76.4598 17.8591C76.7539 17.8591 76.9928 17.6213 76.9928 17.3285C76.9928 17.0357 76.7539 16.7979 76.4598 16.7979C76.1657 16.7979 75.9267 17.0357 75.9267 17.3285C75.9267 17.6213 76.1657 17.8591 76.4598 17.8591Z" fill="url(#paint5_linear_499_68)"/>
<path d="M75.5402 15.0596H72.3957C72.1014 15.0596 71.8624 14.8217 71.8624 14.5289C71.8624 14.2362 72.1014 13.9983 72.3957 13.9983H75.5402C75.8344 13.9983 76.0734 14.2362 76.0734 14.5289C76.0734 14.8217 75.8344 15.0596 75.5402 15.0596Z" fill="url(#paint6_linear_499_68)"/>
<path d="M40.1429 18.5728C40.1061 18.6276 40.0693 18.6825 40.0141 18.7191L35.5089 23.7878H39.6648C39.7199 23.7878 39.7751 23.7878 39.8303 23.8061C40.0693 22.5801 40.198 21.2992 40.198 20C40.198 19.5243 40.1796 19.0485 40.1429 18.5728Z" fill="#F26F31"/>
<path d="M15.2077 19.3413C13.9205 19.3413 13.0195 20.2379 13.0195 21.5371C13.0195 22.818 13.9205 23.7146 15.2077 23.7146C16.5685 23.7146 17.4144 22.7997 17.4144 21.5371C17.4144 20.2562 16.5501 19.3413 15.2077 19.3413Z" fill="url(#paint7_linear_499_68)"/>
<path d="M30.746 27.6487C30.2863 27.6487 29.9002 27.2644 29.9002 26.7704V25.032C29.9002 24.7575 29.9921 24.5197 30.176 24.3367L34.6812 19.2681L30.9667 19.2681C30.507 19.2681 30.1208 18.8838 30.1208 18.4263V16.2855C30.1208 15.8097 30.507 15.4071 30.9667 15.4071H39.4256C39.4991 15.4071 39.591 15.4254 39.6646 15.4437C37.5867 6.60567 29.6059 0 20.0989 0C8.82662 0 0 8.98445 0 20C0 31.0156 8.82662 40 20.0989 40C28.4475 40 35.6375 34.8948 38.6532 27.6487L30.746 27.6487ZM16.0902 27.9414C14.5823 27.9414 13.5709 27.4657 12.8721 26.6606V26.9899C12.8721 27.3559 12.5779 27.6487 12.2102 27.6487H9.37828C8.90017 27.6487 8.49562 27.2644 8.49562 26.7704L8.49562 11.6194C8.49562 11.1436 8.88178 10.7411 9.37828 10.7411H12.0263C12.486 10.7411 12.8721 11.1253 12.8721 11.6194L12.8721 16.3952C13.5709 15.6267 14.6007 15.1144 16.0902 15.1144C19.8967 15.1144 21.7907 18.3349 21.7907 21.5371C21.7907 24.7209 19.8967 27.9414 16.0902 27.9414ZM27.859 26.7887C27.859 27.2644 27.4728 27.667 27.0131 27.667H24.3651C23.887 27.667 23.4825 27.2827 23.4825 26.7887V16.2855C23.4825 15.8097 23.8686 15.4071 24.3651 15.4071H27.0131C27.4728 15.4071 27.859 15.7914 27.859 16.2855V26.7887ZM25.6891 14.2543C24.4571 14.2543 23.4273 13.2479 23.4273 11.9854C23.4273 10.7228 24.4387 9.71638 25.6891 9.71638C26.958 9.71638 27.9693 10.7228 27.9693 11.9854C27.9693 13.2296 26.9396 14.2543 25.6891 14.2543Z" fill="url(#paint8_linear_499_68)"/>
<defs>
<linearGradient id="paint0_linear_499_68" x1="42.9323" y1="25.2239" x2="47.8907" y2="25.2239" gradientUnits="userSpaceOnUse">
<stop stop-color="#DA2128"/>
<stop offset="0.1434" stop-color="#E1392B"/>
<stop offset="0.3265" stop-color="#E9512E"/>
<stop offset="0.5214" stop-color="#EE622F"/>
<stop offset="0.7346" stop-color="#F16C31"/>
<stop offset="1" stop-color="#F26F31"/>
</linearGradient>
<linearGradient id="paint1_linear_499_68" x1="69.7473" y1="13.1358" x2="78.1928" y2="13.1358" gradientUnits="userSpaceOnUse">
<stop stop-color="#DA2128"/>
<stop offset="0.1434" stop-color="#E1392B"/>
<stop offset="0.3265" stop-color="#E9512E"/>
<stop offset="0.5214" stop-color="#EE622F"/>
<stop offset="0.7346" stop-color="#F16C31"/>
<stop offset="1" stop-color="#F26F31"/>
</linearGradient>
<linearGradient id="paint2_linear_499_68" x1="72.8039" y1="11.7353" x2="75.1503" y2="11.7353" gradientUnits="userSpaceOnUse">
<stop stop-color="#DA2128"/>
<stop offset="0.1434" stop-color="#E1392B"/>
<stop offset="0.3265" stop-color="#E9512E"/>
<stop offset="0.5214" stop-color="#EE622F"/>
<stop offset="0.7346" stop-color="#F16C31"/>
<stop offset="1" stop-color="#F26F31"/>
</linearGradient>
<linearGradient id="paint3_linear_499_68" x1="73.453" y1="10.3349" x2="74.5013" y2="10.3349" gradientUnits="userSpaceOnUse">
<stop stop-color="#DA2128"/>
<stop offset="0.1434" stop-color="#E1392B"/>
<stop offset="0.3265" stop-color="#E9512E"/>
<stop offset="0.5214" stop-color="#EE622F"/>
<stop offset="0.7346" stop-color="#F16C31"/>
<stop offset="1" stop-color="#F26F31"/>
</linearGradient>
<linearGradient id="paint4_linear_499_68" x1="74.1791" y1="15.9365" x2="76.5253" y2="15.9365" gradientUnits="userSpaceOnUse">
<stop stop-color="#DA2128"/>
<stop offset="0.1434" stop-color="#E1392B"/>
<stop offset="0.3265" stop-color="#E9512E"/>
<stop offset="0.5214" stop-color="#EE622F"/>
<stop offset="0.7346" stop-color="#F16C31"/>
<stop offset="1" stop-color="#F26F31"/>
</linearGradient>
<linearGradient id="paint5_linear_499_68" x1="75.9231" y1="17.3368" x2="76.9786" y2="17.3368" gradientUnits="userSpaceOnUse">
<stop stop-color="#DA2128"/>
<stop offset="0.1434" stop-color="#E1392B"/>
<stop offset="0.3265" stop-color="#E9512E"/>
<stop offset="0.5214" stop-color="#EE622F"/>
<stop offset="0.7346" stop-color="#F16C31"/>
<stop offset="1" stop-color="#F26F31"/>
</linearGradient>
<linearGradient id="paint6_linear_499_68" x1="71.8579" y1="14.5362" x2="76.0799" y2="14.5362" gradientUnits="userSpaceOnUse">
<stop stop-color="#DA2128"/>
<stop offset="0.1434" stop-color="#E1392B"/>
<stop offset="0.3265" stop-color="#E9512E"/>
<stop offset="0.5214" stop-color="#EE622F"/>
<stop offset="0.7346" stop-color="#F16C31"/>
<stop offset="1" stop-color="#F26F31"/>
</linearGradient>
<linearGradient id="paint7_linear_499_68" x1="13.015" y1="21.5298" x2="17.4066" y2="21.5298" gradientUnits="userSpaceOnUse">
<stop stop-color="#DA2128"/>
<stop offset="0.1434" stop-color="#E1392B"/>
<stop offset="0.3265" stop-color="#E9512E"/>
<stop offset="0.5214" stop-color="#EE622F"/>
<stop offset="0.7346" stop-color="#F16C31"/>
<stop offset="1" stop-color="#F26F31"/>
</linearGradient>
<linearGradient id="paint8_linear_499_68" x1="0.00406392" y1="19.9976" x2="39.6702" y2="19.9976" gradientUnits="userSpaceOnUse">
<stop stop-color="#DA2128"/>
<stop offset="0.1434" stop-color="#E1392B"/>
<stop offset="0.3265" stop-color="#E9512E"/>
<stop offset="0.5214" stop-color="#EE622F"/>
<stop offset="0.7346" stop-color="#F16C31"/>
<stop offset="1" stop-color="#F26F31"/>
</linearGradient>
</defs>
</svg>
