<svg width="12" height="12" viewBox="0 0 12 12" fill="none" xmlns="http://www.w3.org/2000/svg">
<circle cx="6" cy="6" r="6" fill="#7FCA27"/>
<path d="M10.0007 4.17152C10.0017 4.23566 9.98933 4.2993 9.96442 4.35841C9.93952 4.41752 9.90259 4.47081 9.856 4.51488L6.11904 8.17183L5.41699 8.85855C5.37111 8.90439 5.31648 8.94052 5.25634 8.96481C5.19621 8.98909 5.1318 9.00102 5.06696 8.9999C5.00189 9.00124 4.93722 8.98941 4.87684 8.96512C4.81646 8.94083 4.76161 8.90458 4.7156 8.85855L4.01355 8.17183L2.14473 6.34303C2.09814 6.29895 2.06121 6.24566 2.03631 6.18655C2.0114 6.12744 1.99906 6.0638 2.00006 5.99967C2.00006 5.86499 2.04806 5.75031 2.14473 5.65631L2.84679 4.96959C2.89269 4.92355 2.94741 4.88724 3.00766 4.86284C3.06792 4.83844 3.13248 4.82645 3.19748 4.82757C3.33549 4.82757 3.45217 4.87491 3.54884 4.96959L5.06696 6.4597L8.45255 3.14144C8.5459 3.0481 8.67257 2.99743 8.80392 3.0001C8.94126 3.0001 9.0586 3.04677 9.15461 3.14144L9.85666 3.82816C9.95134 3.9175 10.0033 4.04218 10.0013 4.17219L10.0007 4.17152Z" fill="white"/>
</svg>
