<svg width="88" height="40" viewBox="0 0 88 40" fill="none" xmlns="http://www.w3.org/2000/svg">
<path d="M75.3866 13.8772C73.288 13.8772 72.0452 14.7858 71.2506 15.8803V15.0543C71.2506 14.6 70.8839 14.2283 70.4357 14.2283H66.9109C66.3201 14.2283 65.8311 14.7032 65.8311 15.3227V28.5183C65.8311 29.1172 66.2997 29.6128 66.9109 29.6128H70.1708C70.7616 29.6128 71.2506 29.1379 71.2506 28.5183V21.332C71.2506 20.1136 72.0656 19.205 73.4103 19.205C74.7346 19.205 75.5699 20.1136 75.5699 21.332V28.5183C75.5699 29.1172 76.0385 29.6128 76.609 29.6128H79.8689C80.4597 29.6128 80.9487 29.1379 80.9487 28.5183V19.9897C80.9487 17.7595 80.1541 13.8772 75.3866 13.8772ZM59.3521 15.1782L56.8461 23.1905L54.3197 15.1782C54.1364 14.6413 53.627 14.2283 53.0565 14.2283H49.4911C48.9206 14.2283 48.5335 14.8065 48.7372 15.3434L53.8919 28.7455C54.0752 29.2618 54.5846 29.5922 55.1143 29.5922H58.5168C59.0465 29.5922 59.5559 29.2618 59.78 28.7455L64.8939 15.3434C65.0976 14.8065 64.7105 14.2283 64.14 14.2283L60.6153 14.2283C60.0448 14.2283 59.5355 14.6206 59.3521 15.1782Z" fill="#133C8A"/>
<path d="M46.5164 29.5918C48.193 29.5918 49.5522 28.2142 49.5522 26.5149C49.5522 24.8156 48.193 23.438 46.5164 23.438C44.8398 23.438 43.4807 24.8156 43.4807 26.5149C43.4807 28.2142 44.8398 29.5918 46.5164 29.5918Z" fill="url(#paint0_linear_499_87)"/>
<path d="M86.124 12.0602H77.0779C76.7112 12.0602 76.426 11.771 76.426 11.3993C76.426 11.0483 76.7112 10.7385 77.0779 10.7385L86.124 10.7385C86.4908 10.7385 86.776 11.0276 86.776 11.3993C86.776 11.771 86.4704 12.0602 86.124 12.0602Z" fill="url(#paint1_linear_499_87)"/>
<path d="M82.3956 10.3045H80.8064C80.4396 10.3045 80.1544 10.0154 80.1544 9.64372C80.1544 9.27202 80.4396 8.98291 80.8064 8.98291H82.3956C82.7623 8.98291 83.0475 9.27202 83.0475 9.64372C83.0475 10.0154 82.7419 10.3045 82.3956 10.3045Z" fill="url(#paint2_linear_499_87)"/>
<path d="M81.6006 8.54941C81.2544 8.54941 80.9489 8.2603 80.9489 7.8886C80.9489 7.53754 81.234 7.22778 81.6006 7.22778C81.9468 7.22778 82.2523 7.51689 82.2523 7.8886C82.2523 8.2603 81.9468 8.54941 81.6006 8.54941Z" fill="url(#paint3_linear_499_87)"/>
<path d="M82.4972 15.5704H84.0863C84.4531 15.5704 84.7383 15.2813 84.7383 14.9096C84.7383 14.5379 84.4531 14.2488 84.0863 14.2488H82.4972C82.1304 14.2488 81.8452 14.5379 81.8452 14.9096C81.8452 15.2813 82.1304 15.5704 82.4972 15.5704Z" fill="url(#paint4_linear_499_87)"/>
<path d="M84.6364 17.3258C85.003 17.3258 85.2881 17.0367 85.2881 16.665C85.2881 16.2933 85.003 16.0042 84.6364 16.0042C84.2698 16.0042 83.9847 16.2933 83.9847 16.665C83.9847 17.016 84.2698 17.3258 84.6364 17.3258Z" fill="url(#paint5_linear_499_87)"/>
<path d="M83.5159 13.8153H79.6448C79.278 13.8153 78.9928 13.5262 78.9928 13.1545C78.9928 12.7828 79.2984 12.4937 79.6448 12.4937H83.5159C83.8826 12.4937 84.1678 12.7828 84.1678 13.1545C84.1882 13.5262 83.8826 13.8153 83.5159 13.8153Z" fill="url(#paint6_linear_499_87)"/>
<path d="M33.0672 29.5509C32.619 29.5509 32.2726 29.1792 32.2726 28.7455V28.3325C31.4373 29.3237 30.1945 29.9432 28.3404 29.9432C23.634 29.9432 21.3113 25.9371 21.3113 21.9515C21.3113 17.9454 23.634 13.9185 28.3404 13.9185C30.1945 13.9185 31.4373 14.5587 32.2726 15.5293V9.54064C32.2726 8.94177 32.7412 8.44616 33.3524 8.44616H35.8585C32.2726 3.34551 26.3845 0.000141525 19.7629 0.000141525C8.659 -0.0411593 0 8.96242 0 19.9897C0 31.0171 8.659 40 19.7425 40C27.1995 40 33.7192 35.7667 37.0809 29.5509H33.0672ZM19.2332 28.4771C19.2332 29.0759 18.7646 29.5715 18.1941 29.5715H14.9546C14.3638 29.5715 13.8748 29.0966 13.8748 28.4771V15.3434C13.8748 14.7445 14.3434 14.2489 14.9546 14.2489H18.1941C18.7646 14.2489 19.2332 14.7239 19.2332 15.3434V28.4771ZM16.5642 12.8034C15.0361 12.8034 13.7933 11.5437 13.7933 9.97429C13.7933 8.40486 15.0361 7.14519 16.5642 7.14519C18.1126 7.12454 19.3554 8.38421 19.3554 9.95364C19.3554 11.5231 18.1126 12.8034 16.5642 12.8034Z" fill="url(#paint7_linear_499_87)"/>
<path d="M29.3996 19.1638C27.7697 19.1638 26.7103 20.3202 26.7103 21.9103C26.7103 23.4798 27.7493 24.6362 29.3996 24.6362C31.0092 24.6362 32.1094 23.5211 32.1094 21.9103C32.1094 20.2789 31.0092 19.1638 29.3996 19.1638Z" fill="url(#paint8_linear_499_87)"/>
<defs>
<linearGradient id="paint0_linear_499_87" x1="43.4818" y1="26.5227" x2="49.5698" y2="26.5227" gradientUnits="userSpaceOnUse">
<stop stop-color="#DA2128"/>
<stop offset="0.1434" stop-color="#E1392B"/>
<stop offset="0.3265" stop-color="#E9512E"/>
<stop offset="0.5214" stop-color="#EE622F"/>
<stop offset="0.7346" stop-color="#F16C31"/>
<stop offset="1" stop-color="#F26F31"/>
</linearGradient>
<linearGradient id="paint1_linear_499_87" x1="76.4058" y1="11.4055" x2="86.7754" y2="11.4055" gradientUnits="userSpaceOnUse">
<stop stop-color="#DA2128"/>
<stop offset="0.1434" stop-color="#E1392B"/>
<stop offset="0.3265" stop-color="#E9512E"/>
<stop offset="0.5214" stop-color="#EE622F"/>
<stop offset="0.7346" stop-color="#F16C31"/>
<stop offset="1" stop-color="#F26F31"/>
</linearGradient>
<linearGradient id="paint2_linear_499_87" x1="80.1587" y1="9.65382" x2="83.0409" y2="9.65382" gradientUnits="userSpaceOnUse">
<stop stop-color="#DA2128"/>
<stop offset="0.1434" stop-color="#E1392B"/>
<stop offset="0.3265" stop-color="#E9512E"/>
<stop offset="0.5214" stop-color="#EE622F"/>
<stop offset="0.7346" stop-color="#F16C31"/>
<stop offset="1" stop-color="#F26F31"/>
</linearGradient>
<linearGradient id="paint3_linear_499_87" x1="80.956" y1="7.9026" x2="82.243" y2="7.9026" gradientUnits="userSpaceOnUse">
<stop stop-color="#DA2128"/>
<stop offset="0.1434" stop-color="#E1392B"/>
<stop offset="0.3265" stop-color="#E9512E"/>
<stop offset="0.5214" stop-color="#EE622F"/>
<stop offset="0.7346" stop-color="#F16C31"/>
<stop offset="1" stop-color="#F26F31"/>
</linearGradient>
<linearGradient id="paint4_linear_499_87" x1="81.8482" y1="14.9079" x2="84.7302" y2="14.9079" gradientUnits="userSpaceOnUse">
<stop stop-color="#DA2128"/>
<stop offset="0.1434" stop-color="#E1392B"/>
<stop offset="0.3265" stop-color="#E9512E"/>
<stop offset="0.5214" stop-color="#EE622F"/>
<stop offset="0.7346" stop-color="#F16C31"/>
<stop offset="1" stop-color="#F26F31"/>
</linearGradient>
<linearGradient id="paint5_linear_499_87" x1="83.9896" y1="16.6592" x2="85.2855" y2="16.6592" gradientUnits="userSpaceOnUse">
<stop stop-color="#DA2128"/>
<stop offset="0.1434" stop-color="#E1392B"/>
<stop offset="0.3265" stop-color="#E9512E"/>
<stop offset="0.5214" stop-color="#EE622F"/>
<stop offset="0.7346" stop-color="#F16C31"/>
<stop offset="1" stop-color="#F26F31"/>
</linearGradient>
<linearGradient id="paint6_linear_499_87" x1="78.9984" y1="13.1566" x2="84.1822" y2="13.1566" gradientUnits="userSpaceOnUse">
<stop stop-color="#DA2128"/>
<stop offset="0.1434" stop-color="#E1392B"/>
<stop offset="0.3265" stop-color="#E9512E"/>
<stop offset="0.5214" stop-color="#EE622F"/>
<stop offset="0.7346" stop-color="#F16C31"/>
<stop offset="1" stop-color="#F26F31"/>
</linearGradient>
<linearGradient id="paint7_linear_499_87" x1="0" y1="19.987" x2="37.0905" y2="19.987" gradientUnits="userSpaceOnUse">
<stop stop-color="#DA2128"/>
<stop offset="0.1434" stop-color="#E1392B"/>
<stop offset="0.3265" stop-color="#E9512E"/>
<stop offset="0.5214" stop-color="#EE622F"/>
<stop offset="0.7346" stop-color="#F16C31"/>
<stop offset="1" stop-color="#F26F31"/>
</linearGradient>
<linearGradient id="paint8_linear_499_87" x1="26.7174" y1="21.9033" x2="32.1098" y2="21.9033" gradientUnits="userSpaceOnUse">
<stop stop-color="#DA2128"/>
<stop offset="0.1434" stop-color="#E1392B"/>
<stop offset="0.3265" stop-color="#E9512E"/>
<stop offset="0.5214" stop-color="#EE622F"/>
<stop offset="0.7346" stop-color="#F16C31"/>
<stop offset="1" stop-color="#F26F31"/>
</linearGradient>
</defs>
</svg>
