<?xml version="1.0" encoding="UTF-8"?>
<svg width="17px" height="19px" viewBox="0 0 17 19" version="1.1" xmlns="http://www.w3.org/2000/svg" xmlns:xlink="http://www.w3.org/1999/xlink">
    <!-- Generator: Sketch 61.2 (89653) - https://sketch.com -->
    <title>down-arrow</title>
    <desc>Created with Sketch.</desc>
    <g id="Page-1" stroke="none" stroke-width="1" fill="none" fill-rule="evenodd">
        <g id="IDMBnet_DSHopdong_Tochuc" transform="translate(-1299.000000, -279.000000)" fill="#1E74E8" fill-rule="nonzero">
            <g id="Group-5" transform="translate(1258.000000, 235.000000)">
                <g id="Group-16" transform="translate(41.000000, 44.000000)">
                    <g id="down-arrow">
                        <path d="M16.0669582,12.4247532 C15.7120042,12.4247532 15.4242678,12.7124896 15.4242678,13.0674435 L15.4242678,16.9235105 C15.4242678,17.2784644 15.1365314,17.5662009 14.7815774,17.5662009 L1.92807113,17.5662009 C1.57311715,17.5662009 1.28538075,17.2784644 1.28538075,16.9235105 L1.28538075,13.0674435 C1.28538075,12.7124896 0.997644351,12.4247532 0.642690377,12.4247532 C0.287736402,12.4247532 0,12.7124896 0,13.0674435 L0,16.9235105 C0,17.9883347 0.863209205,18.8515439 1.92803347,18.8515439 L14.7816151,18.8515439 C15.8464393,18.8515439 16.7096485,17.9883347 16.7096485,16.9235105 L16.7096485,13.0674435 C16.7096485,12.7124896 16.4219121,12.4247532 16.0669582,12.4247532 Z" id="Path"></path>
                        <path d="M12.0080711,11.1138326 C11.7590084,10.873318 11.3641757,10.873318 11.1151506,11.1138326 L8.99751464,13.2301506 L8.99751464,0.642690377 C8.99751464,0.287736402 8.70977824,1.8189894e-12 8.35482427,1.8189894e-12 C7.99987029,1.8189894e-12 7.71213389,0.287736402 7.71213389,0.642690377 L7.71213389,13.2301883 L5.59577824,11.1138326 C5.34046444,10.8672552 4.93361925,10.8743347 4.68704184,11.1296109 C4.44648954,11.3786736 4.44648954,11.7735063 4.68704184,12.022569 L7.90041841,15.2359456 C8.15110042,15.4872301 8.55802092,15.4877573 8.80930544,15.237113 C8.80968201,15.2367364 8.81005858,15.2363598 8.8104728,15.2359456 L12.0238494,12.022569 C12.2704644,11.7672552 12.2633849,11.36041 12.0080711,11.1138326 Z" id="Path" transform="translate(8.355454, 7.712377) rotate(-180.000000) translate(-8.355454, -7.712377) "></path>
                    </g>
                </g>
            </g>
        </g>
    </g>
</svg>